%TF.GenerationSoftware,KiCad,Pcbnew,9.0.6*%
%TF.CreationDate,2025-12-26T19:16:24+05:30*%
%TF.ProjectId,HEpad,48457061-642e-46b6-9963-61645f706362,rev?*%
%TF.SameCoordinates,Original*%
%TF.FileFunction,Soldermask,Top*%
%TF.FilePolarity,Negative*%
%FSLAX46Y46*%
G04 Gerber Fmt 4.6, Leading zero omitted, Abs format (unit mm)*
G04 Created by KiCad (PCBNEW 9.0.6) date 2025-12-26 19:16:24*
%MOMM*%
%LPD*%
G01*
G04 APERTURE LIST*
G04 Aperture macros list*
%AMRoundRect*
0 Rectangle with rounded corners*
0 $1 Rounding radius*
0 $2 $3 $4 $5 $6 $7 $8 $9 X,Y pos of 4 corners*
0 Add a 4 corners polygon primitive as box body*
4,1,4,$2,$3,$4,$5,$6,$7,$8,$9,$2,$3,0*
0 Add four circle primitives for the rounded corners*
1,1,$1+$1,$2,$3*
1,1,$1+$1,$4,$5*
1,1,$1+$1,$6,$7*
1,1,$1+$1,$8,$9*
0 Add four rect primitives between the rounded corners*
20,1,$1+$1,$2,$3,$4,$5,0*
20,1,$1+$1,$4,$5,$6,$7,0*
20,1,$1+$1,$6,$7,$8,$9,0*
20,1,$1+$1,$8,$9,$2,$3,0*%
G04 Aperture macros list end*
%ADD10C,3.200000*%
%ADD11R,1.050000X1.500000*%
%ADD12O,1.050000X1.500000*%
%ADD13C,1.700000*%
%ADD14RoundRect,0.400000X-0.900000X-0.400000X0.900000X-0.400000X0.900000X0.400000X-0.900000X0.400000X0*%
%ADD15RoundRect,0.400050X-0.899950X-0.400050X0.899950X-0.400050X0.899950X0.400050X-0.899950X0.400050X0*%
%ADD16RoundRect,0.400000X-0.400000X-0.900000X0.400000X-0.900000X0.400000X0.900000X-0.400000X0.900000X0*%
%ADD17RoundRect,0.393700X-0.393700X-0.906300X0.393700X-0.906300X0.393700X0.906300X-0.393700X0.906300X0*%
%ADD18C,1.600000*%
%ADD19R,1.700000X1.700000*%
G04 APERTURE END LIST*
D10*
%TO.C,REF\u002A\u002A*%
X109600000Y-78100000D03*
%TD*%
%TO.C,REF\u002A\u002A*%
X174400000Y-120900000D03*
%TD*%
D11*
%TO.C,U2*%
X140730000Y-111360000D03*
D12*
X142000000Y-111360000D03*
X143270000Y-111360000D03*
%TD*%
D10*
%TO.C,REF\u002A\u002A*%
X174400000Y-78100000D03*
%TD*%
D13*
%TO.C,SW1*%
X117920000Y-108000000D03*
X128080000Y-108000000D03*
%TD*%
D14*
%TO.C,RZ1*%
X150165000Y-76765000D03*
X150165000Y-79305000D03*
X150165000Y-81845000D03*
X150165000Y-84385000D03*
X150165000Y-86925000D03*
D15*
X150165000Y-89465000D03*
X150165000Y-92005000D03*
X150165000Y-94545000D03*
X150165000Y-97085000D03*
D16*
X147025000Y-97895000D03*
D17*
X144485000Y-97895000D03*
X141945000Y-97895000D03*
X139405000Y-97895000D03*
X136865000Y-97895000D03*
D15*
X133725000Y-97085000D03*
X133725000Y-94545000D03*
X133725000Y-92005000D03*
X133725000Y-89465000D03*
X133725000Y-86925000D03*
X133725000Y-84385000D03*
X133725000Y-81845000D03*
X133725000Y-76765000D03*
X133725000Y-79305000D03*
%TD*%
D18*
%TO.C,C2*%
X140000000Y-120000000D03*
X142500000Y-120000000D03*
%TD*%
D19*
%TO.C,D1*%
X115250000Y-84420000D03*
D13*
X115250000Y-86960000D03*
X115250000Y-89500000D03*
X115250000Y-92040000D03*
%TD*%
D11*
%TO.C,U3*%
X159710000Y-111360000D03*
D12*
X160980000Y-111360000D03*
X162250000Y-111360000D03*
%TD*%
D19*
%TO.C,D2*%
X168750000Y-92040000D03*
D13*
X168750000Y-89500000D03*
X168750000Y-86960000D03*
X168750000Y-84420000D03*
%TD*%
D18*
%TO.C,C3*%
X159500000Y-120000000D03*
X162000000Y-120000000D03*
%TD*%
D13*
%TO.C,SW2*%
X136920000Y-108000000D03*
X147080000Y-108000000D03*
%TD*%
D10*
%TO.C,REF\u002A\u002A*%
X109600000Y-120900000D03*
%TD*%
D13*
%TO.C,SW3*%
X155980000Y-108000000D03*
X166140000Y-108000000D03*
%TD*%
D18*
%TO.C,C1*%
X121000000Y-120000000D03*
X123500000Y-120000000D03*
%TD*%
D11*
%TO.C,U1*%
X121730000Y-111360000D03*
D12*
X123000000Y-111360000D03*
X124270000Y-111360000D03*
%TD*%
M02*
