%TF.GenerationSoftware,KiCad,Pcbnew,9.0.6*%
%TF.CreationDate,2025-12-26T19:16:23+05:30*%
%TF.ProjectId,HEpad,48457061-642e-46b6-9963-61645f706362,rev?*%
%TF.SameCoordinates,Original*%
%TF.FileFunction,Legend,Top*%
%TF.FilePolarity,Positive*%
%FSLAX46Y46*%
G04 Gerber Fmt 4.6, Leading zero omitted, Abs format (unit mm)*
G04 Created by KiCad (PCBNEW 9.0.6) date 2025-12-26 19:16:23*
%MOMM*%
%LPD*%
G01*
G04 APERTURE LIST*
%ADD10C,0.000000*%
%ADD11C,0.150000*%
%ADD12C,0.100000*%
%ADD13C,0.120000*%
G04 APERTURE END LIST*
D10*
G36*
X132685991Y-115174912D02*
G01*
X132867386Y-115188705D01*
X133046144Y-115211420D01*
X133222040Y-115242832D01*
X133394850Y-115282716D01*
X133564349Y-115330848D01*
X133730313Y-115387005D01*
X133892517Y-115450960D01*
X134050738Y-115522490D01*
X134204750Y-115601370D01*
X134354329Y-115687377D01*
X134499251Y-115780284D01*
X134639292Y-115879869D01*
X134774226Y-115985907D01*
X134903830Y-116098173D01*
X135027879Y-116216442D01*
X135146149Y-116340491D01*
X135258415Y-116470095D01*
X135364452Y-116605030D01*
X135464037Y-116745070D01*
X135556945Y-116889992D01*
X135642951Y-117039572D01*
X135721832Y-117193584D01*
X135793362Y-117351804D01*
X135857317Y-117514009D01*
X135913473Y-117679973D01*
X135961606Y-117849472D01*
X136001490Y-118022282D01*
X136032902Y-118198178D01*
X136055616Y-118376935D01*
X136069410Y-118558331D01*
X136074058Y-118742139D01*
X136069410Y-118925947D01*
X136055616Y-119107342D01*
X136032902Y-119286100D01*
X136001490Y-119461996D01*
X135961606Y-119634806D01*
X135913473Y-119804305D01*
X135857317Y-119970269D01*
X135793362Y-120132473D01*
X135721832Y-120290694D01*
X135642951Y-120444706D01*
X135556945Y-120594285D01*
X135464037Y-120739207D01*
X135364452Y-120879248D01*
X135258415Y-121014182D01*
X135146149Y-121143786D01*
X135027879Y-121267835D01*
X134903830Y-121386105D01*
X134774226Y-121498371D01*
X134639292Y-121604408D01*
X134499251Y-121703993D01*
X134354329Y-121796901D01*
X134204750Y-121882907D01*
X134050738Y-121961788D01*
X133892517Y-122033318D01*
X133730313Y-122097273D01*
X133564349Y-122153429D01*
X133394850Y-122201562D01*
X133222040Y-122241446D01*
X133046144Y-122272858D01*
X132867386Y-122295572D01*
X132685991Y-122309366D01*
X132502183Y-122314014D01*
X132318375Y-122309366D01*
X132136979Y-122295572D01*
X131958222Y-122272858D01*
X131782326Y-122241446D01*
X131609516Y-122201562D01*
X131440017Y-122153429D01*
X131274053Y-122097273D01*
X131111848Y-122033318D01*
X130953628Y-121961788D01*
X130799616Y-121882907D01*
X130650036Y-121796901D01*
X130505114Y-121703993D01*
X130365074Y-121604408D01*
X130230139Y-121498371D01*
X130100535Y-121386105D01*
X129976486Y-121267835D01*
X129858217Y-121143786D01*
X129745951Y-121014182D01*
X129639913Y-120879248D01*
X129540328Y-120739207D01*
X129447421Y-120594285D01*
X129361414Y-120444706D01*
X129282534Y-120290694D01*
X129211004Y-120132473D01*
X129147049Y-119970269D01*
X129090892Y-119804305D01*
X129042760Y-119634806D01*
X129002876Y-119461996D01*
X128971464Y-119286100D01*
X128948749Y-119107342D01*
X128934956Y-118925947D01*
X128930308Y-118742139D01*
X129287495Y-118742139D01*
X129291678Y-118907566D01*
X129304093Y-119070821D01*
X129324536Y-119231703D01*
X129352807Y-119390010D01*
X129388703Y-119545538D01*
X129432022Y-119698087D01*
X129482562Y-119847455D01*
X129540122Y-119993439D01*
X129604499Y-120135838D01*
X129675491Y-120274449D01*
X129752897Y-120409070D01*
X129836514Y-120539500D01*
X129926141Y-120665536D01*
X130021575Y-120786977D01*
X130122614Y-120903621D01*
X130229057Y-121015265D01*
X130340701Y-121121708D01*
X130457344Y-121222747D01*
X130578785Y-121318181D01*
X130704822Y-121407807D01*
X130835252Y-121491425D01*
X130969873Y-121568830D01*
X131108484Y-121639823D01*
X131250883Y-121704200D01*
X131396867Y-121761760D01*
X131546234Y-121812300D01*
X131698783Y-121855619D01*
X131854312Y-121891515D01*
X132012618Y-121919786D01*
X132173500Y-121940229D01*
X132336756Y-121952643D01*
X132502183Y-121956826D01*
X132667610Y-121952643D01*
X132830865Y-121940229D01*
X132991747Y-121919786D01*
X133150054Y-121891515D01*
X133305582Y-121855619D01*
X133458131Y-121812300D01*
X133607499Y-121761760D01*
X133753483Y-121704200D01*
X133895882Y-121639823D01*
X134034493Y-121568830D01*
X134169114Y-121491425D01*
X134299544Y-121407807D01*
X134425580Y-121318181D01*
X134547021Y-121222747D01*
X134663665Y-121121708D01*
X134775309Y-121015265D01*
X134881752Y-120903621D01*
X134982791Y-120786977D01*
X135078225Y-120665536D01*
X135167851Y-120539500D01*
X135251469Y-120409070D01*
X135328874Y-120274449D01*
X135399867Y-120135838D01*
X135464244Y-119993439D01*
X135521804Y-119847455D01*
X135572344Y-119698087D01*
X135615663Y-119545538D01*
X135651559Y-119390010D01*
X135679830Y-119231703D01*
X135700273Y-119070821D01*
X135712687Y-118907566D01*
X135716870Y-118742139D01*
X135712687Y-118576712D01*
X135700273Y-118413456D01*
X135679830Y-118252574D01*
X135651559Y-118094268D01*
X135615663Y-117938739D01*
X135572344Y-117786190D01*
X135521804Y-117636823D01*
X135464244Y-117490839D01*
X135399867Y-117348440D01*
X135328874Y-117209829D01*
X135251469Y-117075208D01*
X135167851Y-116944778D01*
X135078225Y-116818741D01*
X134982791Y-116697300D01*
X134881752Y-116580657D01*
X134775309Y-116469013D01*
X134663665Y-116362570D01*
X134547021Y-116261531D01*
X134425580Y-116166097D01*
X134299544Y-116076470D01*
X134169114Y-115992853D01*
X134034493Y-115915447D01*
X133895882Y-115844455D01*
X133753483Y-115780078D01*
X133607499Y-115722518D01*
X133458131Y-115671978D01*
X133305582Y-115628659D01*
X133150054Y-115592763D01*
X132991747Y-115564492D01*
X132830865Y-115544049D01*
X132667610Y-115531634D01*
X132502183Y-115527451D01*
X132336756Y-115531634D01*
X132173500Y-115544049D01*
X132012618Y-115564492D01*
X131854312Y-115592763D01*
X131698783Y-115628659D01*
X131546234Y-115671978D01*
X131396867Y-115722518D01*
X131250883Y-115780078D01*
X131108484Y-115844455D01*
X130969873Y-115915447D01*
X130835252Y-115992853D01*
X130704822Y-116076470D01*
X130578785Y-116166097D01*
X130457344Y-116261531D01*
X130340701Y-116362570D01*
X130229057Y-116469013D01*
X130122614Y-116580657D01*
X130021575Y-116697300D01*
X129926141Y-116818741D01*
X129836514Y-116944778D01*
X129752897Y-117075208D01*
X129675491Y-117209829D01*
X129604499Y-117348440D01*
X129540122Y-117490839D01*
X129482562Y-117636823D01*
X129432022Y-117786190D01*
X129388703Y-117938739D01*
X129352807Y-118094268D01*
X129324536Y-118252574D01*
X129304093Y-118413456D01*
X129291678Y-118576712D01*
X129287495Y-118742139D01*
X128930308Y-118742139D01*
X128934956Y-118558331D01*
X128948749Y-118376935D01*
X128971464Y-118198178D01*
X129002876Y-118022282D01*
X129042760Y-117849472D01*
X129090892Y-117679973D01*
X129147049Y-117514009D01*
X129211004Y-117351804D01*
X129282534Y-117193584D01*
X129361414Y-117039572D01*
X129447421Y-116889992D01*
X129540328Y-116745070D01*
X129639913Y-116605030D01*
X129745951Y-116470095D01*
X129858217Y-116340491D01*
X129976486Y-116216442D01*
X130100535Y-116098173D01*
X130230139Y-115985907D01*
X130365074Y-115879869D01*
X130505114Y-115780284D01*
X130650036Y-115687377D01*
X130799616Y-115601370D01*
X130953628Y-115522490D01*
X131111848Y-115450960D01*
X131274053Y-115387005D01*
X131440017Y-115330848D01*
X131609516Y-115282716D01*
X131782326Y-115242832D01*
X131958222Y-115211420D01*
X132136979Y-115188705D01*
X132318375Y-115174912D01*
X132502183Y-115170264D01*
X132685991Y-115174912D01*
G37*
G36*
X130808914Y-118107253D02*
G01*
X130846766Y-118109978D01*
X130883865Y-118114475D01*
X130920176Y-118120708D01*
X130955668Y-118128639D01*
X130990305Y-118138233D01*
X131024057Y-118149453D01*
X131056889Y-118162263D01*
X131088769Y-118176625D01*
X131119664Y-118192504D01*
X131149540Y-118209863D01*
X131178365Y-118228666D01*
X131206106Y-118248876D01*
X131232729Y-118270456D01*
X131258202Y-118293370D01*
X131282492Y-118317582D01*
X131305565Y-118343054D01*
X131327389Y-118369752D01*
X131347930Y-118397637D01*
X131367157Y-118426674D01*
X131385034Y-118456826D01*
X131401530Y-118488057D01*
X131416612Y-118520329D01*
X131430247Y-118553607D01*
X131442401Y-118587854D01*
X131453041Y-118623034D01*
X131462136Y-118659110D01*
X131469650Y-118696045D01*
X131475552Y-118733804D01*
X131479809Y-118772349D01*
X131482387Y-118811644D01*
X131483254Y-118851652D01*
X131482387Y-118891407D01*
X131479809Y-118930480D01*
X131475552Y-118968834D01*
X131469650Y-119006430D01*
X131462136Y-119043231D01*
X131453041Y-119079198D01*
X131442401Y-119114293D01*
X131430247Y-119148479D01*
X131416612Y-119181716D01*
X131401530Y-119213968D01*
X131385034Y-119245196D01*
X131367157Y-119275361D01*
X131347930Y-119304426D01*
X131327389Y-119332353D01*
X131305565Y-119359104D01*
X131282492Y-119384640D01*
X131258202Y-119408923D01*
X131232729Y-119431916D01*
X131206106Y-119453580D01*
X131178365Y-119473877D01*
X131149540Y-119492769D01*
X131119664Y-119510219D01*
X131088769Y-119526187D01*
X131056889Y-119540636D01*
X131024057Y-119553528D01*
X130990305Y-119564824D01*
X130955668Y-119574487D01*
X130920176Y-119582479D01*
X130883865Y-119588761D01*
X130846766Y-119593295D01*
X130808914Y-119596043D01*
X130770339Y-119596968D01*
X130731766Y-119596043D01*
X130693914Y-119593295D01*
X130656816Y-119588761D01*
X130620505Y-119582479D01*
X130585014Y-119574487D01*
X130550377Y-119564824D01*
X130516626Y-119553528D01*
X130483794Y-119540636D01*
X130451915Y-119526187D01*
X130421020Y-119510219D01*
X130391144Y-119492769D01*
X130362320Y-119473877D01*
X130334579Y-119453580D01*
X130307956Y-119431916D01*
X130282484Y-119408923D01*
X130258194Y-119384640D01*
X130235121Y-119359104D01*
X130213297Y-119332353D01*
X130192756Y-119304426D01*
X130173530Y-119275361D01*
X130155652Y-119245196D01*
X130139156Y-119213968D01*
X130124074Y-119181716D01*
X130110440Y-119148479D01*
X130098286Y-119114293D01*
X130087645Y-119079198D01*
X130078551Y-119043231D01*
X130071037Y-119006430D01*
X130065135Y-118968834D01*
X130060878Y-118930480D01*
X130058300Y-118891407D01*
X130057433Y-118851652D01*
X130379743Y-118851652D01*
X130380181Y-118874228D01*
X130381489Y-118896442D01*
X130383655Y-118918272D01*
X130386668Y-118939693D01*
X130390517Y-118960682D01*
X130395192Y-118981216D01*
X130400681Y-119001272D01*
X130406973Y-119020827D01*
X130414057Y-119039857D01*
X130421922Y-119058340D01*
X130430558Y-119076251D01*
X130439953Y-119093567D01*
X130450096Y-119110265D01*
X130460977Y-119126323D01*
X130472583Y-119141716D01*
X130484905Y-119156422D01*
X130497931Y-119170416D01*
X130511650Y-119183677D01*
X130526051Y-119196180D01*
X130541124Y-119207902D01*
X130556857Y-119218820D01*
X130573238Y-119228911D01*
X130590258Y-119238151D01*
X130607905Y-119246518D01*
X130626169Y-119253987D01*
X130645037Y-119260536D01*
X130664500Y-119266141D01*
X130684545Y-119270780D01*
X130705163Y-119274428D01*
X130726342Y-119277062D01*
X130748071Y-119278660D01*
X130770339Y-119279198D01*
X130792608Y-119278660D01*
X130814338Y-119277062D01*
X130835518Y-119274428D01*
X130856136Y-119270780D01*
X130876182Y-119266141D01*
X130895645Y-119260536D01*
X130914514Y-119253987D01*
X130932778Y-119246518D01*
X130950425Y-119238151D01*
X130967446Y-119228911D01*
X130983828Y-119218820D01*
X130999561Y-119207902D01*
X131014634Y-119196180D01*
X131029035Y-119183677D01*
X131042755Y-119170416D01*
X131055781Y-119156422D01*
X131068103Y-119141716D01*
X131079709Y-119126323D01*
X131090590Y-119110265D01*
X131100733Y-119093567D01*
X131110128Y-119076251D01*
X131118764Y-119058340D01*
X131126630Y-119039857D01*
X131133714Y-119020827D01*
X131140006Y-119001272D01*
X131145495Y-118981216D01*
X131150170Y-118960682D01*
X131154019Y-118939693D01*
X131157032Y-118918272D01*
X131159198Y-118896442D01*
X131160506Y-118874228D01*
X131160944Y-118851652D01*
X131160506Y-118829067D01*
X131159198Y-118806828D01*
X131157032Y-118784960D01*
X131154019Y-118763486D01*
X131150170Y-118742431D01*
X131145495Y-118721819D01*
X131140006Y-118701675D01*
X131133714Y-118682023D01*
X131126630Y-118662887D01*
X131118764Y-118644292D01*
X131110128Y-118626261D01*
X131100733Y-118608820D01*
X131090590Y-118591993D01*
X131079709Y-118575803D01*
X131068103Y-118560276D01*
X131055781Y-118545436D01*
X131042755Y-118531306D01*
X131029035Y-118517912D01*
X131014634Y-118505277D01*
X130999561Y-118493426D01*
X130983828Y-118482383D01*
X130967446Y-118472173D01*
X130950425Y-118462820D01*
X130932778Y-118454348D01*
X130914514Y-118446782D01*
X130895645Y-118440146D01*
X130876182Y-118434464D01*
X130856136Y-118429760D01*
X130835518Y-118426059D01*
X130814338Y-118423386D01*
X130792608Y-118421764D01*
X130770339Y-118421218D01*
X130748071Y-118421764D01*
X130726342Y-118423386D01*
X130705163Y-118426059D01*
X130684545Y-118429760D01*
X130664500Y-118434464D01*
X130645037Y-118440146D01*
X130626169Y-118446782D01*
X130607905Y-118454348D01*
X130590258Y-118462820D01*
X130573238Y-118472173D01*
X130556857Y-118482383D01*
X130541124Y-118493426D01*
X130526051Y-118505277D01*
X130511650Y-118517912D01*
X130497931Y-118531306D01*
X130484905Y-118545436D01*
X130472583Y-118560276D01*
X130460977Y-118575803D01*
X130450096Y-118591993D01*
X130439953Y-118608820D01*
X130430558Y-118626261D01*
X130421922Y-118644292D01*
X130414057Y-118662887D01*
X130406973Y-118682023D01*
X130400681Y-118701675D01*
X130395192Y-118721819D01*
X130390517Y-118742431D01*
X130386668Y-118763486D01*
X130383655Y-118784960D01*
X130381489Y-118806828D01*
X130380181Y-118829067D01*
X130379743Y-118851652D01*
X130057433Y-118851652D01*
X130058300Y-118811644D01*
X130060878Y-118772349D01*
X130065135Y-118733804D01*
X130071037Y-118696045D01*
X130078551Y-118659110D01*
X130087645Y-118623034D01*
X130098286Y-118587854D01*
X130110440Y-118553607D01*
X130124074Y-118520329D01*
X130139156Y-118488057D01*
X130155652Y-118456826D01*
X130173530Y-118426674D01*
X130192756Y-118397637D01*
X130213297Y-118369752D01*
X130235121Y-118343054D01*
X130258194Y-118317582D01*
X130282484Y-118293370D01*
X130307956Y-118270456D01*
X130334579Y-118248876D01*
X130362320Y-118228666D01*
X130391144Y-118209863D01*
X130421020Y-118192504D01*
X130451915Y-118176625D01*
X130483794Y-118162263D01*
X130516626Y-118149453D01*
X130550377Y-118138233D01*
X130585014Y-118128639D01*
X130620505Y-118120708D01*
X130656816Y-118114475D01*
X130693914Y-118109978D01*
X130731766Y-118107253D01*
X130770339Y-118106337D01*
X130808914Y-118107253D01*
G37*
G36*
X132283141Y-118111655D02*
G01*
X132314564Y-118113237D01*
X132346248Y-118115942D01*
X132378054Y-118119823D01*
X132409844Y-118124937D01*
X132441477Y-118131336D01*
X132472816Y-118139077D01*
X132503720Y-118148215D01*
X132534050Y-118158803D01*
X132563668Y-118170897D01*
X132592433Y-118184551D01*
X132620207Y-118199821D01*
X132646851Y-118216762D01*
X132672225Y-118235427D01*
X132696190Y-118255872D01*
X132718606Y-118278152D01*
X132727622Y-118287568D01*
X132736204Y-118297465D01*
X132744186Y-118307851D01*
X132747901Y-118313231D01*
X132751405Y-118318735D01*
X132754677Y-118324367D01*
X132757696Y-118330126D01*
X132760442Y-118336013D01*
X132762895Y-118342030D01*
X132765033Y-118348178D01*
X132766837Y-118354458D01*
X132768285Y-118360871D01*
X132769357Y-118367417D01*
X132770032Y-118374099D01*
X132770291Y-118380917D01*
X132770112Y-118387871D01*
X132769475Y-118394964D01*
X132768359Y-118402196D01*
X132766744Y-118409568D01*
X132764609Y-118417082D01*
X132761933Y-118424738D01*
X132758697Y-118432537D01*
X132754879Y-118440480D01*
X132750459Y-118448570D01*
X132745416Y-118456805D01*
X132739730Y-118465189D01*
X132733380Y-118473721D01*
X132726346Y-118482402D01*
X132718606Y-118491235D01*
X132710574Y-118499269D01*
X132702673Y-118506645D01*
X132694900Y-118513382D01*
X132687250Y-118519495D01*
X132679721Y-118525004D01*
X132672309Y-118529924D01*
X132665009Y-118534275D01*
X132657818Y-118538072D01*
X132650733Y-118541333D01*
X132643750Y-118544076D01*
X132636865Y-118546318D01*
X132630074Y-118548077D01*
X132623374Y-118549369D01*
X132616761Y-118550213D01*
X132610231Y-118550626D01*
X132603781Y-118550625D01*
X132597407Y-118550227D01*
X132591105Y-118549450D01*
X132584871Y-118548312D01*
X132578703Y-118546829D01*
X132572596Y-118545019D01*
X132566546Y-118542900D01*
X132554604Y-118537803D01*
X132542848Y-118531676D01*
X132531248Y-118524660D01*
X132519774Y-118516893D01*
X132508398Y-118508514D01*
X132485976Y-118492238D01*
X132473316Y-118483446D01*
X132459674Y-118474410D01*
X132445035Y-118465273D01*
X132429388Y-118456177D01*
X132412721Y-118447268D01*
X132395020Y-118438687D01*
X132376272Y-118430579D01*
X132356466Y-118423087D01*
X132335589Y-118416354D01*
X132324744Y-118413317D01*
X132313627Y-118410523D01*
X132302236Y-118407992D01*
X132290568Y-118405739D01*
X132278624Y-118403784D01*
X132266401Y-118402144D01*
X132253897Y-118400838D01*
X132241111Y-118399882D01*
X132228041Y-118399296D01*
X132214687Y-118399096D01*
X132196451Y-118399474D01*
X132178536Y-118400637D01*
X132161060Y-118402626D01*
X132144140Y-118405484D01*
X132127895Y-118409254D01*
X132112443Y-118413976D01*
X132097902Y-118419694D01*
X132084391Y-118426450D01*
X132078058Y-118430230D01*
X132072026Y-118434285D01*
X132066311Y-118438621D01*
X132060927Y-118443243D01*
X132055889Y-118448155D01*
X132051212Y-118453364D01*
X132046910Y-118458875D01*
X132042998Y-118464692D01*
X132039491Y-118470822D01*
X132036404Y-118477269D01*
X132033751Y-118484039D01*
X132031547Y-118491137D01*
X132029808Y-118498568D01*
X132028547Y-118506337D01*
X132027780Y-118514451D01*
X132027520Y-118522913D01*
X132027807Y-118531646D01*
X132028666Y-118540038D01*
X132030095Y-118548100D01*
X132032093Y-118555846D01*
X132034658Y-118563289D01*
X132037789Y-118570440D01*
X132041484Y-118577314D01*
X132045742Y-118583921D01*
X132050561Y-118590276D01*
X132055939Y-118596390D01*
X132061875Y-118602276D01*
X132068367Y-118607947D01*
X132075414Y-118613416D01*
X132083015Y-118618695D01*
X132091166Y-118623796D01*
X132099868Y-118628734D01*
X132109118Y-118633519D01*
X132118914Y-118638165D01*
X132129256Y-118642685D01*
X132140142Y-118647091D01*
X132151569Y-118651395D01*
X132163537Y-118655611D01*
X132189088Y-118663828D01*
X132216782Y-118671842D01*
X132246607Y-118679755D01*
X132278549Y-118687667D01*
X132312596Y-118695681D01*
X132408777Y-118720061D01*
X132455598Y-118733270D01*
X132501112Y-118747647D01*
X132544972Y-118763560D01*
X132586833Y-118781375D01*
X132626349Y-118801459D01*
X132663174Y-118824180D01*
X132680469Y-118836643D01*
X132696962Y-118849904D01*
X132712609Y-118864007D01*
X132727367Y-118878998D01*
X132741193Y-118894923D01*
X132754044Y-118911829D01*
X132765876Y-118929761D01*
X132776646Y-118948765D01*
X132786311Y-118968886D01*
X132794827Y-118990171D01*
X132802152Y-119012666D01*
X132808242Y-119036416D01*
X132813054Y-119061467D01*
X132816545Y-119087866D01*
X132818671Y-119115657D01*
X132819389Y-119144887D01*
X132818718Y-119173545D01*
X132816721Y-119201213D01*
X132813422Y-119227896D01*
X132808844Y-119253599D01*
X132803011Y-119278328D01*
X132795947Y-119302088D01*
X132787676Y-119324884D01*
X132778221Y-119346721D01*
X132767606Y-119367605D01*
X132755855Y-119387542D01*
X132742991Y-119406535D01*
X132729038Y-119424591D01*
X132714021Y-119441715D01*
X132697962Y-119457912D01*
X132680885Y-119473188D01*
X132662815Y-119487547D01*
X132643774Y-119500994D01*
X132623787Y-119513537D01*
X132602878Y-119525178D01*
X132581069Y-119535924D01*
X132558385Y-119545781D01*
X132534850Y-119554752D01*
X132510487Y-119562844D01*
X132485319Y-119570062D01*
X132459372Y-119576411D01*
X132432668Y-119581897D01*
X132405230Y-119586524D01*
X132377084Y-119590298D01*
X132318759Y-119595307D01*
X132257882Y-119596968D01*
X132207477Y-119595874D01*
X132158872Y-119592671D01*
X132112115Y-119587477D01*
X132067251Y-119580410D01*
X132024328Y-119571589D01*
X131983391Y-119561130D01*
X131944487Y-119549154D01*
X131907663Y-119535777D01*
X131872965Y-119521118D01*
X131840439Y-119505294D01*
X131810132Y-119488425D01*
X131782090Y-119470627D01*
X131756359Y-119452020D01*
X131732987Y-119432722D01*
X131712019Y-119412849D01*
X131693502Y-119392522D01*
X131686989Y-119384457D01*
X131680944Y-119376459D01*
X131675364Y-119368527D01*
X131670245Y-119360662D01*
X131665585Y-119352862D01*
X131661378Y-119345126D01*
X131657622Y-119337455D01*
X131654312Y-119329848D01*
X131651445Y-119322304D01*
X131649017Y-119314823D01*
X131647025Y-119307404D01*
X131645465Y-119300047D01*
X131644333Y-119292751D01*
X131643625Y-119285515D01*
X131643338Y-119278340D01*
X131643468Y-119271224D01*
X131644012Y-119264167D01*
X131644965Y-119257169D01*
X131646324Y-119250228D01*
X131648086Y-119243345D01*
X131650246Y-119236519D01*
X131652801Y-119229750D01*
X131655747Y-119223036D01*
X131659081Y-119216378D01*
X131662798Y-119209774D01*
X131666896Y-119203225D01*
X131671370Y-119196730D01*
X131676217Y-119190288D01*
X131687013Y-119177561D01*
X131699257Y-119165041D01*
X131707321Y-119157555D01*
X131715315Y-119150741D01*
X131723237Y-119144578D01*
X131731083Y-119139047D01*
X131738851Y-119134128D01*
X131746538Y-119129800D01*
X131754142Y-119126044D01*
X131761661Y-119122839D01*
X131769090Y-119120166D01*
X131776428Y-119118004D01*
X131783673Y-119116334D01*
X131790821Y-119115135D01*
X131797870Y-119114387D01*
X131804817Y-119114070D01*
X131811660Y-119114165D01*
X131818396Y-119114651D01*
X131825022Y-119115508D01*
X131831536Y-119116716D01*
X131837935Y-119118255D01*
X131844217Y-119120105D01*
X131856416Y-119124659D01*
X131868114Y-119130216D01*
X131879289Y-119136617D01*
X131889920Y-119143701D01*
X131899986Y-119151308D01*
X131909466Y-119159278D01*
X131924262Y-119172792D01*
X131939569Y-119186258D01*
X131955492Y-119199565D01*
X131972137Y-119212597D01*
X131989608Y-119225241D01*
X132008012Y-119237383D01*
X132027453Y-119248909D01*
X132048038Y-119259705D01*
X132069871Y-119269658D01*
X132081289Y-119274282D01*
X132093058Y-119278653D01*
X132105192Y-119282756D01*
X132117705Y-119286577D01*
X132130608Y-119290101D01*
X132143916Y-119293315D01*
X132157641Y-119296204D01*
X132171798Y-119298754D01*
X132186398Y-119300951D01*
X132201455Y-119302780D01*
X132216982Y-119304228D01*
X132232993Y-119305280D01*
X132249501Y-119305921D01*
X132266518Y-119306138D01*
X132291818Y-119305598D01*
X132315852Y-119303978D01*
X132338571Y-119301278D01*
X132359923Y-119297499D01*
X132379858Y-119292639D01*
X132398325Y-119286700D01*
X132415273Y-119279681D01*
X132430653Y-119271582D01*
X132437739Y-119267128D01*
X132444413Y-119262403D01*
X132450669Y-119257409D01*
X132456502Y-119252145D01*
X132461905Y-119246611D01*
X132466871Y-119240807D01*
X132471394Y-119234733D01*
X132475468Y-119228389D01*
X132479086Y-119221776D01*
X132482242Y-119214892D01*
X132484930Y-119207739D01*
X132487144Y-119200315D01*
X132488876Y-119192622D01*
X132490122Y-119184659D01*
X132490874Y-119176426D01*
X132491126Y-119167923D01*
X132490854Y-119159458D01*
X132490032Y-119151331D01*
X132488649Y-119143523D01*
X132486694Y-119136017D01*
X132484157Y-119128796D01*
X132481028Y-119121842D01*
X132477295Y-119115138D01*
X132472949Y-119108667D01*
X132467978Y-119102411D01*
X132462372Y-119096352D01*
X132456122Y-119090474D01*
X132449215Y-119084759D01*
X132441642Y-119079190D01*
X132433391Y-119073748D01*
X132424454Y-119068417D01*
X132414818Y-119063180D01*
X132404473Y-119058019D01*
X132393410Y-119052916D01*
X132381616Y-119047854D01*
X132369082Y-119042816D01*
X132355798Y-119037784D01*
X132341752Y-119032741D01*
X132311334Y-119022552D01*
X132277745Y-119012111D01*
X132240898Y-119001276D01*
X132200712Y-118989911D01*
X132157100Y-118977874D01*
X132069056Y-118952734D01*
X132026631Y-118939443D01*
X131985635Y-118925232D01*
X131946344Y-118909773D01*
X131909030Y-118892737D01*
X131873970Y-118873793D01*
X131841436Y-118852615D01*
X131826202Y-118841084D01*
X131811702Y-118828872D01*
X131797971Y-118815936D01*
X131785044Y-118802235D01*
X131772953Y-118787729D01*
X131761734Y-118772376D01*
X131751421Y-118756135D01*
X131742048Y-118738965D01*
X131733650Y-118720825D01*
X131726260Y-118701674D01*
X131719912Y-118681471D01*
X131714642Y-118660173D01*
X131710484Y-118637742D01*
X131707471Y-118614134D01*
X131705638Y-118589310D01*
X131705020Y-118563227D01*
X131705772Y-118533809D01*
X131708000Y-118505477D01*
X131711663Y-118478222D01*
X131716718Y-118452034D01*
X131723122Y-118426902D01*
X131730834Y-118402817D01*
X131739811Y-118379768D01*
X131750011Y-118357746D01*
X131761393Y-118336740D01*
X131773913Y-118316741D01*
X131787530Y-118297739D01*
X131802202Y-118279723D01*
X131817885Y-118262683D01*
X131834539Y-118246610D01*
X131852121Y-118231493D01*
X131870589Y-118217323D01*
X131889900Y-118204089D01*
X131910013Y-118191782D01*
X131930885Y-118180391D01*
X131952474Y-118169906D01*
X131974738Y-118160318D01*
X131997634Y-118151616D01*
X132021122Y-118143790D01*
X132045157Y-118136831D01*
X132069699Y-118130727D01*
X132094704Y-118125470D01*
X132145939Y-118117455D01*
X132198523Y-118112705D01*
X132252120Y-118111139D01*
X132283141Y-118111655D01*
G37*
G36*
X134114912Y-118134392D02*
G01*
X134124295Y-118135039D01*
X134133449Y-118136108D01*
X134142367Y-118137588D01*
X134151045Y-118139471D01*
X134159477Y-118141747D01*
X134167658Y-118144409D01*
X134175583Y-118147447D01*
X134183246Y-118150851D01*
X134190643Y-118154614D01*
X134197768Y-118158725D01*
X134204615Y-118163177D01*
X134211179Y-118167960D01*
X134217456Y-118173065D01*
X134223440Y-118178483D01*
X134229125Y-118184205D01*
X134234506Y-118190223D01*
X134239579Y-118196527D01*
X134244337Y-118203108D01*
X134248776Y-118209957D01*
X134252889Y-118217066D01*
X134256673Y-118224426D01*
X134260122Y-118232027D01*
X134263230Y-118239860D01*
X134265992Y-118247917D01*
X134268403Y-118256189D01*
X134270457Y-118264666D01*
X134272150Y-118273340D01*
X134273475Y-118282201D01*
X134274429Y-118291242D01*
X134275005Y-118300452D01*
X134275198Y-118309823D01*
X134275198Y-118946196D01*
X134274357Y-118989358D01*
X134271862Y-119030853D01*
X134267755Y-119070699D01*
X134262078Y-119108916D01*
X134254871Y-119145525D01*
X134246177Y-119180543D01*
X134236037Y-119213992D01*
X134224494Y-119245889D01*
X134211587Y-119276256D01*
X134197361Y-119305111D01*
X134181855Y-119332474D01*
X134165111Y-119358364D01*
X134147172Y-119382801D01*
X134128079Y-119405804D01*
X134107873Y-119427393D01*
X134086596Y-119447588D01*
X134064290Y-119466408D01*
X134040996Y-119483872D01*
X134016757Y-119500000D01*
X133991613Y-119514811D01*
X133965607Y-119528326D01*
X133938780Y-119540562D01*
X133911173Y-119551541D01*
X133882829Y-119561282D01*
X133853788Y-119569803D01*
X133824093Y-119577125D01*
X133762907Y-119588248D01*
X133699603Y-119594808D01*
X133634515Y-119596960D01*
X133568920Y-119594808D01*
X133505174Y-119588248D01*
X133443604Y-119577125D01*
X133413738Y-119569803D01*
X133384539Y-119561282D01*
X133356050Y-119551541D01*
X133328310Y-119540562D01*
X133301361Y-119528326D01*
X133275244Y-119514811D01*
X133250000Y-119500000D01*
X133225671Y-119483872D01*
X133202297Y-119466408D01*
X133179919Y-119447588D01*
X133158579Y-119427393D01*
X133138318Y-119405804D01*
X133119177Y-119382801D01*
X133101196Y-119358364D01*
X133084418Y-119332474D01*
X133068883Y-119305111D01*
X133054632Y-119276256D01*
X133041707Y-119245889D01*
X133030149Y-119213992D01*
X133019998Y-119180543D01*
X133011296Y-119145525D01*
X133004084Y-119108916D01*
X132998403Y-119070699D01*
X132994294Y-119030853D01*
X132991799Y-118989358D01*
X132990958Y-118946196D01*
X132990958Y-118309823D01*
X132991151Y-118300452D01*
X132991727Y-118291242D01*
X132992681Y-118282201D01*
X132994006Y-118273340D01*
X132995699Y-118264666D01*
X132997753Y-118256189D01*
X133000164Y-118247917D01*
X133002926Y-118239860D01*
X133006034Y-118232027D01*
X133009483Y-118224426D01*
X133013267Y-118217066D01*
X133017380Y-118209957D01*
X133021819Y-118203108D01*
X133026577Y-118196527D01*
X133031650Y-118190223D01*
X133037031Y-118184205D01*
X133042716Y-118178483D01*
X133048700Y-118173065D01*
X133054977Y-118167960D01*
X133061541Y-118163177D01*
X133068389Y-118158725D01*
X133075513Y-118154614D01*
X133082910Y-118150851D01*
X133090573Y-118147447D01*
X133098498Y-118144409D01*
X133106679Y-118141747D01*
X133115112Y-118139471D01*
X133123789Y-118137588D01*
X133132708Y-118136108D01*
X133141861Y-118135039D01*
X133151244Y-118134392D01*
X133160852Y-118134174D01*
X133170207Y-118134392D01*
X133179369Y-118135039D01*
X133188331Y-118136108D01*
X133197088Y-118137588D01*
X133205631Y-118139471D01*
X133213955Y-118141747D01*
X133222052Y-118144409D01*
X133229915Y-118147447D01*
X133237538Y-118150851D01*
X133244913Y-118154614D01*
X133252034Y-118158725D01*
X133258895Y-118163177D01*
X133265487Y-118167960D01*
X133271805Y-118173065D01*
X133277841Y-118178483D01*
X133283589Y-118184205D01*
X133289042Y-118190223D01*
X133294192Y-118196527D01*
X133299033Y-118203108D01*
X133303559Y-118209957D01*
X133307762Y-118217066D01*
X133311636Y-118224426D01*
X133315173Y-118232027D01*
X133318366Y-118239860D01*
X133321210Y-118247917D01*
X133323697Y-118256189D01*
X133325820Y-118264666D01*
X133327572Y-118273340D01*
X133328947Y-118282201D01*
X133329938Y-118291242D01*
X133330537Y-118300452D01*
X133330739Y-118309823D01*
X133330739Y-118923162D01*
X133331999Y-118969404D01*
X133335761Y-119012081D01*
X133338570Y-119032109D01*
X133341994Y-119051275D01*
X133346028Y-119069590D01*
X133350669Y-119087065D01*
X133355913Y-119103708D01*
X133361757Y-119119531D01*
X133368196Y-119134543D01*
X133375228Y-119148754D01*
X133382848Y-119162174D01*
X133391052Y-119174813D01*
X133399838Y-119186681D01*
X133409201Y-119197789D01*
X133419137Y-119208146D01*
X133429644Y-119217762D01*
X133440717Y-119226647D01*
X133452352Y-119234811D01*
X133464546Y-119242265D01*
X133477296Y-119249018D01*
X133490597Y-119255081D01*
X133504446Y-119260462D01*
X133518838Y-119265173D01*
X133533772Y-119269224D01*
X133549242Y-119272624D01*
X133565245Y-119275383D01*
X133598836Y-119279019D01*
X133634515Y-119280214D01*
X133652352Y-119279917D01*
X133669688Y-119279019D01*
X133686517Y-119277511D01*
X133702836Y-119275383D01*
X133718640Y-119272624D01*
X133733925Y-119269224D01*
X133748688Y-119265173D01*
X133762923Y-119260462D01*
X133776626Y-119255081D01*
X133789794Y-119249018D01*
X133802422Y-119242265D01*
X133814505Y-119234811D01*
X133826041Y-119226647D01*
X133837023Y-119217762D01*
X133847449Y-119208146D01*
X133857314Y-119197789D01*
X133866614Y-119186681D01*
X133875344Y-119174813D01*
X133883501Y-119162174D01*
X133891080Y-119148754D01*
X133898076Y-119134543D01*
X133904487Y-119119531D01*
X133910307Y-119103708D01*
X133915532Y-119087065D01*
X133920158Y-119069590D01*
X133924181Y-119051275D01*
X133927597Y-119032109D01*
X133930401Y-119012081D01*
X133932589Y-118991183D01*
X133934158Y-118969404D01*
X133935102Y-118946733D01*
X133935417Y-118923162D01*
X133935417Y-118309823D01*
X133935619Y-118300452D01*
X133936218Y-118291242D01*
X133937209Y-118282201D01*
X133938584Y-118273340D01*
X133940336Y-118264666D01*
X133942459Y-118256189D01*
X133944946Y-118247917D01*
X133947790Y-118239860D01*
X133950983Y-118232027D01*
X133954521Y-118224426D01*
X133958394Y-118217066D01*
X133962597Y-118209957D01*
X133967123Y-118203108D01*
X133971964Y-118196527D01*
X133977115Y-118190223D01*
X133982567Y-118184205D01*
X133988315Y-118178483D01*
X133994351Y-118173065D01*
X134000669Y-118167960D01*
X134007262Y-118163177D01*
X134014122Y-118158725D01*
X134021243Y-118154614D01*
X134028619Y-118150851D01*
X134036242Y-118147447D01*
X134044105Y-118144409D01*
X134052202Y-118141747D01*
X134060525Y-118139471D01*
X134069069Y-118137588D01*
X134077825Y-118136108D01*
X134086788Y-118135039D01*
X134095950Y-118134392D01*
X134105304Y-118134174D01*
X134114912Y-118134392D01*
G37*
G36*
X134735188Y-117670794D02*
G01*
X134744350Y-117671443D01*
X134753313Y-117672512D01*
X134762069Y-117673996D01*
X134770613Y-117675884D01*
X134778937Y-117678169D01*
X134787034Y-117680842D01*
X134794897Y-117683894D01*
X134802520Y-117687318D01*
X134809896Y-117691104D01*
X134817018Y-117695245D01*
X134823878Y-117699731D01*
X134830471Y-117704555D01*
X134836789Y-117709708D01*
X134842826Y-117715182D01*
X134848574Y-117720968D01*
X134854027Y-117727057D01*
X134859178Y-117733442D01*
X134864020Y-117740113D01*
X134868546Y-117747063D01*
X134872749Y-117754283D01*
X134876623Y-117761765D01*
X134880160Y-117769499D01*
X134883354Y-117777478D01*
X134886198Y-117785694D01*
X134888685Y-117794137D01*
X134890809Y-117802799D01*
X134892561Y-117811673D01*
X134893936Y-117820748D01*
X134894927Y-117830018D01*
X134895526Y-117839474D01*
X134895728Y-117849107D01*
X134895728Y-118807981D01*
X134895526Y-118817613D01*
X134894927Y-118827069D01*
X134893936Y-118836339D01*
X134892561Y-118845415D01*
X134890809Y-118854288D01*
X134888685Y-118862950D01*
X134886198Y-118871394D01*
X134883354Y-118879609D01*
X134880160Y-118887588D01*
X134876623Y-118895323D01*
X134872749Y-118902804D01*
X134868546Y-118910024D01*
X134864020Y-118916974D01*
X134859178Y-118923645D01*
X134854027Y-118930030D01*
X134848574Y-118936119D01*
X134842826Y-118941905D01*
X134836789Y-118947379D01*
X134830471Y-118952532D01*
X134823878Y-118957356D01*
X134817018Y-118961842D01*
X134809896Y-118965983D01*
X134802520Y-118969769D01*
X134794897Y-118973193D01*
X134787034Y-118976245D01*
X134778937Y-118978918D01*
X134770613Y-118981203D01*
X134762069Y-118983091D01*
X134753313Y-118984574D01*
X134744350Y-118985644D01*
X134735188Y-118986292D01*
X134725834Y-118986510D01*
X134716227Y-118986292D01*
X134706844Y-118985644D01*
X134697691Y-118984574D01*
X134688773Y-118983091D01*
X134680096Y-118981203D01*
X134671664Y-118978918D01*
X134663484Y-118976245D01*
X134655559Y-118973193D01*
X134647896Y-118969769D01*
X134640500Y-118965983D01*
X134633376Y-118961842D01*
X134626529Y-118957356D01*
X134619964Y-118952532D01*
X134613688Y-118947379D01*
X134607704Y-118941905D01*
X134602020Y-118936119D01*
X134596638Y-118930030D01*
X134591566Y-118923645D01*
X134586808Y-118916974D01*
X134582369Y-118910024D01*
X134578255Y-118902804D01*
X134574472Y-118895323D01*
X134571023Y-118887588D01*
X134567915Y-118879609D01*
X134565153Y-118871394D01*
X134562743Y-118862950D01*
X134560688Y-118854288D01*
X134558995Y-118845415D01*
X134557670Y-118836339D01*
X134556716Y-118827069D01*
X134556140Y-118817613D01*
X134555947Y-118807981D01*
X134555947Y-117849107D01*
X134556140Y-117839474D01*
X134556716Y-117830018D01*
X134557670Y-117820748D01*
X134558995Y-117811673D01*
X134560688Y-117802799D01*
X134562743Y-117794137D01*
X134565153Y-117785694D01*
X134567915Y-117777478D01*
X134571023Y-117769499D01*
X134574472Y-117761765D01*
X134578255Y-117754283D01*
X134582369Y-117747063D01*
X134586808Y-117740113D01*
X134591566Y-117733442D01*
X134596638Y-117727057D01*
X134602020Y-117720968D01*
X134607704Y-117715182D01*
X134613688Y-117709708D01*
X134619964Y-117704555D01*
X134626529Y-117699731D01*
X134633376Y-117695245D01*
X134640500Y-117691104D01*
X134647896Y-117687318D01*
X134655559Y-117683894D01*
X134663484Y-117680842D01*
X134671664Y-117678169D01*
X134680096Y-117675884D01*
X134688773Y-117673996D01*
X134697691Y-117672512D01*
X134706844Y-117671443D01*
X134716227Y-117670794D01*
X134725834Y-117670576D01*
X134735188Y-117670794D01*
G37*
G36*
X134737364Y-119156682D02*
G01*
X134748730Y-119157526D01*
X134759917Y-119158917D01*
X134770912Y-119160840D01*
X134781703Y-119163282D01*
X134792277Y-119166230D01*
X134802619Y-119169668D01*
X134812717Y-119173585D01*
X134822558Y-119177965D01*
X134832128Y-119182796D01*
X134841415Y-119188063D01*
X134850404Y-119193754D01*
X134859084Y-119199853D01*
X134867440Y-119206348D01*
X134875460Y-119213224D01*
X134883131Y-119220468D01*
X134890439Y-119228067D01*
X134897370Y-119236007D01*
X134903913Y-119244273D01*
X134910053Y-119252852D01*
X134915778Y-119261731D01*
X134921074Y-119270896D01*
X134925928Y-119280332D01*
X134930328Y-119290027D01*
X134934259Y-119299967D01*
X134937708Y-119310137D01*
X134940664Y-119320525D01*
X134943111Y-119331116D01*
X134945037Y-119341897D01*
X134946430Y-119352854D01*
X134947275Y-119363973D01*
X134947559Y-119375241D01*
X134947275Y-119386771D01*
X134946430Y-119398136D01*
X134945037Y-119409322D01*
X134943111Y-119420317D01*
X134940664Y-119431108D01*
X134937708Y-119441681D01*
X134934259Y-119452023D01*
X134930328Y-119462120D01*
X134925928Y-119471961D01*
X134921074Y-119481531D01*
X134915778Y-119490817D01*
X134910053Y-119499806D01*
X134903913Y-119508486D01*
X134897370Y-119516842D01*
X134890439Y-119524862D01*
X134883131Y-119532532D01*
X134875460Y-119539840D01*
X134867440Y-119546771D01*
X134859084Y-119553314D01*
X134850404Y-119559454D01*
X134841415Y-119565179D01*
X134832128Y-119570475D01*
X134822558Y-119575329D01*
X134812717Y-119579728D01*
X134802619Y-119583659D01*
X134792277Y-119587109D01*
X134781703Y-119590064D01*
X134770912Y-119592511D01*
X134759917Y-119594438D01*
X134748730Y-119595830D01*
X134737364Y-119596675D01*
X134725834Y-119596960D01*
X134714304Y-119596675D01*
X134702939Y-119595830D01*
X134691753Y-119594438D01*
X134680758Y-119592511D01*
X134669967Y-119590064D01*
X134659394Y-119587109D01*
X134649053Y-119583659D01*
X134638955Y-119579728D01*
X134629114Y-119575329D01*
X134619544Y-119570475D01*
X134610258Y-119565179D01*
X134601269Y-119559454D01*
X134592589Y-119553314D01*
X134584233Y-119546771D01*
X134576213Y-119539840D01*
X134568543Y-119532532D01*
X134561235Y-119524862D01*
X134554304Y-119516842D01*
X134547761Y-119508486D01*
X134541621Y-119499806D01*
X134535896Y-119490817D01*
X134530600Y-119481531D01*
X134525746Y-119471961D01*
X134521347Y-119462120D01*
X134517416Y-119452023D01*
X134513966Y-119441681D01*
X134511011Y-119431108D01*
X134508564Y-119420317D01*
X134506637Y-119409322D01*
X134505245Y-119398136D01*
X134504400Y-119386771D01*
X134504115Y-119375241D01*
X134504400Y-119363973D01*
X134505245Y-119352854D01*
X134506637Y-119341897D01*
X134508564Y-119331116D01*
X134511011Y-119320525D01*
X134513966Y-119310137D01*
X134517416Y-119299967D01*
X134521347Y-119290027D01*
X134525746Y-119280332D01*
X134530600Y-119270896D01*
X134535896Y-119261731D01*
X134541621Y-119252852D01*
X134547761Y-119244273D01*
X134554304Y-119236007D01*
X134561235Y-119228067D01*
X134568543Y-119220468D01*
X134576213Y-119213224D01*
X134584233Y-119206348D01*
X134592589Y-119199853D01*
X134601269Y-119193754D01*
X134610258Y-119188063D01*
X134619544Y-119182796D01*
X134629114Y-119177965D01*
X134638955Y-119173585D01*
X134649053Y-119169668D01*
X134659394Y-119166230D01*
X134669967Y-119163282D01*
X134680758Y-119160840D01*
X134691753Y-119158917D01*
X134702939Y-119157526D01*
X134714304Y-119156682D01*
X134725834Y-119156397D01*
X134737364Y-119156682D01*
G37*
D11*
X114015350Y-122619819D02*
X113824874Y-122619819D01*
X113824874Y-122619819D02*
X113729636Y-122667438D01*
X113729636Y-122667438D02*
X113682017Y-122715057D01*
X113682017Y-122715057D02*
X113586779Y-122857914D01*
X113586779Y-122857914D02*
X113539160Y-123048390D01*
X113539160Y-123048390D02*
X113539160Y-123429342D01*
X113539160Y-123429342D02*
X113586779Y-123524580D01*
X113586779Y-123524580D02*
X113634398Y-123572200D01*
X113634398Y-123572200D02*
X113729636Y-123619819D01*
X113729636Y-123619819D02*
X113920112Y-123619819D01*
X113920112Y-123619819D02*
X114015350Y-123572200D01*
X114015350Y-123572200D02*
X114062969Y-123524580D01*
X114062969Y-123524580D02*
X114110588Y-123429342D01*
X114110588Y-123429342D02*
X114110588Y-123191247D01*
X114110588Y-123191247D02*
X114062969Y-123096009D01*
X114062969Y-123096009D02*
X114015350Y-123048390D01*
X114015350Y-123048390D02*
X113920112Y-123000771D01*
X113920112Y-123000771D02*
X113729636Y-123000771D01*
X113729636Y-123000771D02*
X113634398Y-123048390D01*
X113634398Y-123048390D02*
X113586779Y-123096009D01*
X113586779Y-123096009D02*
X113539160Y-123191247D01*
X114443922Y-122619819D02*
X115110588Y-122619819D01*
X115110588Y-122619819D02*
X114682017Y-123619819D01*
X116253446Y-123619819D02*
X116253446Y-122619819D01*
X116253446Y-122619819D02*
X116586779Y-123334104D01*
X116586779Y-123334104D02*
X116920112Y-122619819D01*
X116920112Y-122619819D02*
X116920112Y-123619819D01*
X117824874Y-123619819D02*
X117824874Y-123096009D01*
X117824874Y-123096009D02*
X117777255Y-123000771D01*
X117777255Y-123000771D02*
X117682017Y-122953152D01*
X117682017Y-122953152D02*
X117491541Y-122953152D01*
X117491541Y-122953152D02*
X117396303Y-123000771D01*
X117824874Y-123572200D02*
X117729636Y-123619819D01*
X117729636Y-123619819D02*
X117491541Y-123619819D01*
X117491541Y-123619819D02*
X117396303Y-123572200D01*
X117396303Y-123572200D02*
X117348684Y-123476961D01*
X117348684Y-123476961D02*
X117348684Y-123381723D01*
X117348684Y-123381723D02*
X117396303Y-123286485D01*
X117396303Y-123286485D02*
X117491541Y-123238866D01*
X117491541Y-123238866D02*
X117729636Y-123238866D01*
X117729636Y-123238866D02*
X117824874Y-123191247D01*
X118301065Y-122953152D02*
X118301065Y-123619819D01*
X118301065Y-123048390D02*
X118348684Y-123000771D01*
X118348684Y-123000771D02*
X118443922Y-122953152D01*
X118443922Y-122953152D02*
X118586779Y-122953152D01*
X118586779Y-122953152D02*
X118682017Y-123000771D01*
X118682017Y-123000771D02*
X118729636Y-123096009D01*
X118729636Y-123096009D02*
X118729636Y-123619819D01*
X119634398Y-122953152D02*
X119634398Y-123762676D01*
X119634398Y-123762676D02*
X119586779Y-123857914D01*
X119586779Y-123857914D02*
X119539160Y-123905533D01*
X119539160Y-123905533D02*
X119443922Y-123953152D01*
X119443922Y-123953152D02*
X119301065Y-123953152D01*
X119301065Y-123953152D02*
X119205827Y-123905533D01*
X119634398Y-123572200D02*
X119539160Y-123619819D01*
X119539160Y-123619819D02*
X119348684Y-123619819D01*
X119348684Y-123619819D02*
X119253446Y-123572200D01*
X119253446Y-123572200D02*
X119205827Y-123524580D01*
X119205827Y-123524580D02*
X119158208Y-123429342D01*
X119158208Y-123429342D02*
X119158208Y-123143628D01*
X119158208Y-123143628D02*
X119205827Y-123048390D01*
X119205827Y-123048390D02*
X119253446Y-123000771D01*
X119253446Y-123000771D02*
X119348684Y-122953152D01*
X119348684Y-122953152D02*
X119539160Y-122953152D01*
X119539160Y-122953152D02*
X119634398Y-123000771D01*
X120253446Y-123619819D02*
X120158208Y-123572200D01*
X120158208Y-123572200D02*
X120110589Y-123524580D01*
X120110589Y-123524580D02*
X120062970Y-123429342D01*
X120062970Y-123429342D02*
X120062970Y-123143628D01*
X120062970Y-123143628D02*
X120110589Y-123048390D01*
X120110589Y-123048390D02*
X120158208Y-123000771D01*
X120158208Y-123000771D02*
X120253446Y-122953152D01*
X120253446Y-122953152D02*
X120396303Y-122953152D01*
X120396303Y-122953152D02*
X120491541Y-123000771D01*
X120491541Y-123000771D02*
X120539160Y-123048390D01*
X120539160Y-123048390D02*
X120586779Y-123143628D01*
X120586779Y-123143628D02*
X120586779Y-123429342D01*
X120586779Y-123429342D02*
X120539160Y-123524580D01*
X120539160Y-123524580D02*
X120491541Y-123572200D01*
X120491541Y-123572200D02*
X120396303Y-123619819D01*
X120396303Y-123619819D02*
X120253446Y-123619819D01*
X121015351Y-123619819D02*
X121015351Y-122953152D01*
X121015351Y-123048390D02*
X121062970Y-123000771D01*
X121062970Y-123000771D02*
X121158208Y-122953152D01*
X121158208Y-122953152D02*
X121301065Y-122953152D01*
X121301065Y-122953152D02*
X121396303Y-123000771D01*
X121396303Y-123000771D02*
X121443922Y-123096009D01*
X121443922Y-123096009D02*
X121443922Y-123619819D01*
X121443922Y-123096009D02*
X121491541Y-123000771D01*
X121491541Y-123000771D02*
X121586779Y-122953152D01*
X121586779Y-122953152D02*
X121729636Y-122953152D01*
X121729636Y-122953152D02*
X121824875Y-123000771D01*
X121824875Y-123000771D02*
X121872494Y-123096009D01*
X121872494Y-123096009D02*
X121872494Y-123619819D01*
X122348684Y-123619819D02*
X122348684Y-122953152D01*
X122348684Y-122619819D02*
X122301065Y-122667438D01*
X122301065Y-122667438D02*
X122348684Y-122715057D01*
X122348684Y-122715057D02*
X122396303Y-122667438D01*
X122396303Y-122667438D02*
X122348684Y-122619819D01*
X122348684Y-122619819D02*
X122348684Y-122715057D01*
X122729636Y-122953152D02*
X123253445Y-122953152D01*
X123253445Y-122953152D02*
X122729636Y-123619819D01*
X122729636Y-123619819D02*
X123253445Y-123619819D01*
X124015350Y-123572200D02*
X123920112Y-123619819D01*
X123920112Y-123619819D02*
X123729636Y-123619819D01*
X123729636Y-123619819D02*
X123634398Y-123572200D01*
X123634398Y-123572200D02*
X123586779Y-123476961D01*
X123586779Y-123476961D02*
X123586779Y-123096009D01*
X123586779Y-123096009D02*
X123634398Y-123000771D01*
X123634398Y-123000771D02*
X123729636Y-122953152D01*
X123729636Y-122953152D02*
X123920112Y-122953152D01*
X123920112Y-122953152D02*
X124015350Y-123000771D01*
X124015350Y-123000771D02*
X124062969Y-123096009D01*
X124062969Y-123096009D02*
X124062969Y-123191247D01*
X124062969Y-123191247D02*
X123586779Y-123286485D01*
X124491541Y-123619819D02*
X124491541Y-122953152D01*
X124491541Y-123143628D02*
X124539160Y-123048390D01*
X124539160Y-123048390D02*
X124586779Y-123000771D01*
X124586779Y-123000771D02*
X124682017Y-122953152D01*
X124682017Y-122953152D02*
X124777255Y-122953152D01*
D10*
G36*
X148989237Y-115756860D02*
G01*
X149046097Y-115758014D01*
X149103581Y-115760301D01*
X149160703Y-115763714D01*
X149216477Y-115768242D01*
X149269918Y-115773874D01*
X149320040Y-115780603D01*
X149365858Y-115788418D01*
X149406386Y-115797308D01*
X149451078Y-115809951D01*
X149501106Y-115826590D01*
X149555710Y-115846843D01*
X149614129Y-115870329D01*
X149739375Y-115925473D01*
X149870763Y-115988966D01*
X150002213Y-116057755D01*
X150127644Y-116128786D01*
X150186203Y-116164188D01*
X150240977Y-116199004D01*
X150291207Y-116232855D01*
X150336132Y-116265356D01*
X150521340Y-116405056D01*
X150666861Y-116357961D01*
X150725431Y-116339783D01*
X150784432Y-116323123D01*
X150844274Y-116307933D01*
X150905362Y-116294167D01*
X150968104Y-116281779D01*
X151032908Y-116270724D01*
X151100181Y-116260954D01*
X151170330Y-116252425D01*
X151243762Y-116245089D01*
X151320885Y-116238901D01*
X151402107Y-116233814D01*
X151487834Y-116229782D01*
X151674434Y-116224701D01*
X151883944Y-116223288D01*
X152049324Y-116224032D01*
X152186718Y-116225921D01*
X152301528Y-116229329D01*
X152399154Y-116234632D01*
X152484998Y-116242204D01*
X152564461Y-116252421D01*
X152642944Y-116265658D01*
X152725848Y-116282290D01*
X152999163Y-116340498D01*
X153140186Y-116211646D01*
X153192647Y-116166326D01*
X153248936Y-116122658D01*
X153308620Y-116080816D01*
X153371266Y-116040977D01*
X153436443Y-116003317D01*
X153503717Y-115968010D01*
X153572656Y-115935232D01*
X153642828Y-115905159D01*
X153713799Y-115877967D01*
X153785138Y-115853831D01*
X153856412Y-115832926D01*
X153927189Y-115815428D01*
X153997035Y-115801513D01*
X154065518Y-115791357D01*
X154132206Y-115785134D01*
X154196667Y-115783021D01*
X154236704Y-115784006D01*
X154255481Y-115785304D01*
X154273482Y-115787196D01*
X154290746Y-115789727D01*
X154307312Y-115792940D01*
X154323220Y-115796879D01*
X154338508Y-115801587D01*
X154353216Y-115807110D01*
X154367382Y-115813489D01*
X154381045Y-115820770D01*
X154394245Y-115828995D01*
X154407021Y-115838209D01*
X154419411Y-115848455D01*
X154431455Y-115859777D01*
X154443192Y-115872219D01*
X154454661Y-115885824D01*
X154465900Y-115900636D01*
X154476950Y-115916700D01*
X154487848Y-115934058D01*
X154498634Y-115952755D01*
X154509347Y-115972834D01*
X154520027Y-115994339D01*
X154530711Y-116017314D01*
X154552252Y-116067847D01*
X154574282Y-116124785D01*
X154597113Y-116188476D01*
X154621059Y-116259271D01*
X154651211Y-116352688D01*
X154675000Y-116432230D01*
X154684792Y-116468430D01*
X154693333Y-116503121D01*
X154700736Y-116536955D01*
X154707114Y-116570586D01*
X154712581Y-116604667D01*
X154717249Y-116639850D01*
X154721232Y-116676788D01*
X154724643Y-116716136D01*
X154730201Y-116804670D01*
X154734830Y-116910675D01*
X154748058Y-117257808D01*
X154990152Y-117505988D01*
X155056713Y-117575453D01*
X155113762Y-117637800D01*
X155139204Y-117666954D01*
X155162849Y-117695111D01*
X155184891Y-117722529D01*
X155205523Y-117749470D01*
X155224940Y-117776194D01*
X155243336Y-117802962D01*
X155260904Y-117830033D01*
X155277837Y-117857668D01*
X155294330Y-117886129D01*
X155310577Y-117915674D01*
X155326771Y-117946565D01*
X155343106Y-117979062D01*
X155373943Y-118043348D01*
X155401940Y-118105649D01*
X155427218Y-118166586D01*
X155449895Y-118226779D01*
X155470089Y-118286847D01*
X155487921Y-118347412D01*
X155503508Y-118409093D01*
X155516971Y-118472510D01*
X155528427Y-118538284D01*
X155537996Y-118607034D01*
X155545797Y-118679381D01*
X155551949Y-118755945D01*
X155556571Y-118837346D01*
X155559782Y-118924204D01*
X155561701Y-119017139D01*
X155562446Y-119116771D01*
X155561023Y-119281704D01*
X155555735Y-119435706D01*
X155546248Y-119579693D01*
X155532225Y-119714584D01*
X155513332Y-119841298D01*
X155489232Y-119960752D01*
X155459589Y-120073864D01*
X155424069Y-120181553D01*
X155382335Y-120284737D01*
X155334052Y-120384334D01*
X155278884Y-120481262D01*
X155216495Y-120576440D01*
X155146551Y-120670785D01*
X155068714Y-120765215D01*
X154982650Y-120860650D01*
X154888023Y-120958006D01*
X154804349Y-121041674D01*
X154740473Y-121107149D01*
X154715223Y-121134090D01*
X154694040Y-121157715D01*
X154676629Y-121178435D01*
X154662697Y-121196660D01*
X154651950Y-121212802D01*
X154644092Y-121227271D01*
X154638831Y-121240479D01*
X154635871Y-121252835D01*
X154634919Y-121264750D01*
X154635680Y-121276637D01*
X154637861Y-121288905D01*
X154641167Y-121301964D01*
X154661340Y-121384102D01*
X154682297Y-121484853D01*
X154702740Y-121595867D01*
X154721369Y-121708794D01*
X154736885Y-121815284D01*
X154747988Y-121906988D01*
X154753381Y-121975555D01*
X154753530Y-121998553D01*
X154751763Y-122012635D01*
X154748577Y-122022537D01*
X154745074Y-122032197D01*
X154741262Y-122041610D01*
X154737145Y-122050771D01*
X154732732Y-122059677D01*
X154728027Y-122068321D01*
X154723037Y-122076700D01*
X154717768Y-122084809D01*
X154712227Y-122092642D01*
X154706420Y-122100195D01*
X154700353Y-122107464D01*
X154694032Y-122114443D01*
X154687463Y-122121128D01*
X154680654Y-122127514D01*
X154673609Y-122133596D01*
X154666336Y-122139370D01*
X154658840Y-122144831D01*
X154651128Y-122149974D01*
X154643206Y-122154795D01*
X154635080Y-122159288D01*
X154626757Y-122163448D01*
X154618242Y-122167272D01*
X154609543Y-122170754D01*
X154600665Y-122173890D01*
X154591614Y-122176675D01*
X154582398Y-122179104D01*
X154573021Y-122181172D01*
X154563490Y-122182875D01*
X154553812Y-122184207D01*
X154543993Y-122185165D01*
X154534039Y-122185743D01*
X154523956Y-122185937D01*
X154509709Y-122185701D01*
X154495979Y-122184984D01*
X154482757Y-122183770D01*
X154470028Y-122182046D01*
X154457783Y-122179795D01*
X154446008Y-122177004D01*
X154434692Y-122173657D01*
X154423824Y-122169740D01*
X154413391Y-122165237D01*
X154403381Y-122160134D01*
X154393782Y-122154417D01*
X154384583Y-122148070D01*
X154375772Y-122141078D01*
X154367337Y-122133427D01*
X154359266Y-122125101D01*
X154351547Y-122116087D01*
X154344169Y-122106369D01*
X154337118Y-122095932D01*
X154330385Y-122084762D01*
X154323956Y-122072843D01*
X154317819Y-122060162D01*
X154311964Y-122046702D01*
X154306378Y-122032449D01*
X154301049Y-122017389D01*
X154295965Y-122001507D01*
X154291115Y-121984787D01*
X154282068Y-121948777D01*
X154273812Y-121909239D01*
X154266252Y-121866056D01*
X154243400Y-121736264D01*
X154217036Y-121606186D01*
X154187936Y-121478712D01*
X154156880Y-121356733D01*
X154124646Y-121243138D01*
X154092012Y-121140817D01*
X154059756Y-121052659D01*
X154044013Y-121014794D01*
X154028656Y-120981554D01*
X154010040Y-120946389D01*
X153988100Y-120909649D01*
X153963244Y-120871773D01*
X153935883Y-120833201D01*
X153906423Y-120794374D01*
X153875275Y-120755731D01*
X153842847Y-120717711D01*
X153809548Y-120680756D01*
X153775787Y-120645304D01*
X153741974Y-120611796D01*
X153708516Y-120580672D01*
X153675822Y-120552371D01*
X153644302Y-120527333D01*
X153614365Y-120505999D01*
X153586419Y-120488808D01*
X153560873Y-120476200D01*
X153535935Y-120466600D01*
X153510936Y-120458538D01*
X153485893Y-120452013D01*
X153460820Y-120447025D01*
X153435731Y-120443573D01*
X153410641Y-120441658D01*
X153385565Y-120441277D01*
X153360518Y-120442432D01*
X153335514Y-120445122D01*
X153310568Y-120449346D01*
X153285695Y-120455104D01*
X153260910Y-120462396D01*
X153236227Y-120471221D01*
X153211661Y-120481579D01*
X153187227Y-120493469D01*
X153162940Y-120506891D01*
X153146000Y-120517382D01*
X153129608Y-120528663D01*
X153113763Y-120540737D01*
X153098465Y-120553605D01*
X153083714Y-120567269D01*
X153069507Y-120581731D01*
X153055846Y-120596993D01*
X153042728Y-120613056D01*
X153030154Y-120629922D01*
X153018123Y-120647592D01*
X153006633Y-120666070D01*
X152995685Y-120685355D01*
X152985278Y-120705451D01*
X152975410Y-120726358D01*
X152966082Y-120748079D01*
X152957293Y-120770615D01*
X152949041Y-120793968D01*
X152941327Y-120818140D01*
X152934149Y-120843132D01*
X152927507Y-120868947D01*
X152915829Y-120923050D01*
X152906286Y-120980463D01*
X152898873Y-121041199D01*
X152893585Y-121105274D01*
X152890416Y-121172700D01*
X152889361Y-121243492D01*
X152890051Y-121286969D01*
X152892199Y-121329754D01*
X152895927Y-121372242D01*
X152901354Y-121414826D01*
X152908599Y-121457900D01*
X152917782Y-121501857D01*
X152929024Y-121547092D01*
X152942443Y-121593998D01*
X152958160Y-121642969D01*
X152976293Y-121694399D01*
X152996965Y-121748682D01*
X153020292Y-121806211D01*
X153046397Y-121867379D01*
X153075398Y-121932582D01*
X153142567Y-122076664D01*
X153171454Y-122137924D01*
X153198390Y-122196554D01*
X153222790Y-122251166D01*
X153244068Y-122300370D01*
X153261637Y-122342778D01*
X153274912Y-122377000D01*
X153283307Y-122401648D01*
X153285492Y-122409947D01*
X153286236Y-122415331D01*
X153286017Y-122422144D01*
X153285372Y-122429174D01*
X153282860Y-122443794D01*
X153278820Y-122459013D01*
X153273370Y-122474656D01*
X153266631Y-122490543D01*
X153258721Y-122506497D01*
X153249760Y-122522342D01*
X153239867Y-122537899D01*
X153229162Y-122552991D01*
X153217764Y-122567440D01*
X153205793Y-122581070D01*
X153193367Y-122593701D01*
X153180606Y-122605158D01*
X153167630Y-122615262D01*
X153154558Y-122623835D01*
X153148023Y-122627493D01*
X153141509Y-122630702D01*
X153127120Y-122637083D01*
X153113726Y-122642638D01*
X153101187Y-122647371D01*
X153089361Y-122651285D01*
X153078109Y-122654386D01*
X153067290Y-122656677D01*
X153056764Y-122658162D01*
X153046391Y-122658847D01*
X153036030Y-122658734D01*
X153025541Y-122657829D01*
X153014785Y-122656136D01*
X153003619Y-122653658D01*
X152991905Y-122650401D01*
X152979502Y-122646368D01*
X152966269Y-122641564D01*
X152952067Y-122635993D01*
X152946061Y-122633301D01*
X152939689Y-122629922D01*
X152933008Y-122625905D01*
X152926072Y-122621301D01*
X152918937Y-122616161D01*
X152911660Y-122610535D01*
X152904296Y-122604473D01*
X152896901Y-122598026D01*
X152889531Y-122591244D01*
X152882242Y-122584178D01*
X152875089Y-122576877D01*
X152868128Y-122569393D01*
X152861415Y-122561775D01*
X152855006Y-122554075D01*
X152848957Y-122546342D01*
X152843323Y-122538626D01*
X152832688Y-122522316D01*
X152820004Y-122501026D01*
X152789526Y-122445638D01*
X152753957Y-122376725D01*
X152715364Y-122298550D01*
X152675817Y-122215378D01*
X152637382Y-122131470D01*
X152602129Y-122051091D01*
X152572125Y-121978504D01*
X152566391Y-121964409D01*
X152561012Y-121951936D01*
X152555869Y-121941011D01*
X152550839Y-121931557D01*
X152548328Y-121927358D01*
X152545801Y-121923498D01*
X152543241Y-121919969D01*
X152540634Y-121916759D01*
X152537964Y-121913860D01*
X152535217Y-121911263D01*
X152532377Y-121908957D01*
X152529428Y-121906934D01*
X152526356Y-121905184D01*
X152523146Y-121903697D01*
X152519783Y-121902464D01*
X152516250Y-121901475D01*
X152512534Y-121900721D01*
X152508618Y-121900193D01*
X152504489Y-121899880D01*
X152500130Y-121899774D01*
X152495526Y-121899865D01*
X152490663Y-121900143D01*
X152480096Y-121901223D01*
X152468309Y-121902939D01*
X152455179Y-121905215D01*
X152428767Y-121908566D01*
X152384825Y-121912379D01*
X152325690Y-121916521D01*
X152253699Y-121920858D01*
X152080505Y-121929585D01*
X151883944Y-121937493D01*
X151542519Y-121942056D01*
X151213507Y-121931142D01*
X150897257Y-121904909D01*
X150594121Y-121863513D01*
X150304449Y-121807113D01*
X150028592Y-121735864D01*
X149766901Y-121649924D01*
X149519727Y-121549449D01*
X149287420Y-121434597D01*
X149070330Y-121305525D01*
X148868810Y-121162389D01*
X148683209Y-121005346D01*
X148513879Y-120834554D01*
X148361170Y-120650169D01*
X148225432Y-120452349D01*
X148107017Y-120241250D01*
X148076258Y-120179101D01*
X148048740Y-120120879D01*
X148024269Y-120065593D01*
X148002651Y-120012253D01*
X147983692Y-119959868D01*
X147967198Y-119907447D01*
X147952974Y-119854000D01*
X147940826Y-119798536D01*
X147930560Y-119740064D01*
X147921982Y-119677594D01*
X147914898Y-119610136D01*
X147909113Y-119536697D01*
X147904434Y-119456289D01*
X147900665Y-119367920D01*
X147895086Y-119163337D01*
X147894159Y-119115223D01*
X148428964Y-119115223D01*
X148431694Y-119205319D01*
X148437897Y-119295097D01*
X148447509Y-119384250D01*
X148460467Y-119472471D01*
X148476706Y-119559452D01*
X148496164Y-119644885D01*
X148518777Y-119728464D01*
X148544481Y-119809881D01*
X148573213Y-119888829D01*
X148604909Y-119965000D01*
X148639506Y-120038088D01*
X148676939Y-120107784D01*
X148717146Y-120173781D01*
X148760137Y-120237535D01*
X148805272Y-120299567D01*
X148852552Y-120359878D01*
X148901982Y-120418468D01*
X148953562Y-120475339D01*
X149007297Y-120530493D01*
X149063189Y-120583930D01*
X149121240Y-120635653D01*
X149181452Y-120685661D01*
X149243829Y-120733957D01*
X149308374Y-120780541D01*
X149375088Y-120825416D01*
X149443974Y-120868581D01*
X149515035Y-120910039D01*
X149588274Y-120949791D01*
X149663693Y-120987838D01*
X149821082Y-121058821D01*
X149987224Y-121123000D01*
X150162138Y-121180383D01*
X150345847Y-121230982D01*
X150538370Y-121274805D01*
X150739730Y-121311865D01*
X150949946Y-121342169D01*
X151169040Y-121365729D01*
X151282448Y-121372728D01*
X151427265Y-121376775D01*
X151591963Y-121378045D01*
X151765014Y-121376709D01*
X151934890Y-121372943D01*
X152090063Y-121366920D01*
X152219005Y-121358813D01*
X152310188Y-121348796D01*
X152405438Y-121333714D01*
X152421048Y-121078656D01*
X152427467Y-120994961D01*
X152436169Y-120915586D01*
X152447249Y-120840323D01*
X152460802Y-120768965D01*
X152476922Y-120701305D01*
X152495704Y-120637134D01*
X152517243Y-120576246D01*
X152541632Y-120518434D01*
X152568967Y-120463490D01*
X152599342Y-120411206D01*
X152632852Y-120361375D01*
X152669591Y-120313791D01*
X152709654Y-120268245D01*
X152753135Y-120224531D01*
X152800130Y-120182440D01*
X152850731Y-120141767D01*
X152899617Y-120107246D01*
X152950760Y-120076427D01*
X153003913Y-120049337D01*
X153058826Y-120025999D01*
X153115253Y-120006439D01*
X153172944Y-119990683D01*
X153231653Y-119978755D01*
X153291131Y-119970680D01*
X153351129Y-119966485D01*
X153411400Y-119966193D01*
X153471696Y-119969831D01*
X153531769Y-119977423D01*
X153591371Y-119988995D01*
X153650253Y-120004571D01*
X153708167Y-120024178D01*
X153764867Y-120047840D01*
X153796669Y-120063583D01*
X153829903Y-120082196D01*
X153864323Y-120103465D01*
X153899689Y-120127177D01*
X153935754Y-120153121D01*
X153972277Y-120181082D01*
X154009014Y-120210849D01*
X154045722Y-120242209D01*
X154082157Y-120274948D01*
X154118075Y-120308854D01*
X154153234Y-120343715D01*
X154187390Y-120379317D01*
X154220299Y-120415447D01*
X154251719Y-120451894D01*
X154281405Y-120488443D01*
X154309115Y-120524883D01*
X154408069Y-120659556D01*
X154538508Y-120517475D01*
X154603842Y-120443971D01*
X154663275Y-120371615D01*
X154717041Y-120299691D01*
X154765372Y-120227487D01*
X154808499Y-120154290D01*
X154846657Y-120079385D01*
X154880076Y-120002060D01*
X154908991Y-119921600D01*
X154933633Y-119837293D01*
X154954235Y-119748424D01*
X154971029Y-119654280D01*
X154984249Y-119554148D01*
X154994126Y-119447314D01*
X155000893Y-119333064D01*
X155004782Y-119210686D01*
X155006027Y-119079465D01*
X155005407Y-119012980D01*
X155003536Y-118948607D01*
X155000397Y-118886261D01*
X154995973Y-118825857D01*
X154990247Y-118767313D01*
X154983201Y-118710543D01*
X154974819Y-118655464D01*
X154965083Y-118601991D01*
X154953977Y-118550040D01*
X154941484Y-118499528D01*
X154927585Y-118450370D01*
X154912266Y-118402483D01*
X154895507Y-118355781D01*
X154877293Y-118310181D01*
X154857606Y-118265599D01*
X154836430Y-118221950D01*
X154819206Y-118190242D01*
X154798792Y-118156755D01*
X154775487Y-118121817D01*
X154749592Y-118085756D01*
X154721408Y-118048901D01*
X154691234Y-118011581D01*
X154659371Y-117974125D01*
X154626119Y-117936861D01*
X154591779Y-117900118D01*
X154556651Y-117864225D01*
X154521035Y-117829510D01*
X154485232Y-117796302D01*
X154449543Y-117764929D01*
X154414266Y-117735720D01*
X154379704Y-117709005D01*
X154346156Y-117685111D01*
X154319261Y-117666236D01*
X154293368Y-117647072D01*
X154269105Y-117628151D01*
X154247103Y-117610002D01*
X154227990Y-117593155D01*
X154219715Y-117585385D01*
X154212397Y-117578140D01*
X154206117Y-117571486D01*
X154200952Y-117565488D01*
X154196982Y-117560214D01*
X154194286Y-117555729D01*
X154192219Y-117549582D01*
X154190194Y-117539430D01*
X154188221Y-117525504D01*
X154186311Y-117508034D01*
X154182719Y-117463386D01*
X154179502Y-117407331D01*
X154176744Y-117341714D01*
X154174528Y-117268379D01*
X154172939Y-117189172D01*
X154172060Y-117105938D01*
X154171019Y-116989990D01*
X154168885Y-116893080D01*
X154165363Y-116812095D01*
X154160154Y-116743921D01*
X154152961Y-116685446D01*
X154143486Y-116633557D01*
X154131431Y-116585140D01*
X154116499Y-116537083D01*
X154100102Y-116489500D01*
X154092819Y-116469750D01*
X154085984Y-116452487D01*
X154079477Y-116437558D01*
X154073175Y-116424807D01*
X154066958Y-116414080D01*
X154060704Y-116405222D01*
X154054292Y-116398079D01*
X154050989Y-116395102D01*
X154047600Y-116392495D01*
X154044112Y-116390240D01*
X154040508Y-116388318D01*
X154036774Y-116386707D01*
X154032894Y-116385390D01*
X154024636Y-116383559D01*
X154015614Y-116382670D01*
X154005706Y-116382567D01*
X153994790Y-116383096D01*
X153976854Y-116384786D01*
X153958526Y-116387466D01*
X153920756Y-116395760D01*
X153881595Y-116407893D01*
X153841162Y-116423784D01*
X153799574Y-116443349D01*
X153756949Y-116466505D01*
X153713403Y-116493169D01*
X153669055Y-116523259D01*
X153624021Y-116556691D01*
X153578420Y-116593383D01*
X153532368Y-116633251D01*
X153485984Y-116676213D01*
X153439384Y-116722185D01*
X153392686Y-116771086D01*
X153346007Y-116822831D01*
X153299465Y-116877338D01*
X153283780Y-116895888D01*
X153269078Y-116912708D01*
X153255218Y-116927889D01*
X153242059Y-116941524D01*
X153229461Y-116953704D01*
X153217284Y-116964523D01*
X153205388Y-116974072D01*
X153193632Y-116982443D01*
X153181876Y-116989730D01*
X153169979Y-116996023D01*
X153157802Y-117001415D01*
X153145205Y-117005999D01*
X153132046Y-117009867D01*
X153118185Y-117013111D01*
X153103483Y-117015823D01*
X153087798Y-117018096D01*
X153071676Y-117019966D01*
X153056737Y-117021275D01*
X153042819Y-117021970D01*
X153029759Y-117021998D01*
X153017396Y-117021308D01*
X153005566Y-117019845D01*
X152994107Y-117017557D01*
X152982858Y-117014392D01*
X152971655Y-117010296D01*
X152960336Y-117005218D01*
X152948738Y-116999104D01*
X152936700Y-116991902D01*
X152924059Y-116983559D01*
X152910653Y-116974022D01*
X152896318Y-116963239D01*
X152880894Y-116951156D01*
X152851093Y-116928767D01*
X152820402Y-116908650D01*
X152804478Y-116899408D01*
X152788036Y-116890692D01*
X152770978Y-116882487D01*
X152753208Y-116874779D01*
X152734625Y-116867553D01*
X152715133Y-116860795D01*
X152694634Y-116854492D01*
X152673028Y-116848628D01*
X152650218Y-116843189D01*
X152626105Y-116838162D01*
X152573581Y-116829283D01*
X152514669Y-116821876D01*
X152448585Y-116815829D01*
X152374543Y-116811025D01*
X152291758Y-116807351D01*
X152199445Y-116804693D01*
X152096819Y-116802935D01*
X151983094Y-116801965D01*
X151857486Y-116801667D01*
X151620456Y-116803189D01*
X151422391Y-116808438D01*
X151256243Y-116818438D01*
X151182936Y-116825538D01*
X151114966Y-116834210D01*
X151051451Y-116844581D01*
X150991510Y-116856780D01*
X150934263Y-116870933D01*
X150878829Y-116887168D01*
X150824327Y-116905615D01*
X150769875Y-116926400D01*
X150657600Y-116975498D01*
X150620365Y-116992320D01*
X150585888Y-117006413D01*
X150553777Y-117017691D01*
X150538485Y-117022247D01*
X150523639Y-117026067D01*
X150509187Y-117029139D01*
X150495082Y-117031453D01*
X150481274Y-117032999D01*
X150467714Y-117033764D01*
X150454354Y-117033739D01*
X150441144Y-117032913D01*
X150428034Y-117031274D01*
X150414977Y-117028812D01*
X150401924Y-117025515D01*
X150388824Y-117021374D01*
X150375629Y-117016377D01*
X150362290Y-117010514D01*
X150348758Y-117003773D01*
X150334985Y-116996144D01*
X150320920Y-116987615D01*
X150306515Y-116978177D01*
X150276488Y-116956526D01*
X150244513Y-116931106D01*
X150210197Y-116901828D01*
X150173148Y-116868606D01*
X150101237Y-116804549D01*
X150066690Y-116775188D01*
X150032733Y-116747369D01*
X149999103Y-116720918D01*
X149965538Y-116695659D01*
X149931775Y-116671415D01*
X149897552Y-116648010D01*
X149862606Y-116625269D01*
X149826676Y-116603015D01*
X149789498Y-116581073D01*
X149750811Y-116559267D01*
X149710352Y-116537420D01*
X149667859Y-116515358D01*
X149575719Y-116469879D01*
X149525417Y-116446418D01*
X149475990Y-116424696D01*
X149427707Y-116404776D01*
X149380837Y-116386722D01*
X149335647Y-116370598D01*
X149292406Y-116356468D01*
X149251382Y-116344396D01*
X149212843Y-116334446D01*
X149177058Y-116326682D01*
X149144293Y-116321167D01*
X149114819Y-116317967D01*
X149088903Y-116317144D01*
X149066812Y-116318763D01*
X149048816Y-116322888D01*
X149041437Y-116325910D01*
X149035183Y-116329583D01*
X149030086Y-116333913D01*
X149026180Y-116338911D01*
X149017214Y-116355418D01*
X149008823Y-116374879D01*
X148993762Y-116422068D01*
X148980999Y-116479296D01*
X148970535Y-116545381D01*
X148962371Y-116619141D01*
X148956510Y-116699395D01*
X148952952Y-116784962D01*
X148951699Y-116874659D01*
X148952754Y-116967304D01*
X148956117Y-117061716D01*
X148961790Y-117156714D01*
X148969774Y-117251115D01*
X148980071Y-117343738D01*
X148992683Y-117433401D01*
X149007611Y-117518923D01*
X149024857Y-117599121D01*
X149042234Y-117673462D01*
X149054986Y-117732731D01*
X149059678Y-117757624D01*
X149063273Y-117779840D01*
X149065793Y-117799744D01*
X149067256Y-117817700D01*
X149067684Y-117834071D01*
X149067097Y-117849222D01*
X149065514Y-117863516D01*
X149062957Y-117877318D01*
X149059444Y-117890991D01*
X149054996Y-117904899D01*
X149043378Y-117934877D01*
X149038571Y-117945550D01*
X149033199Y-117956114D01*
X149027295Y-117966536D01*
X149020888Y-117976781D01*
X149014010Y-117986815D01*
X149006691Y-117996604D01*
X148998964Y-118006114D01*
X148990858Y-118015310D01*
X148982405Y-118024160D01*
X148973635Y-118032628D01*
X148964580Y-118040681D01*
X148955271Y-118048284D01*
X148945739Y-118055404D01*
X148936015Y-118062005D01*
X148926129Y-118068055D01*
X148916113Y-118073519D01*
X148863707Y-118102229D01*
X148838778Y-118117341D01*
X148814687Y-118132978D01*
X148791423Y-118149155D01*
X148768978Y-118165888D01*
X148747342Y-118183191D01*
X148726506Y-118201081D01*
X148706461Y-118219572D01*
X148687197Y-118238681D01*
X148668705Y-118258421D01*
X148650976Y-118278809D01*
X148634000Y-118299859D01*
X148617768Y-118321588D01*
X148602272Y-118344009D01*
X148587501Y-118367140D01*
X148573446Y-118390995D01*
X148560098Y-118415589D01*
X148547447Y-118440937D01*
X148535485Y-118467055D01*
X148524202Y-118493959D01*
X148513589Y-118521663D01*
X148503636Y-118550183D01*
X148494334Y-118579534D01*
X148477647Y-118640791D01*
X148463452Y-118705557D01*
X148451676Y-118773953D01*
X148442244Y-118846102D01*
X148434175Y-118935307D01*
X148429770Y-119025117D01*
X148428964Y-119115223D01*
X147894159Y-119115223D01*
X147891849Y-118995402D01*
X147890328Y-118861903D01*
X147890896Y-118756618D01*
X147893928Y-118673329D01*
X147899801Y-118605816D01*
X147908890Y-118547859D01*
X147921569Y-118493238D01*
X147938213Y-118435733D01*
X147952769Y-118390970D01*
X147969085Y-118346086D01*
X147987059Y-118301246D01*
X148006591Y-118256615D01*
X148027581Y-118212357D01*
X148049927Y-118168638D01*
X148073529Y-118125622D01*
X148098286Y-118083474D01*
X148124097Y-118042358D01*
X148150862Y-118002439D01*
X148178479Y-117963883D01*
X148206848Y-117926853D01*
X148235868Y-117891514D01*
X148265439Y-117858032D01*
X148295459Y-117826570D01*
X148325828Y-117797294D01*
X148458913Y-117674792D01*
X148423988Y-117502813D01*
X148414199Y-117447376D01*
X148405765Y-117385400D01*
X148398683Y-117317863D01*
X148392949Y-117245741D01*
X148385516Y-117091652D01*
X148383441Y-116930949D01*
X148386698Y-116771449D01*
X148395264Y-116620969D01*
X148401530Y-116551554D01*
X148409113Y-116487325D01*
X148418012Y-116429259D01*
X148428221Y-116378333D01*
X148439295Y-116332896D01*
X148451851Y-116286482D01*
X148480634Y-116192550D01*
X148513025Y-116100188D01*
X148547482Y-116013043D01*
X148582460Y-115934766D01*
X148599662Y-115900094D01*
X148616415Y-115869006D01*
X148632526Y-115841961D01*
X148647802Y-115819413D01*
X148662050Y-115801819D01*
X148675078Y-115789635D01*
X148682147Y-115785348D01*
X148691467Y-115781365D01*
X148716366Y-115774306D01*
X148748786Y-115768449D01*
X148787745Y-115763785D01*
X148832254Y-115760304D01*
X148881330Y-115757996D01*
X148933986Y-115756851D01*
X148989237Y-115756860D01*
G37*
G36*
X153672838Y-118061924D02*
G01*
X153690574Y-118062481D01*
X153709733Y-118063535D01*
X153730471Y-118065052D01*
X153751383Y-118067111D01*
X153771844Y-118069910D01*
X153791844Y-118073436D01*
X153811372Y-118077681D01*
X153830419Y-118082634D01*
X153848973Y-118088284D01*
X153867024Y-118094623D01*
X153884562Y-118101639D01*
X153901576Y-118109322D01*
X153918057Y-118117663D01*
X153933993Y-118126651D01*
X153949374Y-118136276D01*
X153964190Y-118146527D01*
X153978430Y-118157395D01*
X153992084Y-118168869D01*
X154005142Y-118180940D01*
X154017592Y-118193596D01*
X154029426Y-118206828D01*
X154040631Y-118220626D01*
X154051198Y-118234980D01*
X154061117Y-118249878D01*
X154070377Y-118265312D01*
X154078967Y-118281271D01*
X154086877Y-118297745D01*
X154094097Y-118314723D01*
X154100617Y-118332196D01*
X154106425Y-118350153D01*
X154111512Y-118368584D01*
X154115867Y-118387479D01*
X154119479Y-118406827D01*
X154122339Y-118426620D01*
X154124435Y-118446845D01*
X154126028Y-118478993D01*
X154125367Y-118510414D01*
X154122481Y-118541058D01*
X154117399Y-118570873D01*
X154110150Y-118599810D01*
X154100763Y-118627816D01*
X154089265Y-118654842D01*
X154075686Y-118680837D01*
X154060055Y-118705749D01*
X154042399Y-118729529D01*
X154022749Y-118752125D01*
X154001132Y-118773486D01*
X153977577Y-118793563D01*
X153952112Y-118812303D01*
X153924768Y-118829657D01*
X153895571Y-118845573D01*
X153869630Y-118858246D01*
X153845056Y-118869280D01*
X153821653Y-118878682D01*
X153799225Y-118886455D01*
X153777578Y-118892605D01*
X153756514Y-118897137D01*
X153735839Y-118900056D01*
X153715357Y-118901367D01*
X153694871Y-118901075D01*
X153674187Y-118899184D01*
X153653108Y-118895701D01*
X153631438Y-118890631D01*
X153608983Y-118883977D01*
X153585546Y-118875745D01*
X153560931Y-118865941D01*
X153534944Y-118854569D01*
X153520161Y-118847607D01*
X153505876Y-118840364D01*
X153492087Y-118832836D01*
X153478791Y-118825019D01*
X153465987Y-118816912D01*
X153453673Y-118808510D01*
X153441847Y-118799811D01*
X153430508Y-118790812D01*
X153419653Y-118781510D01*
X153409280Y-118771903D01*
X153399389Y-118761985D01*
X153389976Y-118751756D01*
X153381040Y-118741212D01*
X153372580Y-118730350D01*
X153364593Y-118719166D01*
X153357078Y-118707659D01*
X153350032Y-118695824D01*
X153343454Y-118683659D01*
X153337343Y-118671161D01*
X153331695Y-118658327D01*
X153326510Y-118645154D01*
X153321786Y-118631639D01*
X153317520Y-118617779D01*
X153313711Y-118603570D01*
X153310357Y-118589010D01*
X153307456Y-118574097D01*
X153305007Y-118558826D01*
X153303007Y-118543195D01*
X153301454Y-118527200D01*
X153300348Y-118510840D01*
X153299465Y-118477009D01*
X153300052Y-118446233D01*
X153301865Y-118417213D01*
X153304983Y-118389806D01*
X153309486Y-118363870D01*
X153315452Y-118339263D01*
X153322961Y-118315842D01*
X153332092Y-118293465D01*
X153342923Y-118271989D01*
X153355534Y-118251274D01*
X153370003Y-118231176D01*
X153386411Y-118211553D01*
X153404835Y-118192263D01*
X153425356Y-118173164D01*
X153448051Y-118154113D01*
X153473001Y-118134968D01*
X153500283Y-118115588D01*
X153513813Y-118106547D01*
X153526724Y-118098451D01*
X153539174Y-118091266D01*
X153551319Y-118084958D01*
X153563317Y-118079491D01*
X153575325Y-118074832D01*
X153587500Y-118070945D01*
X153599998Y-118067797D01*
X153612977Y-118065353D01*
X153626594Y-118063578D01*
X153641005Y-118062438D01*
X153656367Y-118061898D01*
X153672838Y-118061924D01*
G37*
G36*
X150216772Y-118257735D02*
G01*
X150252175Y-118261705D01*
X150287181Y-118268450D01*
X150321656Y-118277961D01*
X150355467Y-118290229D01*
X150388479Y-118305243D01*
X150420559Y-118322996D01*
X150451573Y-118343477D01*
X150481388Y-118366677D01*
X150501387Y-118384447D01*
X150520060Y-118402996D01*
X150537408Y-118422269D01*
X150553432Y-118442211D01*
X150568132Y-118462769D01*
X150581511Y-118483888D01*
X150593569Y-118505514D01*
X150604308Y-118527593D01*
X150613727Y-118550070D01*
X150621828Y-118572892D01*
X150628612Y-118596003D01*
X150634081Y-118619350D01*
X150638235Y-118642878D01*
X150641074Y-118666534D01*
X150642602Y-118690262D01*
X150642817Y-118714009D01*
X150641721Y-118737720D01*
X150639316Y-118761341D01*
X150635602Y-118784818D01*
X150630580Y-118808097D01*
X150624252Y-118831123D01*
X150616618Y-118853842D01*
X150607679Y-118876200D01*
X150597437Y-118898142D01*
X150585892Y-118919615D01*
X150573045Y-118940563D01*
X150558898Y-118960934D01*
X150543451Y-118980672D01*
X150526705Y-118999723D01*
X150508663Y-119018033D01*
X150489323Y-119035547D01*
X150468688Y-119052212D01*
X150445590Y-119068143D01*
X150420158Y-119082576D01*
X150392697Y-119095474D01*
X150363516Y-119106803D01*
X150332921Y-119116528D01*
X150301219Y-119124613D01*
X150268717Y-119131022D01*
X150235722Y-119135721D01*
X150202541Y-119138675D01*
X150169481Y-119139848D01*
X150136849Y-119139204D01*
X150104952Y-119136710D01*
X150074096Y-119132328D01*
X150044590Y-119126024D01*
X150016739Y-119117764D01*
X149990850Y-119107510D01*
X149973490Y-119099074D01*
X149956548Y-119089720D01*
X149940043Y-119079489D01*
X149923996Y-119068424D01*
X149908428Y-119056568D01*
X149893358Y-119043963D01*
X149878808Y-119030651D01*
X149864797Y-119016676D01*
X149851347Y-119002078D01*
X149838476Y-118986901D01*
X149826207Y-118971188D01*
X149814559Y-118954980D01*
X149803552Y-118938320D01*
X149793208Y-118921251D01*
X149783546Y-118903815D01*
X149774587Y-118886054D01*
X149766351Y-118868011D01*
X149758858Y-118849728D01*
X149752130Y-118831248D01*
X149746186Y-118812614D01*
X149741047Y-118793866D01*
X149736733Y-118775049D01*
X149733264Y-118756205D01*
X149730662Y-118737375D01*
X149728946Y-118718602D01*
X149728136Y-118699930D01*
X149728254Y-118681400D01*
X149729320Y-118663054D01*
X149731353Y-118644935D01*
X149734375Y-118627086D01*
X149738405Y-118609549D01*
X149743465Y-118592367D01*
X149751979Y-118567388D01*
X149760693Y-118543893D01*
X149769662Y-118521805D01*
X149778944Y-118501044D01*
X149788595Y-118481533D01*
X149798671Y-118463193D01*
X149809229Y-118445946D01*
X149820327Y-118429714D01*
X149832019Y-118414418D01*
X149844363Y-118399981D01*
X149857416Y-118386323D01*
X149871234Y-118373366D01*
X149885874Y-118361033D01*
X149901391Y-118349245D01*
X149917844Y-118337923D01*
X149935288Y-118326990D01*
X149969056Y-118308425D01*
X150003496Y-118292710D01*
X150038475Y-118279834D01*
X150073859Y-118269790D01*
X150109515Y-118262567D01*
X150145308Y-118258157D01*
X150181105Y-118256549D01*
X150216772Y-118257735D01*
G37*
G36*
X152864881Y-118798761D02*
G01*
X152875119Y-118799416D01*
X152885330Y-118800573D01*
X152895494Y-118802233D01*
X152905592Y-118804396D01*
X152915605Y-118807062D01*
X152925514Y-118810232D01*
X152935299Y-118813906D01*
X152944942Y-118818083D01*
X152954423Y-118822764D01*
X152963722Y-118827950D01*
X152972822Y-118833640D01*
X152981703Y-118839835D01*
X152990344Y-118846534D01*
X152998728Y-118853738D01*
X153006836Y-118861448D01*
X153013828Y-118868996D01*
X153020707Y-118877517D01*
X153034078Y-118897263D01*
X153046853Y-118920268D01*
X153058934Y-118946111D01*
X153070224Y-118974370D01*
X153080627Y-119004625D01*
X153090045Y-119036457D01*
X153098382Y-119069444D01*
X153105540Y-119103165D01*
X153111424Y-119137201D01*
X153115935Y-119171131D01*
X153118978Y-119204534D01*
X153120454Y-119236990D01*
X153120269Y-119268078D01*
X153118323Y-119297378D01*
X153114521Y-119324469D01*
X153105601Y-119364188D01*
X153093900Y-119402992D01*
X153079531Y-119440753D01*
X153062609Y-119477344D01*
X153043249Y-119512638D01*
X153021564Y-119546506D01*
X152997669Y-119578822D01*
X152971679Y-119609458D01*
X152943708Y-119638286D01*
X152913869Y-119665179D01*
X152882278Y-119690010D01*
X152849049Y-119712650D01*
X152814296Y-119732972D01*
X152778133Y-119750849D01*
X152740675Y-119766154D01*
X152702036Y-119778758D01*
X152674389Y-119785895D01*
X152645576Y-119791833D01*
X152615827Y-119796585D01*
X152585371Y-119800161D01*
X152554437Y-119802573D01*
X152523256Y-119803831D01*
X152492056Y-119803948D01*
X152461066Y-119802935D01*
X152430517Y-119800802D01*
X152400638Y-119797561D01*
X152371658Y-119793223D01*
X152343806Y-119787800D01*
X152317313Y-119781302D01*
X152292407Y-119773741D01*
X152269318Y-119765128D01*
X152248275Y-119755475D01*
X152151438Y-119705998D01*
X152078677Y-119781933D01*
X152054258Y-119806029D01*
X152028476Y-119828784D01*
X152001411Y-119850167D01*
X151973138Y-119870147D01*
X151943734Y-119888691D01*
X151913278Y-119905768D01*
X151881846Y-119921345D01*
X151849515Y-119935392D01*
X151816363Y-119947875D01*
X151782466Y-119958765D01*
X151747901Y-119968028D01*
X151712746Y-119975633D01*
X151677078Y-119981548D01*
X151640974Y-119985742D01*
X151604512Y-119988182D01*
X151567767Y-119988838D01*
X151531353Y-119987932D01*
X151494242Y-119985712D01*
X151457471Y-119982326D01*
X151422081Y-119977923D01*
X151389109Y-119972652D01*
X151359594Y-119966662D01*
X151346457Y-119963444D01*
X151334574Y-119960101D01*
X151324075Y-119956653D01*
X151315090Y-119953119D01*
X151287219Y-119940079D01*
X151260127Y-119925702D01*
X151233840Y-119910038D01*
X151208381Y-119893139D01*
X151183774Y-119875059D01*
X151160045Y-119855850D01*
X151137218Y-119835562D01*
X151115317Y-119814250D01*
X151094367Y-119791964D01*
X151074392Y-119768757D01*
X151055416Y-119744681D01*
X151037465Y-119719789D01*
X151020562Y-119694132D01*
X151004733Y-119667763D01*
X150990000Y-119640733D01*
X150976390Y-119613096D01*
X150963927Y-119584903D01*
X150952634Y-119556206D01*
X150942536Y-119527058D01*
X150933659Y-119497511D01*
X150926025Y-119467616D01*
X150919661Y-119437427D01*
X150914589Y-119406995D01*
X150910836Y-119376372D01*
X150908424Y-119345611D01*
X150907379Y-119314764D01*
X150907726Y-119283883D01*
X150909488Y-119253020D01*
X150912689Y-119222228D01*
X150917356Y-119191558D01*
X150923511Y-119161062D01*
X150931180Y-119130794D01*
X150937930Y-119108473D01*
X150945407Y-119087065D01*
X150953580Y-119066582D01*
X150962413Y-119047041D01*
X150971874Y-119028456D01*
X150981930Y-119010843D01*
X150992547Y-118994217D01*
X151003692Y-118978592D01*
X151015332Y-118963985D01*
X151027432Y-118950409D01*
X151039961Y-118937881D01*
X151052884Y-118926416D01*
X151066168Y-118916027D01*
X151079780Y-118906732D01*
X151093687Y-118898543D01*
X151107855Y-118891478D01*
X151122251Y-118885551D01*
X151136841Y-118880777D01*
X151151593Y-118877170D01*
X151166473Y-118874747D01*
X151181447Y-118873523D01*
X151196482Y-118873512D01*
X151211545Y-118874729D01*
X151226603Y-118877191D01*
X151241622Y-118880911D01*
X151256569Y-118885905D01*
X151271411Y-118892188D01*
X151286114Y-118899775D01*
X151300645Y-118908682D01*
X151314970Y-118918923D01*
X151329057Y-118930513D01*
X151342871Y-118943469D01*
X151356060Y-118957379D01*
X151362056Y-118964260D01*
X151367654Y-118971111D01*
X151372857Y-118977947D01*
X151377665Y-118984783D01*
X151382081Y-118991634D01*
X151386106Y-118998515D01*
X151389740Y-119005440D01*
X151392986Y-119012424D01*
X151395845Y-119019483D01*
X151398319Y-119026631D01*
X151400408Y-119033883D01*
X151402115Y-119041254D01*
X151403441Y-119048759D01*
X151404387Y-119056413D01*
X151404954Y-119064230D01*
X151405145Y-119072226D01*
X151404961Y-119080414D01*
X151404402Y-119088811D01*
X151403471Y-119097432D01*
X151402169Y-119106290D01*
X151400498Y-119115400D01*
X151398458Y-119124779D01*
X151396052Y-119134440D01*
X151393281Y-119144398D01*
X151386648Y-119165267D01*
X151378572Y-119187503D01*
X151369065Y-119211227D01*
X151362359Y-119228784D01*
X151356905Y-119246350D01*
X151352669Y-119263880D01*
X151349621Y-119281329D01*
X151347726Y-119298652D01*
X151346954Y-119315805D01*
X151347271Y-119332742D01*
X151348646Y-119349418D01*
X151351047Y-119365788D01*
X151354439Y-119381808D01*
X151358793Y-119397432D01*
X151364074Y-119412615D01*
X151370252Y-119427312D01*
X151377293Y-119441478D01*
X151385165Y-119455069D01*
X151393836Y-119468038D01*
X151403274Y-119480342D01*
X151413446Y-119491935D01*
X151424321Y-119502772D01*
X151435864Y-119512808D01*
X151448046Y-119521998D01*
X151460832Y-119530298D01*
X151474191Y-119537661D01*
X151488090Y-119544044D01*
X151502498Y-119549400D01*
X151517381Y-119553686D01*
X151532708Y-119556856D01*
X151548446Y-119558865D01*
X151564562Y-119559668D01*
X151581026Y-119559220D01*
X151597803Y-119557476D01*
X151614863Y-119554391D01*
X151625201Y-119551866D01*
X151635470Y-119548864D01*
X151645656Y-119545399D01*
X151655746Y-119541486D01*
X151665725Y-119537139D01*
X151675582Y-119532373D01*
X151694870Y-119521641D01*
X151713503Y-119509405D01*
X151731372Y-119495781D01*
X151748369Y-119480884D01*
X151764386Y-119464830D01*
X151779314Y-119447734D01*
X151793046Y-119429712D01*
X151805473Y-119410879D01*
X151816488Y-119391350D01*
X151825982Y-119371242D01*
X151830124Y-119361007D01*
X151833846Y-119350670D01*
X151837134Y-119340245D01*
X151839974Y-119329748D01*
X151842353Y-119319193D01*
X151844257Y-119308594D01*
X151856583Y-119234773D01*
X151862509Y-119203481D01*
X151868450Y-119175574D01*
X151874533Y-119150780D01*
X151880887Y-119128828D01*
X151887641Y-119109446D01*
X151894924Y-119092363D01*
X151902865Y-119077308D01*
X151911591Y-119064009D01*
X151921232Y-119052196D01*
X151931916Y-119041596D01*
X151943773Y-119031939D01*
X151956930Y-119022953D01*
X151971516Y-119014367D01*
X151987661Y-119005910D01*
X152000000Y-119000000D01*
X152012163Y-118994771D01*
X152024154Y-118990224D01*
X152035971Y-118986360D01*
X152047618Y-118983179D01*
X152059096Y-118980682D01*
X152070407Y-118978871D01*
X152081551Y-118977745D01*
X152092530Y-118977305D01*
X152103346Y-118977553D01*
X152114000Y-118978488D01*
X152124494Y-118980112D01*
X152134830Y-118982425D01*
X152145008Y-118985428D01*
X152155030Y-118989122D01*
X152164898Y-118993508D01*
X152174614Y-118998586D01*
X152184178Y-119004356D01*
X152193593Y-119010821D01*
X152202860Y-119017979D01*
X152211979Y-119025833D01*
X152220954Y-119034383D01*
X152229785Y-119043629D01*
X152238473Y-119053573D01*
X152247021Y-119064214D01*
X152255430Y-119075554D01*
X152263701Y-119087594D01*
X152271836Y-119100334D01*
X152287704Y-119127918D01*
X152303044Y-119158311D01*
X152319436Y-119192154D01*
X152334870Y-119222632D01*
X152349487Y-119249876D01*
X152363427Y-119274020D01*
X152376831Y-119295195D01*
X152389839Y-119313534D01*
X152402591Y-119329167D01*
X152415227Y-119342229D01*
X152421546Y-119347836D01*
X152427889Y-119352850D01*
X152434273Y-119357287D01*
X152440715Y-119361164D01*
X152447234Y-119364496D01*
X152453847Y-119367301D01*
X152460571Y-119369595D01*
X152467425Y-119371395D01*
X152474424Y-119372717D01*
X152481588Y-119373577D01*
X152496478Y-119373980D01*
X152512235Y-119372736D01*
X152528998Y-119369977D01*
X152553427Y-119364751D01*
X152575108Y-119359228D01*
X152584958Y-119356277D01*
X152594169Y-119353158D01*
X152602757Y-119349840D01*
X152610738Y-119346293D01*
X152618129Y-119342485D01*
X152624945Y-119338384D01*
X152631202Y-119333961D01*
X152636917Y-119329184D01*
X152642106Y-119324022D01*
X152646785Y-119318444D01*
X152650969Y-119312418D01*
X152654675Y-119305915D01*
X152657920Y-119298902D01*
X152660718Y-119291349D01*
X152663087Y-119283224D01*
X152665042Y-119274497D01*
X152666599Y-119265137D01*
X152667775Y-119255112D01*
X152668585Y-119244391D01*
X152669046Y-119232944D01*
X152669173Y-119220739D01*
X152668983Y-119207745D01*
X152667717Y-119179267D01*
X152665374Y-119147261D01*
X152662084Y-119111479D01*
X152656937Y-119055369D01*
X152655188Y-119031779D01*
X152654051Y-119010805D01*
X152653573Y-118992175D01*
X152653800Y-118975618D01*
X152654781Y-118960862D01*
X152656560Y-118947636D01*
X152659187Y-118935669D01*
X152662706Y-118924690D01*
X152667166Y-118914426D01*
X152672613Y-118904608D01*
X152679094Y-118894964D01*
X152686656Y-118885221D01*
X152695346Y-118875110D01*
X152705211Y-118864358D01*
X152712981Y-118856497D01*
X152721051Y-118849135D01*
X152729399Y-118842272D01*
X152738009Y-118835909D01*
X152746859Y-118830047D01*
X152755931Y-118824684D01*
X152765205Y-118819822D01*
X152774664Y-118815460D01*
X152784286Y-118811599D01*
X152794054Y-118808239D01*
X152803948Y-118805380D01*
X152813948Y-118803022D01*
X152824036Y-118801166D01*
X152834193Y-118799812D01*
X152844398Y-118798960D01*
X152854634Y-118798609D01*
X152864881Y-118798761D01*
G37*
D12*
G36*
X109966015Y-108961706D02*
G01*
X110036096Y-108969429D01*
X110090346Y-108990757D01*
X110132466Y-109024720D01*
X110164131Y-109069497D01*
X110183243Y-109120621D01*
X110189863Y-109179937D01*
X110185800Y-109224763D01*
X110173133Y-109272260D01*
X109714200Y-110634891D01*
X109677220Y-110708217D01*
X109624685Y-110762264D01*
X109559089Y-110796831D01*
X109484734Y-110808426D01*
X109408629Y-110797490D01*
X109346463Y-110766033D01*
X109294736Y-110712724D01*
X109252581Y-110632083D01*
X109000767Y-109935380D01*
X108748953Y-110632083D01*
X108709330Y-110712203D01*
X108658585Y-110765486D01*
X108595700Y-110797255D01*
X108516678Y-110808426D01*
X108442538Y-110796790D01*
X108378070Y-110762264D01*
X108326710Y-110708338D01*
X108290020Y-110634891D01*
X107831088Y-109275069D01*
X107818345Y-109227822D01*
X107814357Y-109185554D01*
X107821427Y-109124608D01*
X107841874Y-109072096D01*
X107875907Y-109026064D01*
X107920602Y-108990884D01*
X107974720Y-108969326D01*
X108041015Y-108961706D01*
X108110915Y-108970884D01*
X108173883Y-108998098D01*
X108223665Y-109044312D01*
X108256437Y-109115579D01*
X108530600Y-110120027D01*
X108776919Y-109314270D01*
X108811543Y-109243400D01*
X108863625Y-109189706D01*
X108928837Y-109155034D01*
X109000767Y-109143545D01*
X109075107Y-109154827D01*
X109140596Y-109188363D01*
X109192005Y-109240945D01*
X109224616Y-109311461D01*
X109473621Y-110125645D01*
X109753401Y-109118387D01*
X109784437Y-109044909D01*
X109834490Y-108998098D01*
X109898408Y-108970748D01*
X109966015Y-108961706D01*
G37*
G36*
X111358077Y-110567725D02*
G01*
X111350755Y-110632353D01*
X111329740Y-110687142D01*
X111295062Y-110734298D01*
X111249571Y-110770604D01*
X111196712Y-110792421D01*
X111134228Y-110800000D01*
X111071741Y-110792424D01*
X111018838Y-110770608D01*
X110973272Y-110734298D01*
X110938666Y-110687150D01*
X110917690Y-110632362D01*
X110910380Y-110567725D01*
X110910380Y-110094870D01*
X110781756Y-110053700D01*
X110675991Y-109996763D01*
X110589543Y-109924543D01*
X110520080Y-109836095D01*
X110451826Y-109699788D01*
X110409997Y-109547549D01*
X110395516Y-109375819D01*
X110395516Y-109193981D01*
X110402829Y-109129347D01*
X110423807Y-109074602D01*
X110458408Y-109027529D01*
X110503983Y-108991146D01*
X110556886Y-108969293D01*
X110619364Y-108961706D01*
X110681840Y-108969296D01*
X110734698Y-108991151D01*
X110780198Y-109027529D01*
X110814872Y-109074611D01*
X110835888Y-109129355D01*
X110843213Y-109193981D01*
X110843213Y-109415020D01*
X110852112Y-109503608D01*
X110877141Y-109576159D01*
X110917341Y-109636060D01*
X110972147Y-109681331D01*
X111042814Y-109709694D01*
X111134228Y-109719958D01*
X111225756Y-109709720D01*
X111296913Y-109681371D01*
X111352459Y-109636060D01*
X111393509Y-109576051D01*
X111419001Y-109503502D01*
X111428053Y-109415020D01*
X111428053Y-109193981D01*
X111435365Y-109129347D01*
X111456343Y-109074602D01*
X111490945Y-109027529D01*
X111536520Y-108991146D01*
X111589422Y-108969293D01*
X111651901Y-108961706D01*
X111714376Y-108969296D01*
X111767235Y-108991151D01*
X111812735Y-109027529D01*
X111847409Y-109074611D01*
X111868425Y-109129355D01*
X111875750Y-109193981D01*
X111875750Y-109375819D01*
X111861049Y-109545539D01*
X111818387Y-109697386D01*
X111748377Y-109834752D01*
X111677614Y-109924092D01*
X111590593Y-109996772D01*
X111485176Y-110053818D01*
X111358077Y-110094870D01*
X111358077Y-110567725D01*
G37*
G36*
X112517131Y-109465334D02*
G01*
X112525320Y-109509394D01*
X112549820Y-109546522D01*
X112594068Y-109578663D01*
X112682836Y-109617809D01*
X112835990Y-109669644D01*
X113014198Y-109730623D01*
X113142393Y-109784316D01*
X113217452Y-109827270D01*
X113286311Y-109882859D01*
X113349511Y-109952233D01*
X113397223Y-110031116D01*
X113427074Y-110125859D01*
X113437683Y-110240439D01*
X113427398Y-110353282D01*
X113397454Y-110454644D01*
X113348046Y-110546842D01*
X113281519Y-110627805D01*
X113199626Y-110695665D01*
X113100383Y-110751029D01*
X112992850Y-110789837D01*
X112872799Y-110813959D01*
X112738171Y-110822348D01*
X112592345Y-110813578D01*
X112459537Y-110788142D01*
X112337979Y-110746877D01*
X112220553Y-110690918D01*
X112134969Y-110637755D01*
X112074930Y-110587386D01*
X112033971Y-110538886D01*
X112010251Y-110486335D01*
X112002267Y-110427896D01*
X112009296Y-110368858D01*
X112029695Y-110317750D01*
X112063817Y-110272679D01*
X112108106Y-110237583D01*
X112157847Y-110216788D01*
X112214881Y-110209665D01*
X112271766Y-110217917D01*
X112326866Y-110243248D01*
X112400872Y-110300523D01*
X112469220Y-110345074D01*
X112557554Y-110385886D01*
X112653066Y-110413177D01*
X112752093Y-110422278D01*
X112855489Y-110409521D01*
X112924162Y-110376116D01*
X112969801Y-110323782D01*
X112984368Y-110262787D01*
X112976205Y-110218650D01*
X112951710Y-110181062D01*
X112907431Y-110148115D01*
X112818234Y-110108006D01*
X112662578Y-110055669D01*
X112486668Y-109997442D01*
X112357519Y-109945272D01*
X112246204Y-109877856D01*
X112150523Y-109782972D01*
X112103685Y-109706751D01*
X112074296Y-109614375D01*
X112063817Y-109501727D01*
X112074396Y-109387095D01*
X112104871Y-109286833D01*
X112154675Y-109198133D01*
X112221700Y-109120660D01*
X112302721Y-109056502D01*
X112399528Y-109005059D01*
X112503876Y-108968840D01*
X112614496Y-108946842D01*
X112732554Y-108939357D01*
X112892485Y-108952656D01*
X113047260Y-108992480D01*
X113188824Y-109054548D01*
X113289305Y-109124005D01*
X113337354Y-109175055D01*
X113364403Y-109228509D01*
X113373325Y-109286304D01*
X113366470Y-109343527D01*
X113346538Y-109393280D01*
X113313119Y-109437369D01*
X113269761Y-109471542D01*
X113220488Y-109491906D01*
X113163398Y-109498918D01*
X113108545Y-109490843D01*
X113051535Y-109465334D01*
X112982903Y-109415020D01*
X112928165Y-109379947D01*
X112865422Y-109352006D01*
X112798290Y-109334204D01*
X112726936Y-109328192D01*
X112633500Y-109338723D01*
X112571598Y-109366050D01*
X112530479Y-109410232D01*
X112517131Y-109465334D01*
G37*
G36*
X113875122Y-108961706D02*
G01*
X113937597Y-108969296D01*
X113990455Y-108991151D01*
X114035956Y-109027529D01*
X114070629Y-109074611D01*
X114091645Y-109129355D01*
X114098970Y-109193981D01*
X114098970Y-110567725D01*
X114091648Y-110632353D01*
X114070634Y-110687142D01*
X114035956Y-110734298D01*
X113990464Y-110770604D01*
X113937605Y-110792421D01*
X113875122Y-110800000D01*
X113812634Y-110792424D01*
X113759732Y-110770608D01*
X113714166Y-110734298D01*
X113679560Y-110687150D01*
X113658583Y-110632362D01*
X113651273Y-110567725D01*
X113651273Y-109193981D01*
X113658586Y-109129347D01*
X113679564Y-109074602D01*
X113714166Y-109027529D01*
X113759741Y-108991146D01*
X113812643Y-108969293D01*
X113875122Y-108961706D01*
G37*
G36*
X109093091Y-112537128D02*
G01*
X109086206Y-112594726D01*
X109065125Y-112651800D01*
X108385153Y-114042519D01*
X108352746Y-114092044D01*
X108305408Y-114129225D01*
X108249704Y-114152521D01*
X108194888Y-114160000D01*
X108139653Y-114152995D01*
X108090295Y-114132333D01*
X108045167Y-114097107D01*
X108009941Y-114051979D01*
X107989279Y-114002621D01*
X107982274Y-113947386D01*
X107988622Y-113896053D01*
X108007431Y-113849445D01*
X108581036Y-112724584D01*
X107993387Y-112724584D01*
X107930198Y-112718040D01*
X107878821Y-112699662D01*
X107836706Y-112670118D01*
X107804552Y-112630339D01*
X107784904Y-112582158D01*
X107777965Y-112523084D01*
X107784904Y-112464096D01*
X107804551Y-112415996D01*
X107836706Y-112376294D01*
X107878830Y-112346679D01*
X107930207Y-112328263D01*
X107993387Y-112321706D01*
X108869242Y-112321706D01*
X108953301Y-112336103D01*
X109025924Y-112379103D01*
X109062758Y-112421350D01*
X109085170Y-112473057D01*
X109093091Y-112537128D01*
G37*
G36*
X110380861Y-113754312D02*
G01*
X110438234Y-113760920D01*
X110487522Y-113780005D01*
X110530582Y-113811709D01*
X110563851Y-113853172D01*
X110583842Y-113901409D01*
X110590788Y-113958499D01*
X110583916Y-114013808D01*
X110563996Y-114061247D01*
X110530582Y-114102725D01*
X110487530Y-114134357D01*
X110438242Y-114153403D01*
X110380861Y-114160000D01*
X109437962Y-114160000D01*
X109372903Y-114153335D01*
X109319109Y-114134499D01*
X109274197Y-114104068D01*
X109239666Y-114063095D01*
X109218690Y-114013602D01*
X109211304Y-113953004D01*
X109217770Y-113899435D01*
X109236461Y-113853597D01*
X109267250Y-113812757D01*
X109314863Y-113771043D01*
X109991905Y-113270223D01*
X110072764Y-113199849D01*
X110124895Y-113134546D01*
X110157058Y-113061284D01*
X110168248Y-112973590D01*
X110158992Y-112889095D01*
X110133070Y-112821348D01*
X110091311Y-112766594D01*
X110035480Y-112726182D01*
X109962964Y-112700407D01*
X109868806Y-112691001D01*
X109794226Y-112697789D01*
X109730571Y-112717132D01*
X109675732Y-112748398D01*
X109631828Y-112791415D01*
X109606234Y-112841433D01*
X109597452Y-112900928D01*
X109610414Y-112981784D01*
X109650575Y-113060418D01*
X109678189Y-113115210D01*
X109686967Y-113169473D01*
X109679955Y-113226562D01*
X109659591Y-113275836D01*
X109625418Y-113319193D01*
X109581329Y-113352612D01*
X109531577Y-113372545D01*
X109474354Y-113379399D01*
X109411679Y-113369590D01*
X109357463Y-113340543D01*
X109309246Y-113289762D01*
X109251276Y-113212530D01*
X109208496Y-113115006D01*
X109182866Y-113011268D01*
X109174912Y-112920467D01*
X109185089Y-112805604D01*
X109214925Y-112700445D01*
X109264427Y-112602951D01*
X109331431Y-112516335D01*
X109414702Y-112442846D01*
X109516242Y-112381789D01*
X109627055Y-112338381D01*
X109751277Y-112311426D01*
X109891277Y-112302044D01*
X110027463Y-112311237D01*
X110148884Y-112337708D01*
X110257763Y-112380446D01*
X110357093Y-112440825D01*
X110438523Y-112514684D01*
X110503960Y-112602951D01*
X110551507Y-112702190D01*
X110580687Y-112812792D01*
X110590788Y-112937198D01*
X110579739Y-113068756D01*
X110548119Y-113182907D01*
X110496999Y-113282801D01*
X110428328Y-113373236D01*
X110341846Y-113459422D01*
X110235415Y-113541577D01*
X109922051Y-113754312D01*
X110380861Y-113754312D01*
G37*
G36*
X112024005Y-112537128D02*
G01*
X112017120Y-112594726D01*
X111996039Y-112651800D01*
X111316067Y-114042519D01*
X111283660Y-114092044D01*
X111236322Y-114129225D01*
X111180618Y-114152521D01*
X111125802Y-114160000D01*
X111070567Y-114152995D01*
X111021209Y-114132333D01*
X110976081Y-114097107D01*
X110940855Y-114051979D01*
X110920193Y-114002621D01*
X110913189Y-113947386D01*
X110919536Y-113896053D01*
X110938346Y-113849445D01*
X111511950Y-112724584D01*
X110924302Y-112724584D01*
X110861113Y-112718040D01*
X110809735Y-112699662D01*
X110767620Y-112670118D01*
X110735467Y-112630339D01*
X110715818Y-112582158D01*
X110708879Y-112523084D01*
X110715818Y-112464096D01*
X110735465Y-112415996D01*
X110767620Y-112376294D01*
X110809745Y-112346679D01*
X110861122Y-112328263D01*
X110924302Y-112321706D01*
X111800157Y-112321706D01*
X111884215Y-112336103D01*
X111956838Y-112379103D01*
X111993672Y-112421350D01*
X112016084Y-112473057D01*
X112024005Y-112537128D01*
G37*
D11*
X154586779Y-123369819D02*
X154586779Y-122703152D01*
X154586779Y-122893628D02*
X154634398Y-122798390D01*
X154634398Y-122798390D02*
X154682017Y-122750771D01*
X154682017Y-122750771D02*
X154777255Y-122703152D01*
X154777255Y-122703152D02*
X154872493Y-122703152D01*
X155205827Y-123369819D02*
X155205827Y-122703152D01*
X155205827Y-122893628D02*
X155253446Y-122798390D01*
X155253446Y-122798390D02*
X155301065Y-122750771D01*
X155301065Y-122750771D02*
X155396303Y-122703152D01*
X155396303Y-122703152D02*
X155491541Y-122703152D01*
X156205827Y-123322200D02*
X156110589Y-123369819D01*
X156110589Y-123369819D02*
X155920113Y-123369819D01*
X155920113Y-123369819D02*
X155824875Y-123322200D01*
X155824875Y-123322200D02*
X155777256Y-123226961D01*
X155777256Y-123226961D02*
X155777256Y-122846009D01*
X155777256Y-122846009D02*
X155824875Y-122750771D01*
X155824875Y-122750771D02*
X155920113Y-122703152D01*
X155920113Y-122703152D02*
X156110589Y-122703152D01*
X156110589Y-122703152D02*
X156205827Y-122750771D01*
X156205827Y-122750771D02*
X156253446Y-122846009D01*
X156253446Y-122846009D02*
X156253446Y-122941247D01*
X156253446Y-122941247D02*
X155777256Y-123036485D01*
X156586780Y-123369819D02*
X157110589Y-122703152D01*
X156586780Y-122703152D02*
X157110589Y-123369819D01*
X158253447Y-123369819D02*
X158253447Y-122369819D01*
X158348685Y-122988866D02*
X158634399Y-123369819D01*
X158634399Y-122703152D02*
X158253447Y-123084104D01*
X159443923Y-123322200D02*
X159348685Y-123369819D01*
X159348685Y-123369819D02*
X159158209Y-123369819D01*
X159158209Y-123369819D02*
X159062971Y-123322200D01*
X159062971Y-123322200D02*
X159015352Y-123226961D01*
X159015352Y-123226961D02*
X159015352Y-122846009D01*
X159015352Y-122846009D02*
X159062971Y-122750771D01*
X159062971Y-122750771D02*
X159158209Y-122703152D01*
X159158209Y-122703152D02*
X159348685Y-122703152D01*
X159348685Y-122703152D02*
X159443923Y-122750771D01*
X159443923Y-122750771D02*
X159491542Y-122846009D01*
X159491542Y-122846009D02*
X159491542Y-122941247D01*
X159491542Y-122941247D02*
X159015352Y-123036485D01*
X159824876Y-122703152D02*
X160062971Y-123369819D01*
X160301066Y-122703152D02*
X160062971Y-123369819D01*
X160062971Y-123369819D02*
X159967733Y-123607914D01*
X159967733Y-123607914D02*
X159920114Y-123655533D01*
X159920114Y-123655533D02*
X159824876Y-123703152D01*
X160682019Y-122703152D02*
X160682019Y-123703152D01*
X160682019Y-122750771D02*
X160777257Y-122703152D01*
X160777257Y-122703152D02*
X160967733Y-122703152D01*
X160967733Y-122703152D02*
X161062971Y-122750771D01*
X161062971Y-122750771D02*
X161110590Y-122798390D01*
X161110590Y-122798390D02*
X161158209Y-122893628D01*
X161158209Y-122893628D02*
X161158209Y-123179342D01*
X161158209Y-123179342D02*
X161110590Y-123274580D01*
X161110590Y-123274580D02*
X161062971Y-123322200D01*
X161062971Y-123322200D02*
X160967733Y-123369819D01*
X160967733Y-123369819D02*
X160777257Y-123369819D01*
X160777257Y-123369819D02*
X160682019Y-123322200D01*
X162015352Y-123369819D02*
X162015352Y-122846009D01*
X162015352Y-122846009D02*
X161967733Y-122750771D01*
X161967733Y-122750771D02*
X161872495Y-122703152D01*
X161872495Y-122703152D02*
X161682019Y-122703152D01*
X161682019Y-122703152D02*
X161586781Y-122750771D01*
X162015352Y-123322200D02*
X161920114Y-123369819D01*
X161920114Y-123369819D02*
X161682019Y-123369819D01*
X161682019Y-123369819D02*
X161586781Y-123322200D01*
X161586781Y-123322200D02*
X161539162Y-123226961D01*
X161539162Y-123226961D02*
X161539162Y-123131723D01*
X161539162Y-123131723D02*
X161586781Y-123036485D01*
X161586781Y-123036485D02*
X161682019Y-122988866D01*
X161682019Y-122988866D02*
X161920114Y-122988866D01*
X161920114Y-122988866D02*
X162015352Y-122941247D01*
X162920114Y-123369819D02*
X162920114Y-122369819D01*
X162920114Y-123322200D02*
X162824876Y-123369819D01*
X162824876Y-123369819D02*
X162634400Y-123369819D01*
X162634400Y-123369819D02*
X162539162Y-123322200D01*
X162539162Y-123322200D02*
X162491543Y-123274580D01*
X162491543Y-123274580D02*
X162443924Y-123179342D01*
X162443924Y-123179342D02*
X162443924Y-122893628D01*
X162443924Y-122893628D02*
X162491543Y-122798390D01*
X162491543Y-122798390D02*
X162539162Y-122750771D01*
X162539162Y-122750771D02*
X162634400Y-122703152D01*
X162634400Y-122703152D02*
X162824876Y-122703152D01*
X162824876Y-122703152D02*
X162920114Y-122750771D01*
X163348686Y-123322200D02*
X163443924Y-123369819D01*
X163443924Y-123369819D02*
X163634400Y-123369819D01*
X163634400Y-123369819D02*
X163729638Y-123322200D01*
X163729638Y-123322200D02*
X163777257Y-123226961D01*
X163777257Y-123226961D02*
X163777257Y-123179342D01*
X163777257Y-123179342D02*
X163729638Y-123084104D01*
X163729638Y-123084104D02*
X163634400Y-123036485D01*
X163634400Y-123036485D02*
X163491543Y-123036485D01*
X163491543Y-123036485D02*
X163396305Y-122988866D01*
X163396305Y-122988866D02*
X163348686Y-122893628D01*
X163348686Y-122893628D02*
X163348686Y-122846009D01*
X163348686Y-122846009D02*
X163396305Y-122750771D01*
X163396305Y-122750771D02*
X163491543Y-122703152D01*
X163491543Y-122703152D02*
X163634400Y-122703152D01*
X163634400Y-122703152D02*
X163729638Y-122750771D01*
X164872496Y-122703152D02*
X165110591Y-123369819D01*
X165110591Y-123369819D02*
X165348686Y-122703152D01*
X165634401Y-122369819D02*
X166253448Y-122369819D01*
X166253448Y-122369819D02*
X165920115Y-122750771D01*
X165920115Y-122750771D02*
X166062972Y-122750771D01*
X166062972Y-122750771D02*
X166158210Y-122798390D01*
X166158210Y-122798390D02*
X166205829Y-122846009D01*
X166205829Y-122846009D02*
X166253448Y-122941247D01*
X166253448Y-122941247D02*
X166253448Y-123179342D01*
X166253448Y-123179342D02*
X166205829Y-123274580D01*
X166205829Y-123274580D02*
X166158210Y-123322200D01*
X166158210Y-123322200D02*
X166062972Y-123369819D01*
X166062972Y-123369819D02*
X165777258Y-123369819D01*
X165777258Y-123369819D02*
X165682020Y-123322200D01*
X165682020Y-123322200D02*
X165634401Y-123274580D01*
X166682020Y-123274580D02*
X166729639Y-123322200D01*
X166729639Y-123322200D02*
X166682020Y-123369819D01*
X166682020Y-123369819D02*
X166634401Y-123322200D01*
X166634401Y-123322200D02*
X166682020Y-123274580D01*
X166682020Y-123274580D02*
X166682020Y-123369819D01*
X167348686Y-122369819D02*
X167443924Y-122369819D01*
X167443924Y-122369819D02*
X167539162Y-122417438D01*
X167539162Y-122417438D02*
X167586781Y-122465057D01*
X167586781Y-122465057D02*
X167634400Y-122560295D01*
X167634400Y-122560295D02*
X167682019Y-122750771D01*
X167682019Y-122750771D02*
X167682019Y-122988866D01*
X167682019Y-122988866D02*
X167634400Y-123179342D01*
X167634400Y-123179342D02*
X167586781Y-123274580D01*
X167586781Y-123274580D02*
X167539162Y-123322200D01*
X167539162Y-123322200D02*
X167443924Y-123369819D01*
X167443924Y-123369819D02*
X167348686Y-123369819D01*
X167348686Y-123369819D02*
X167253448Y-123322200D01*
X167253448Y-123322200D02*
X167205829Y-123274580D01*
X167205829Y-123274580D02*
X167158210Y-123179342D01*
X167158210Y-123179342D02*
X167110591Y-122988866D01*
X167110591Y-122988866D02*
X167110591Y-122750771D01*
X167110591Y-122750771D02*
X167158210Y-122560295D01*
X167158210Y-122560295D02*
X167205829Y-122465057D01*
X167205829Y-122465057D02*
X167253448Y-122417438D01*
X167253448Y-122417438D02*
X167348686Y-122369819D01*
X168872496Y-123369819D02*
X168872496Y-122369819D01*
X168872496Y-122846009D02*
X169443924Y-122846009D01*
X169443924Y-123369819D02*
X169443924Y-122369819D01*
X169920115Y-122846009D02*
X170253448Y-122846009D01*
X170396305Y-123369819D02*
X169920115Y-123369819D01*
X169920115Y-123369819D02*
X169920115Y-122369819D01*
X169920115Y-122369819D02*
X170396305Y-122369819D01*
X141238095Y-107254819D02*
X141238095Y-108064342D01*
X141238095Y-108064342D02*
X141285714Y-108159580D01*
X141285714Y-108159580D02*
X141333333Y-108207200D01*
X141333333Y-108207200D02*
X141428571Y-108254819D01*
X141428571Y-108254819D02*
X141619047Y-108254819D01*
X141619047Y-108254819D02*
X141714285Y-108207200D01*
X141714285Y-108207200D02*
X141761904Y-108159580D01*
X141761904Y-108159580D02*
X141809523Y-108064342D01*
X141809523Y-108064342D02*
X141809523Y-107254819D01*
X142238095Y-107350057D02*
X142285714Y-107302438D01*
X142285714Y-107302438D02*
X142380952Y-107254819D01*
X142380952Y-107254819D02*
X142619047Y-107254819D01*
X142619047Y-107254819D02*
X142714285Y-107302438D01*
X142714285Y-107302438D02*
X142761904Y-107350057D01*
X142761904Y-107350057D02*
X142809523Y-107445295D01*
X142809523Y-107445295D02*
X142809523Y-107540533D01*
X142809523Y-107540533D02*
X142761904Y-107683390D01*
X142761904Y-107683390D02*
X142190476Y-108254819D01*
X142190476Y-108254819D02*
X142809523Y-108254819D01*
X121666667Y-100533200D02*
X121809524Y-100580819D01*
X121809524Y-100580819D02*
X122047619Y-100580819D01*
X122047619Y-100580819D02*
X122142857Y-100533200D01*
X122142857Y-100533200D02*
X122190476Y-100485580D01*
X122190476Y-100485580D02*
X122238095Y-100390342D01*
X122238095Y-100390342D02*
X122238095Y-100295104D01*
X122238095Y-100295104D02*
X122190476Y-100199866D01*
X122190476Y-100199866D02*
X122142857Y-100152247D01*
X122142857Y-100152247D02*
X122047619Y-100104628D01*
X122047619Y-100104628D02*
X121857143Y-100057009D01*
X121857143Y-100057009D02*
X121761905Y-100009390D01*
X121761905Y-100009390D02*
X121714286Y-99961771D01*
X121714286Y-99961771D02*
X121666667Y-99866533D01*
X121666667Y-99866533D02*
X121666667Y-99771295D01*
X121666667Y-99771295D02*
X121714286Y-99676057D01*
X121714286Y-99676057D02*
X121761905Y-99628438D01*
X121761905Y-99628438D02*
X121857143Y-99580819D01*
X121857143Y-99580819D02*
X122095238Y-99580819D01*
X122095238Y-99580819D02*
X122238095Y-99628438D01*
X122571429Y-99580819D02*
X122809524Y-100580819D01*
X122809524Y-100580819D02*
X123000000Y-99866533D01*
X123000000Y-99866533D02*
X123190476Y-100580819D01*
X123190476Y-100580819D02*
X123428572Y-99580819D01*
X124333333Y-100580819D02*
X123761905Y-100580819D01*
X124047619Y-100580819D02*
X124047619Y-99580819D01*
X124047619Y-99580819D02*
X123952381Y-99723676D01*
X123952381Y-99723676D02*
X123857143Y-99818914D01*
X123857143Y-99818914D02*
X123761905Y-99866533D01*
X137564047Y-86629819D02*
X137230714Y-86153628D01*
X136992619Y-86629819D02*
X136992619Y-85629819D01*
X136992619Y-85629819D02*
X137373571Y-85629819D01*
X137373571Y-85629819D02*
X137468809Y-85677438D01*
X137468809Y-85677438D02*
X137516428Y-85725057D01*
X137516428Y-85725057D02*
X137564047Y-85820295D01*
X137564047Y-85820295D02*
X137564047Y-85963152D01*
X137564047Y-85963152D02*
X137516428Y-86058390D01*
X137516428Y-86058390D02*
X137468809Y-86106009D01*
X137468809Y-86106009D02*
X137373571Y-86153628D01*
X137373571Y-86153628D02*
X136992619Y-86153628D01*
X137992619Y-86629819D02*
X137992619Y-85629819D01*
X137992619Y-85629819D02*
X138373571Y-85629819D01*
X138373571Y-85629819D02*
X138468809Y-85677438D01*
X138468809Y-85677438D02*
X138516428Y-85725057D01*
X138516428Y-85725057D02*
X138564047Y-85820295D01*
X138564047Y-85820295D02*
X138564047Y-85963152D01*
X138564047Y-85963152D02*
X138516428Y-86058390D01*
X138516428Y-86058390D02*
X138468809Y-86106009D01*
X138468809Y-86106009D02*
X138373571Y-86153628D01*
X138373571Y-86153628D02*
X137992619Y-86153628D01*
X138945000Y-85725057D02*
X138992619Y-85677438D01*
X138992619Y-85677438D02*
X139087857Y-85629819D01*
X139087857Y-85629819D02*
X139325952Y-85629819D01*
X139325952Y-85629819D02*
X139421190Y-85677438D01*
X139421190Y-85677438D02*
X139468809Y-85725057D01*
X139468809Y-85725057D02*
X139516428Y-85820295D01*
X139516428Y-85820295D02*
X139516428Y-85915533D01*
X139516428Y-85915533D02*
X139468809Y-86058390D01*
X139468809Y-86058390D02*
X138897381Y-86629819D01*
X138897381Y-86629819D02*
X139516428Y-86629819D01*
X140135476Y-85629819D02*
X140230714Y-85629819D01*
X140230714Y-85629819D02*
X140325952Y-85677438D01*
X140325952Y-85677438D02*
X140373571Y-85725057D01*
X140373571Y-85725057D02*
X140421190Y-85820295D01*
X140421190Y-85820295D02*
X140468809Y-86010771D01*
X140468809Y-86010771D02*
X140468809Y-86248866D01*
X140468809Y-86248866D02*
X140421190Y-86439342D01*
X140421190Y-86439342D02*
X140373571Y-86534580D01*
X140373571Y-86534580D02*
X140325952Y-86582200D01*
X140325952Y-86582200D02*
X140230714Y-86629819D01*
X140230714Y-86629819D02*
X140135476Y-86629819D01*
X140135476Y-86629819D02*
X140040238Y-86582200D01*
X140040238Y-86582200D02*
X139992619Y-86534580D01*
X139992619Y-86534580D02*
X139945000Y-86439342D01*
X139945000Y-86439342D02*
X139897381Y-86248866D01*
X139897381Y-86248866D02*
X139897381Y-86010771D01*
X139897381Y-86010771D02*
X139945000Y-85820295D01*
X139945000Y-85820295D02*
X139992619Y-85725057D01*
X139992619Y-85725057D02*
X140040238Y-85677438D01*
X140040238Y-85677438D02*
X140135476Y-85629819D01*
X141325952Y-85963152D02*
X141325952Y-86629819D01*
X141087857Y-85582200D02*
X140849762Y-86296485D01*
X140849762Y-86296485D02*
X141468809Y-86296485D01*
X142040238Y-85629819D02*
X142135476Y-85629819D01*
X142135476Y-85629819D02*
X142230714Y-85677438D01*
X142230714Y-85677438D02*
X142278333Y-85725057D01*
X142278333Y-85725057D02*
X142325952Y-85820295D01*
X142325952Y-85820295D02*
X142373571Y-86010771D01*
X142373571Y-86010771D02*
X142373571Y-86248866D01*
X142373571Y-86248866D02*
X142325952Y-86439342D01*
X142325952Y-86439342D02*
X142278333Y-86534580D01*
X142278333Y-86534580D02*
X142230714Y-86582200D01*
X142230714Y-86582200D02*
X142135476Y-86629819D01*
X142135476Y-86629819D02*
X142040238Y-86629819D01*
X142040238Y-86629819D02*
X141945000Y-86582200D01*
X141945000Y-86582200D02*
X141897381Y-86534580D01*
X141897381Y-86534580D02*
X141849762Y-86439342D01*
X141849762Y-86439342D02*
X141802143Y-86248866D01*
X141802143Y-86248866D02*
X141802143Y-86010771D01*
X141802143Y-86010771D02*
X141849762Y-85820295D01*
X141849762Y-85820295D02*
X141897381Y-85725057D01*
X141897381Y-85725057D02*
X141945000Y-85677438D01*
X141945000Y-85677438D02*
X142040238Y-85629819D01*
X142802143Y-86248866D02*
X143564048Y-86248866D01*
X143945000Y-85629819D02*
X144611666Y-85629819D01*
X144611666Y-85629819D02*
X143945000Y-86629819D01*
X143945000Y-86629819D02*
X144611666Y-86629819D01*
X145373571Y-86582200D02*
X145278333Y-86629819D01*
X145278333Y-86629819D02*
X145087857Y-86629819D01*
X145087857Y-86629819D02*
X144992619Y-86582200D01*
X144992619Y-86582200D02*
X144945000Y-86486961D01*
X144945000Y-86486961D02*
X144945000Y-86106009D01*
X144945000Y-86106009D02*
X144992619Y-86010771D01*
X144992619Y-86010771D02*
X145087857Y-85963152D01*
X145087857Y-85963152D02*
X145278333Y-85963152D01*
X145278333Y-85963152D02*
X145373571Y-86010771D01*
X145373571Y-86010771D02*
X145421190Y-86106009D01*
X145421190Y-86106009D02*
X145421190Y-86201247D01*
X145421190Y-86201247D02*
X144945000Y-86296485D01*
X145849762Y-86629819D02*
X145849762Y-85963152D01*
X145849762Y-86153628D02*
X145897381Y-86058390D01*
X145897381Y-86058390D02*
X145945000Y-86010771D01*
X145945000Y-86010771D02*
X146040238Y-85963152D01*
X146040238Y-85963152D02*
X146135476Y-85963152D01*
X146611667Y-86629819D02*
X146516429Y-86582200D01*
X146516429Y-86582200D02*
X146468810Y-86534580D01*
X146468810Y-86534580D02*
X146421191Y-86439342D01*
X146421191Y-86439342D02*
X146421191Y-86153628D01*
X146421191Y-86153628D02*
X146468810Y-86058390D01*
X146468810Y-86058390D02*
X146516429Y-86010771D01*
X146516429Y-86010771D02*
X146611667Y-85963152D01*
X146611667Y-85963152D02*
X146754524Y-85963152D01*
X146754524Y-85963152D02*
X146849762Y-86010771D01*
X146849762Y-86010771D02*
X146897381Y-86058390D01*
X146897381Y-86058390D02*
X146945000Y-86153628D01*
X146945000Y-86153628D02*
X146945000Y-86439342D01*
X146945000Y-86439342D02*
X146897381Y-86534580D01*
X146897381Y-86534580D02*
X146849762Y-86582200D01*
X146849762Y-86582200D02*
X146754524Y-86629819D01*
X146754524Y-86629819D02*
X146611667Y-86629819D01*
X141083333Y-118309580D02*
X141035714Y-118357200D01*
X141035714Y-118357200D02*
X140892857Y-118404819D01*
X140892857Y-118404819D02*
X140797619Y-118404819D01*
X140797619Y-118404819D02*
X140654762Y-118357200D01*
X140654762Y-118357200D02*
X140559524Y-118261961D01*
X140559524Y-118261961D02*
X140511905Y-118166723D01*
X140511905Y-118166723D02*
X140464286Y-117976247D01*
X140464286Y-117976247D02*
X140464286Y-117833390D01*
X140464286Y-117833390D02*
X140511905Y-117642914D01*
X140511905Y-117642914D02*
X140559524Y-117547676D01*
X140559524Y-117547676D02*
X140654762Y-117452438D01*
X140654762Y-117452438D02*
X140797619Y-117404819D01*
X140797619Y-117404819D02*
X140892857Y-117404819D01*
X140892857Y-117404819D02*
X141035714Y-117452438D01*
X141035714Y-117452438D02*
X141083333Y-117500057D01*
X141464286Y-117500057D02*
X141511905Y-117452438D01*
X141511905Y-117452438D02*
X141607143Y-117404819D01*
X141607143Y-117404819D02*
X141845238Y-117404819D01*
X141845238Y-117404819D02*
X141940476Y-117452438D01*
X141940476Y-117452438D02*
X141988095Y-117500057D01*
X141988095Y-117500057D02*
X142035714Y-117595295D01*
X142035714Y-117595295D02*
X142035714Y-117690533D01*
X142035714Y-117690533D02*
X141988095Y-117833390D01*
X141988095Y-117833390D02*
X141416667Y-118404819D01*
X141416667Y-118404819D02*
X142035714Y-118404819D01*
X114511905Y-82494819D02*
X114511905Y-81494819D01*
X114511905Y-81494819D02*
X114750000Y-81494819D01*
X114750000Y-81494819D02*
X114892857Y-81542438D01*
X114892857Y-81542438D02*
X114988095Y-81637676D01*
X114988095Y-81637676D02*
X115035714Y-81732914D01*
X115035714Y-81732914D02*
X115083333Y-81923390D01*
X115083333Y-81923390D02*
X115083333Y-82066247D01*
X115083333Y-82066247D02*
X115035714Y-82256723D01*
X115035714Y-82256723D02*
X114988095Y-82351961D01*
X114988095Y-82351961D02*
X114892857Y-82447200D01*
X114892857Y-82447200D02*
X114750000Y-82494819D01*
X114750000Y-82494819D02*
X114511905Y-82494819D01*
X116035714Y-82494819D02*
X115464286Y-82494819D01*
X115750000Y-82494819D02*
X115750000Y-81494819D01*
X115750000Y-81494819D02*
X115654762Y-81637676D01*
X115654762Y-81637676D02*
X115559524Y-81732914D01*
X115559524Y-81732914D02*
X115464286Y-81780533D01*
X160218095Y-107254819D02*
X160218095Y-108064342D01*
X160218095Y-108064342D02*
X160265714Y-108159580D01*
X160265714Y-108159580D02*
X160313333Y-108207200D01*
X160313333Y-108207200D02*
X160408571Y-108254819D01*
X160408571Y-108254819D02*
X160599047Y-108254819D01*
X160599047Y-108254819D02*
X160694285Y-108207200D01*
X160694285Y-108207200D02*
X160741904Y-108159580D01*
X160741904Y-108159580D02*
X160789523Y-108064342D01*
X160789523Y-108064342D02*
X160789523Y-107254819D01*
X161170476Y-107254819D02*
X161789523Y-107254819D01*
X161789523Y-107254819D02*
X161456190Y-107635771D01*
X161456190Y-107635771D02*
X161599047Y-107635771D01*
X161599047Y-107635771D02*
X161694285Y-107683390D01*
X161694285Y-107683390D02*
X161741904Y-107731009D01*
X161741904Y-107731009D02*
X161789523Y-107826247D01*
X161789523Y-107826247D02*
X161789523Y-108064342D01*
X161789523Y-108064342D02*
X161741904Y-108159580D01*
X161741904Y-108159580D02*
X161694285Y-108207200D01*
X161694285Y-108207200D02*
X161599047Y-108254819D01*
X161599047Y-108254819D02*
X161313333Y-108254819D01*
X161313333Y-108254819D02*
X161218095Y-108207200D01*
X161218095Y-108207200D02*
X161170476Y-108159580D01*
X168011905Y-94874819D02*
X168011905Y-93874819D01*
X168011905Y-93874819D02*
X168250000Y-93874819D01*
X168250000Y-93874819D02*
X168392857Y-93922438D01*
X168392857Y-93922438D02*
X168488095Y-94017676D01*
X168488095Y-94017676D02*
X168535714Y-94112914D01*
X168535714Y-94112914D02*
X168583333Y-94303390D01*
X168583333Y-94303390D02*
X168583333Y-94446247D01*
X168583333Y-94446247D02*
X168535714Y-94636723D01*
X168535714Y-94636723D02*
X168488095Y-94731961D01*
X168488095Y-94731961D02*
X168392857Y-94827200D01*
X168392857Y-94827200D02*
X168250000Y-94874819D01*
X168250000Y-94874819D02*
X168011905Y-94874819D01*
X168964286Y-93970057D02*
X169011905Y-93922438D01*
X169011905Y-93922438D02*
X169107143Y-93874819D01*
X169107143Y-93874819D02*
X169345238Y-93874819D01*
X169345238Y-93874819D02*
X169440476Y-93922438D01*
X169440476Y-93922438D02*
X169488095Y-93970057D01*
X169488095Y-93970057D02*
X169535714Y-94065295D01*
X169535714Y-94065295D02*
X169535714Y-94160533D01*
X169535714Y-94160533D02*
X169488095Y-94303390D01*
X169488095Y-94303390D02*
X168916667Y-94874819D01*
X168916667Y-94874819D02*
X169535714Y-94874819D01*
X160583333Y-118309580D02*
X160535714Y-118357200D01*
X160535714Y-118357200D02*
X160392857Y-118404819D01*
X160392857Y-118404819D02*
X160297619Y-118404819D01*
X160297619Y-118404819D02*
X160154762Y-118357200D01*
X160154762Y-118357200D02*
X160059524Y-118261961D01*
X160059524Y-118261961D02*
X160011905Y-118166723D01*
X160011905Y-118166723D02*
X159964286Y-117976247D01*
X159964286Y-117976247D02*
X159964286Y-117833390D01*
X159964286Y-117833390D02*
X160011905Y-117642914D01*
X160011905Y-117642914D02*
X160059524Y-117547676D01*
X160059524Y-117547676D02*
X160154762Y-117452438D01*
X160154762Y-117452438D02*
X160297619Y-117404819D01*
X160297619Y-117404819D02*
X160392857Y-117404819D01*
X160392857Y-117404819D02*
X160535714Y-117452438D01*
X160535714Y-117452438D02*
X160583333Y-117500057D01*
X160916667Y-117404819D02*
X161535714Y-117404819D01*
X161535714Y-117404819D02*
X161202381Y-117785771D01*
X161202381Y-117785771D02*
X161345238Y-117785771D01*
X161345238Y-117785771D02*
X161440476Y-117833390D01*
X161440476Y-117833390D02*
X161488095Y-117881009D01*
X161488095Y-117881009D02*
X161535714Y-117976247D01*
X161535714Y-117976247D02*
X161535714Y-118214342D01*
X161535714Y-118214342D02*
X161488095Y-118309580D01*
X161488095Y-118309580D02*
X161440476Y-118357200D01*
X161440476Y-118357200D02*
X161345238Y-118404819D01*
X161345238Y-118404819D02*
X161059524Y-118404819D01*
X161059524Y-118404819D02*
X160964286Y-118357200D01*
X160964286Y-118357200D02*
X160916667Y-118309580D01*
X140666667Y-100533200D02*
X140809524Y-100580819D01*
X140809524Y-100580819D02*
X141047619Y-100580819D01*
X141047619Y-100580819D02*
X141142857Y-100533200D01*
X141142857Y-100533200D02*
X141190476Y-100485580D01*
X141190476Y-100485580D02*
X141238095Y-100390342D01*
X141238095Y-100390342D02*
X141238095Y-100295104D01*
X141238095Y-100295104D02*
X141190476Y-100199866D01*
X141190476Y-100199866D02*
X141142857Y-100152247D01*
X141142857Y-100152247D02*
X141047619Y-100104628D01*
X141047619Y-100104628D02*
X140857143Y-100057009D01*
X140857143Y-100057009D02*
X140761905Y-100009390D01*
X140761905Y-100009390D02*
X140714286Y-99961771D01*
X140714286Y-99961771D02*
X140666667Y-99866533D01*
X140666667Y-99866533D02*
X140666667Y-99771295D01*
X140666667Y-99771295D02*
X140714286Y-99676057D01*
X140714286Y-99676057D02*
X140761905Y-99628438D01*
X140761905Y-99628438D02*
X140857143Y-99580819D01*
X140857143Y-99580819D02*
X141095238Y-99580819D01*
X141095238Y-99580819D02*
X141238095Y-99628438D01*
X141571429Y-99580819D02*
X141809524Y-100580819D01*
X141809524Y-100580819D02*
X142000000Y-99866533D01*
X142000000Y-99866533D02*
X142190476Y-100580819D01*
X142190476Y-100580819D02*
X142428572Y-99580819D01*
X142761905Y-99676057D02*
X142809524Y-99628438D01*
X142809524Y-99628438D02*
X142904762Y-99580819D01*
X142904762Y-99580819D02*
X143142857Y-99580819D01*
X143142857Y-99580819D02*
X143238095Y-99628438D01*
X143238095Y-99628438D02*
X143285714Y-99676057D01*
X143285714Y-99676057D02*
X143333333Y-99771295D01*
X143333333Y-99771295D02*
X143333333Y-99866533D01*
X143333333Y-99866533D02*
X143285714Y-100009390D01*
X143285714Y-100009390D02*
X142714286Y-100580819D01*
X142714286Y-100580819D02*
X143333333Y-100580819D01*
X159726667Y-100533200D02*
X159869524Y-100580819D01*
X159869524Y-100580819D02*
X160107619Y-100580819D01*
X160107619Y-100580819D02*
X160202857Y-100533200D01*
X160202857Y-100533200D02*
X160250476Y-100485580D01*
X160250476Y-100485580D02*
X160298095Y-100390342D01*
X160298095Y-100390342D02*
X160298095Y-100295104D01*
X160298095Y-100295104D02*
X160250476Y-100199866D01*
X160250476Y-100199866D02*
X160202857Y-100152247D01*
X160202857Y-100152247D02*
X160107619Y-100104628D01*
X160107619Y-100104628D02*
X159917143Y-100057009D01*
X159917143Y-100057009D02*
X159821905Y-100009390D01*
X159821905Y-100009390D02*
X159774286Y-99961771D01*
X159774286Y-99961771D02*
X159726667Y-99866533D01*
X159726667Y-99866533D02*
X159726667Y-99771295D01*
X159726667Y-99771295D02*
X159774286Y-99676057D01*
X159774286Y-99676057D02*
X159821905Y-99628438D01*
X159821905Y-99628438D02*
X159917143Y-99580819D01*
X159917143Y-99580819D02*
X160155238Y-99580819D01*
X160155238Y-99580819D02*
X160298095Y-99628438D01*
X160631429Y-99580819D02*
X160869524Y-100580819D01*
X160869524Y-100580819D02*
X161060000Y-99866533D01*
X161060000Y-99866533D02*
X161250476Y-100580819D01*
X161250476Y-100580819D02*
X161488572Y-99580819D01*
X161774286Y-99580819D02*
X162393333Y-99580819D01*
X162393333Y-99580819D02*
X162060000Y-99961771D01*
X162060000Y-99961771D02*
X162202857Y-99961771D01*
X162202857Y-99961771D02*
X162298095Y-100009390D01*
X162298095Y-100009390D02*
X162345714Y-100057009D01*
X162345714Y-100057009D02*
X162393333Y-100152247D01*
X162393333Y-100152247D02*
X162393333Y-100390342D01*
X162393333Y-100390342D02*
X162345714Y-100485580D01*
X162345714Y-100485580D02*
X162298095Y-100533200D01*
X162298095Y-100533200D02*
X162202857Y-100580819D01*
X162202857Y-100580819D02*
X161917143Y-100580819D01*
X161917143Y-100580819D02*
X161821905Y-100533200D01*
X161821905Y-100533200D02*
X161774286Y-100485580D01*
X122083333Y-118309580D02*
X122035714Y-118357200D01*
X122035714Y-118357200D02*
X121892857Y-118404819D01*
X121892857Y-118404819D02*
X121797619Y-118404819D01*
X121797619Y-118404819D02*
X121654762Y-118357200D01*
X121654762Y-118357200D02*
X121559524Y-118261961D01*
X121559524Y-118261961D02*
X121511905Y-118166723D01*
X121511905Y-118166723D02*
X121464286Y-117976247D01*
X121464286Y-117976247D02*
X121464286Y-117833390D01*
X121464286Y-117833390D02*
X121511905Y-117642914D01*
X121511905Y-117642914D02*
X121559524Y-117547676D01*
X121559524Y-117547676D02*
X121654762Y-117452438D01*
X121654762Y-117452438D02*
X121797619Y-117404819D01*
X121797619Y-117404819D02*
X121892857Y-117404819D01*
X121892857Y-117404819D02*
X122035714Y-117452438D01*
X122035714Y-117452438D02*
X122083333Y-117500057D01*
X123035714Y-118404819D02*
X122464286Y-118404819D01*
X122750000Y-118404819D02*
X122750000Y-117404819D01*
X122750000Y-117404819D02*
X122654762Y-117547676D01*
X122654762Y-117547676D02*
X122559524Y-117642914D01*
X122559524Y-117642914D02*
X122464286Y-117690533D01*
X122238095Y-107254819D02*
X122238095Y-108064342D01*
X122238095Y-108064342D02*
X122285714Y-108159580D01*
X122285714Y-108159580D02*
X122333333Y-108207200D01*
X122333333Y-108207200D02*
X122428571Y-108254819D01*
X122428571Y-108254819D02*
X122619047Y-108254819D01*
X122619047Y-108254819D02*
X122714285Y-108207200D01*
X122714285Y-108207200D02*
X122761904Y-108159580D01*
X122761904Y-108159580D02*
X122809523Y-108064342D01*
X122809523Y-108064342D02*
X122809523Y-107254819D01*
X123809523Y-108254819D02*
X123238095Y-108254819D01*
X123523809Y-108254819D02*
X123523809Y-107254819D01*
X123523809Y-107254819D02*
X123428571Y-107397676D01*
X123428571Y-107397676D02*
X123333333Y-107492914D01*
X123333333Y-107492914D02*
X123238095Y-107540533D01*
D13*
%TO.C,U2*%
X140200000Y-113210000D02*
X143800000Y-113210000D01*
X140161522Y-113198478D02*
G75*
G02*
X142000000Y-108759999I1838478J1838478D01*
G01*
X142000000Y-108760000D02*
G75*
G02*
X143838478Y-113198478I0J-2600000D01*
G01*
%TO.C,SW1*%
X116015000Y-101015000D02*
X129985000Y-101015000D01*
X116015000Y-114985000D02*
X116015000Y-101015000D01*
X129985000Y-101015000D02*
X129985000Y-114985000D01*
X129985000Y-114985000D02*
X116015000Y-114985000D01*
%TO.C,RZ1*%
X132945000Y-75175000D02*
X132945000Y-98675000D01*
X132945000Y-98675000D02*
X150945000Y-98675000D01*
X150945000Y-75175000D02*
X132945000Y-75175000D01*
X150945000Y-98675000D02*
X150945000Y-75175000D01*
%TO.C,C2*%
X140485000Y-119080000D02*
X142015000Y-119080000D01*
X142015000Y-120920000D02*
X140485000Y-120920000D01*
%TO.C,D1*%
X113870000Y-83040000D02*
X115250000Y-83040000D01*
X113870000Y-84420000D02*
X113870000Y-83040000D01*
X113870000Y-85690000D02*
X113870000Y-93420000D01*
X113870000Y-85690000D02*
X116630000Y-85690000D01*
X113870000Y-93420000D02*
X116630000Y-93420000D01*
X116630000Y-85690000D02*
X116630000Y-93420000D01*
%TO.C,U3*%
X159180000Y-113210000D02*
X162780000Y-113210000D01*
X159141522Y-113198478D02*
G75*
G02*
X160980000Y-108759999I1838478J1838478D01*
G01*
X160980000Y-108760000D02*
G75*
G02*
X162818478Y-113198478I0J-2600000D01*
G01*
%TO.C,D2*%
X167370000Y-90770000D02*
X167370000Y-83040000D01*
X170130000Y-83040000D02*
X167370000Y-83040000D01*
X170130000Y-90770000D02*
X167370000Y-90770000D01*
X170130000Y-90770000D02*
X170130000Y-83040000D01*
X170130000Y-92040000D02*
X170130000Y-93420000D01*
X170130000Y-93420000D02*
X168750000Y-93420000D01*
%TO.C,C3*%
X159985000Y-119080000D02*
X161515000Y-119080000D01*
X161515000Y-120920000D02*
X159985000Y-120920000D01*
%TO.C,SW2*%
X135015000Y-101015000D02*
X148985000Y-101015000D01*
X135015000Y-114985000D02*
X135015000Y-101015000D01*
X148985000Y-101015000D02*
X148985000Y-114985000D01*
X148985000Y-114985000D02*
X135015000Y-114985000D01*
%TO.C,SW3*%
X154075000Y-101015000D02*
X168045000Y-101015000D01*
X154075000Y-114985000D02*
X154075000Y-101015000D01*
X168045000Y-101015000D02*
X168045000Y-114985000D01*
X168045000Y-114985000D02*
X154075000Y-114985000D01*
%TO.C,C1*%
X121485000Y-119080000D02*
X123015000Y-119080000D01*
X123015000Y-120920000D02*
X121485000Y-120920000D01*
%TO.C,U1*%
X121200000Y-113210000D02*
X124800000Y-113210000D01*
X121161522Y-113198478D02*
G75*
G02*
X123000000Y-108759999I1838478J1838478D01*
G01*
X123000000Y-108760000D02*
G75*
G02*
X124838478Y-113198478I0J-2600000D01*
G01*
%TD*%
M02*
