M48
; DRILL file {KiCad 9.0.6} date 2025-12-26T19:16:35+0530
; FORMAT={-:-/ absolute / metric / decimal}
; #@! TF.CreationDate,2025-12-26T19:16:35+05:30
; #@! TF.GenerationSoftware,Kicad,Pcbnew,9.0.6
; #@! TF.FileFunction,Plated,1,2,PTH
FMAT,2
METRIC
; #@! TA.AperFunction,Plated,PTH,ViaDrill
T1C0.300
; #@! TA.AperFunction,Plated,PTH,ComponentDrill
T2C0.750
; #@! TA.AperFunction,Plated,PTH,ComponentDrill
T3C0.800
; #@! TA.AperFunction,Plated,PTH,ComponentDrill
T4C1.000
%
G90
G05
T1
X123.0Y-103.5
X132.75Y-99.75
X141.5Y-87.0
X142.0Y-103.5
X151.25Y-99.75
X161.0Y-103.5
T2
X121.73Y-111.36
X123.0Y-111.36
X124.27Y-111.36
X140.73Y-111.36
X142.0Y-111.36
X143.27Y-111.36
X159.71Y-111.36
X160.98Y-111.36
X162.25Y-111.36
T3
X121.0Y-120.0
X123.5Y-120.0
X134.325Y-76.765
X134.325Y-79.305
X134.325Y-81.845
X134.325Y-84.385
X134.325Y-86.925
X134.325Y-89.465
X134.325Y-92.005
X134.325Y-94.545
X134.325Y-97.085
X136.865Y-97.295
X139.405Y-97.295
X140.0Y-120.0
X141.945Y-97.295
X142.5Y-120.0
X144.485Y-97.295
X147.025Y-97.295
X149.565Y-76.765
X149.565Y-79.305
X149.565Y-81.845
X149.565Y-84.385
X149.565Y-86.925
X149.565Y-89.465
X149.565Y-92.005
X149.565Y-94.545
X149.565Y-97.085
X159.5Y-120.0
X162.0Y-120.0
T4
X115.25Y-84.42
X115.25Y-86.96
X115.25Y-89.5
X115.25Y-92.04
X168.75Y-84.42
X168.75Y-86.96
X168.75Y-89.5
X168.75Y-92.04
M30
