%TF.GenerationSoftware,KiCad,Pcbnew,9.0.6*%
%TF.CreationDate,2025-12-26T19:16:22+05:30*%
%TF.ProjectId,HEpad,48457061-642e-46b6-9963-61645f706362,rev?*%
%TF.SameCoordinates,Original*%
%TF.FileFunction,Copper,L1,Top*%
%TF.FilePolarity,Positive*%
%FSLAX46Y46*%
G04 Gerber Fmt 4.6, Leading zero omitted, Abs format (unit mm)*
G04 Created by KiCad (PCBNEW 9.0.6) date 2025-12-26 19:16:22*
%MOMM*%
%LPD*%
G01*
G04 APERTURE LIST*
G04 Aperture macros list*
%AMRoundRect*
0 Rectangle with rounded corners*
0 $1 Rounding radius*
0 $2 $3 $4 $5 $6 $7 $8 $9 X,Y pos of 4 corners*
0 Add a 4 corners polygon primitive as box body*
4,1,4,$2,$3,$4,$5,$6,$7,$8,$9,$2,$3,0*
0 Add four circle primitives for the rounded corners*
1,1,$1+$1,$2,$3*
1,1,$1+$1,$4,$5*
1,1,$1+$1,$6,$7*
1,1,$1+$1,$8,$9*
0 Add four rect primitives between the rounded corners*
20,1,$1+$1,$2,$3,$4,$5,0*
20,1,$1+$1,$4,$5,$6,$7,0*
20,1,$1+$1,$6,$7,$8,$9,0*
20,1,$1+$1,$8,$9,$2,$3,0*%
G04 Aperture macros list end*
%TA.AperFunction,ComponentPad*%
%ADD10R,1.050000X1.500000*%
%TD*%
%TA.AperFunction,ComponentPad*%
%ADD11O,1.050000X1.500000*%
%TD*%
%TA.AperFunction,ComponentPad*%
%ADD12RoundRect,0.400000X-0.900000X-0.400000X0.900000X-0.400000X0.900000X0.400000X-0.900000X0.400000X0*%
%TD*%
%TA.AperFunction,ComponentPad*%
%ADD13RoundRect,0.400050X-0.899950X-0.400050X0.899950X-0.400050X0.899950X0.400050X-0.899950X0.400050X0*%
%TD*%
%TA.AperFunction,ComponentPad*%
%ADD14RoundRect,0.400000X-0.400000X-0.900000X0.400000X-0.900000X0.400000X0.900000X-0.400000X0.900000X0*%
%TD*%
%TA.AperFunction,ComponentPad*%
%ADD15RoundRect,0.393700X-0.393700X-0.906300X0.393700X-0.906300X0.393700X0.906300X-0.393700X0.906300X0*%
%TD*%
%TA.AperFunction,ComponentPad*%
%ADD16C,1.600000*%
%TD*%
%TA.AperFunction,ComponentPad*%
%ADD17R,1.700000X1.700000*%
%TD*%
%TA.AperFunction,ComponentPad*%
%ADD18C,1.700000*%
%TD*%
%TA.AperFunction,ViaPad*%
%ADD19C,0.600000*%
%TD*%
%TA.AperFunction,Conductor*%
%ADD20C,0.200000*%
%TD*%
G04 APERTURE END LIST*
D10*
%TO.P,U2,1,V_{CC}*%
%TO.N,Net-(RZ1-3V3)*%
X140730000Y-111360000D03*
D11*
%TO.P,U2,2,GND*%
%TO.N,Net-(D1-Pin_3)*%
X142000000Y-111360000D03*
%TO.P,U2,3,V_{OUT}*%
%TO.N,Net-(RZ1-GP27)*%
X143270000Y-111360000D03*
%TD*%
D12*
%TO.P,RZ1,1,GP0*%
%TO.N,Net-(D2-Pin_1)*%
X150165000Y-76765000D03*
%TO.P,RZ1,2,GP1*%
%TO.N,unconnected-(RZ1-GP1-Pad2)*%
X150165000Y-79305000D03*
%TO.P,RZ1,3,GP2*%
%TO.N,unconnected-(RZ1-GP2-Pad3)*%
X150165000Y-81845000D03*
%TO.P,RZ1,4,GP3*%
%TO.N,unconnected-(RZ1-GP3-Pad4)*%
X150165000Y-84385000D03*
%TO.P,RZ1,5,GP4*%
%TO.N,unconnected-(RZ1-GP4-Pad5)*%
X150165000Y-86925000D03*
D13*
%TO.P,RZ1,6,GP5*%
%TO.N,unconnected-(RZ1-GP5-Pad6)*%
X150165000Y-89465000D03*
%TO.P,RZ1,7,GP6*%
%TO.N,unconnected-(RZ1-GP6-Pad7)*%
X150165000Y-92005000D03*
%TO.P,RZ1,8,GP7*%
%TO.N,unconnected-(RZ1-GP7-Pad8)*%
X150165000Y-94545000D03*
%TO.P,RZ1,9,GP8*%
%TO.N,unconnected-(RZ1-GP8-Pad9)*%
X150165000Y-97085000D03*
D14*
%TO.P,RZ1,10,GP9*%
%TO.N,unconnected-(RZ1-GP9-Pad10)*%
X147025000Y-97895000D03*
D15*
%TO.P,RZ1,11,GP10*%
%TO.N,unconnected-(RZ1-GP10-Pad11)*%
X144485000Y-97895000D03*
%TO.P,RZ1,12,GP11*%
%TO.N,unconnected-(RZ1-GP11-Pad12)*%
X141945000Y-97895000D03*
%TO.P,RZ1,13,GP12*%
%TO.N,unconnected-(RZ1-GP12-Pad13)*%
X139405000Y-97895000D03*
%TO.P,RZ1,14,GP13*%
%TO.N,unconnected-(RZ1-GP13-Pad14)*%
X136865000Y-97895000D03*
D13*
%TO.P,RZ1,15,GP14*%
%TO.N,unconnected-(RZ1-GP14-Pad15)*%
X133725000Y-97085000D03*
%TO.P,RZ1,16,GP15*%
%TO.N,unconnected-(RZ1-GP15-Pad16)*%
X133725000Y-94545000D03*
%TO.P,RZ1,17,GP26*%
%TO.N,Net-(RZ1-GP26)*%
X133725000Y-92005000D03*
%TO.P,RZ1,18,GP27*%
%TO.N,Net-(RZ1-GP27)*%
X133725000Y-89465000D03*
%TO.P,RZ1,19,GP28*%
%TO.N,Net-(RZ1-GP28)*%
X133725000Y-86925000D03*
%TO.P,RZ1,20,GP29*%
%TO.N,Net-(D1-Pin_1)*%
X133725000Y-84385000D03*
%TO.P,RZ1,21,3V3*%
%TO.N,Net-(RZ1-3V3)*%
X133725000Y-81845000D03*
%TO.P,RZ1,22,5V*%
%TO.N,Net-(D1-Pin_2)*%
X133725000Y-76765000D03*
%TO.P,RZ1,23,GND*%
%TO.N,Net-(D1-Pin_3)*%
X133725000Y-79305000D03*
%TD*%
D16*
%TO.P,C2,1*%
%TO.N,Net-(RZ1-3V3)*%
X140000000Y-120000000D03*
%TO.P,C2,2*%
%TO.N,Net-(D1-Pin_3)*%
X142500000Y-120000000D03*
%TD*%
D17*
%TO.P,D1,1,Pin_1*%
%TO.N,Net-(D1-Pin_1)*%
X115250000Y-84420000D03*
D18*
%TO.P,D1,2,Pin_2*%
%TO.N,Net-(D1-Pin_2)*%
X115250000Y-86960000D03*
%TO.P,D1,3,Pin_3*%
%TO.N,Net-(D1-Pin_3)*%
X115250000Y-89500000D03*
%TO.P,D1,4,Pin_4*%
%TO.N,unconnected-(D1-Pin_4-Pad4)*%
X115250000Y-92040000D03*
%TD*%
D10*
%TO.P,U3,1,V_{CC}*%
%TO.N,Net-(RZ1-3V3)*%
X159710000Y-111360000D03*
D11*
%TO.P,U3,2,GND*%
%TO.N,Net-(D1-Pin_3)*%
X160980000Y-111360000D03*
%TO.P,U3,3,V_{OUT}*%
%TO.N,Net-(RZ1-GP26)*%
X162250000Y-111360000D03*
%TD*%
D17*
%TO.P,D2,1,Pin_1*%
%TO.N,Net-(D2-Pin_1)*%
X168750000Y-92040000D03*
D18*
%TO.P,D2,2,Pin_2*%
%TO.N,Net-(D1-Pin_2)*%
X168750000Y-89500000D03*
%TO.P,D2,3,Pin_3*%
%TO.N,Net-(D1-Pin_3)*%
X168750000Y-86960000D03*
%TO.P,D2,4,Pin_4*%
%TO.N,unconnected-(D2-Pin_4-Pad4)*%
X168750000Y-84420000D03*
%TD*%
D16*
%TO.P,C3,1*%
%TO.N,Net-(RZ1-3V3)*%
X159500000Y-120000000D03*
%TO.P,C3,2*%
%TO.N,Net-(D1-Pin_3)*%
X162000000Y-120000000D03*
%TD*%
%TO.P,C1,1*%
%TO.N,Net-(RZ1-3V3)*%
X121000000Y-120000000D03*
%TO.P,C1,2*%
%TO.N,Net-(D1-Pin_3)*%
X123500000Y-120000000D03*
%TD*%
D10*
%TO.P,U1,1,V_{CC}*%
%TO.N,Net-(RZ1-3V3)*%
X121730000Y-111360000D03*
D11*
%TO.P,U1,2,GND*%
%TO.N,Net-(D1-Pin_3)*%
X123000000Y-111360000D03*
%TO.P,U1,3,V_{OUT}*%
%TO.N,Net-(RZ1-GP28)*%
X124270000Y-111360000D03*
%TD*%
D19*
%TO.N,Net-(D1-Pin_3)*%
X151250000Y-99750000D03*
X142000000Y-103500000D03*
X123000000Y-103500000D03*
X161000000Y-103500000D03*
X132750000Y-99750000D03*
X141500000Y-87000000D03*
%TD*%
D20*
%TO.N,Net-(D1-Pin_1)*%
X134325000Y-84385000D02*
X114785000Y-84385000D01*
X114785000Y-84385000D02*
X114750000Y-84420000D01*
%TD*%
%TA.AperFunction,Conductor*%
%TO.N,Net-(D1-Pin_3)*%
G36*
X174403243Y-74800669D02*
G01*
X174738405Y-74818235D01*
X174751313Y-74819592D01*
X175079587Y-74871585D01*
X175092270Y-74874280D01*
X175413332Y-74960309D01*
X175425665Y-74964316D01*
X175735971Y-75083432D01*
X175747807Y-75088701D01*
X176043977Y-75239607D01*
X176055191Y-75246083D01*
X176333943Y-75427106D01*
X176344444Y-75434735D01*
X176602749Y-75643907D01*
X176612394Y-75652592D01*
X176847407Y-75887605D01*
X176856092Y-75897250D01*
X177065264Y-76155555D01*
X177072893Y-76166056D01*
X177110066Y-76223297D01*
X177253913Y-76444802D01*
X177260395Y-76456029D01*
X177387626Y-76705733D01*
X177411293Y-76752182D01*
X177416572Y-76764039D01*
X177535681Y-77074329D01*
X177539692Y-77086673D01*
X177625717Y-77407723D01*
X177628415Y-77420419D01*
X177680407Y-77748686D01*
X177681764Y-77761594D01*
X177699330Y-78096756D01*
X177699500Y-78103246D01*
X177699500Y-120896753D01*
X177699330Y-120903243D01*
X177681764Y-121238405D01*
X177680407Y-121251313D01*
X177628415Y-121579580D01*
X177625717Y-121592276D01*
X177539692Y-121913326D01*
X177535681Y-121925670D01*
X177416572Y-122235960D01*
X177411293Y-122247817D01*
X177260399Y-122543964D01*
X177253909Y-122555204D01*
X177072893Y-122833943D01*
X177065264Y-122844444D01*
X176856092Y-123102749D01*
X176847407Y-123112394D01*
X176612394Y-123347407D01*
X176602749Y-123356092D01*
X176344444Y-123565264D01*
X176333943Y-123572893D01*
X176055204Y-123753909D01*
X176043964Y-123760399D01*
X175747817Y-123911293D01*
X175735960Y-123916572D01*
X175425670Y-124035681D01*
X175413326Y-124039692D01*
X175092276Y-124125717D01*
X175079580Y-124128415D01*
X174751313Y-124180407D01*
X174738405Y-124181764D01*
X174403244Y-124199330D01*
X174396754Y-124199500D01*
X109603246Y-124199500D01*
X109596756Y-124199330D01*
X109261594Y-124181764D01*
X109248686Y-124180407D01*
X108920419Y-124128415D01*
X108907723Y-124125717D01*
X108586673Y-124039692D01*
X108574329Y-124035681D01*
X108264039Y-123916572D01*
X108252182Y-123911293D01*
X108237853Y-123903992D01*
X107956029Y-123760395D01*
X107944802Y-123753913D01*
X107666056Y-123572893D01*
X107655555Y-123565264D01*
X107397250Y-123356092D01*
X107387605Y-123347407D01*
X107152592Y-123112394D01*
X107143907Y-123102749D01*
X106934735Y-122844444D01*
X106927106Y-122833943D01*
X106905081Y-122800028D01*
X106746083Y-122555191D01*
X106739607Y-122543977D01*
X106588701Y-122247807D01*
X106583432Y-122235971D01*
X106464316Y-121925665D01*
X106460307Y-121913326D01*
X106408562Y-121720212D01*
X106374280Y-121592270D01*
X106371584Y-121579580D01*
X106349390Y-121439454D01*
X106319592Y-121251313D01*
X106318235Y-121238405D01*
X106316471Y-121204755D01*
X106300670Y-120903243D01*
X106300500Y-120896753D01*
X106300500Y-120778711D01*
X107749500Y-120778711D01*
X107749500Y-121021288D01*
X107781161Y-121261785D01*
X107843947Y-121496104D01*
X107883783Y-121592276D01*
X107936776Y-121720212D01*
X108058064Y-121930289D01*
X108058066Y-121930292D01*
X108058067Y-121930293D01*
X108205733Y-122122736D01*
X108205739Y-122122743D01*
X108377256Y-122294260D01*
X108377262Y-122294265D01*
X108569711Y-122441936D01*
X108779788Y-122563224D01*
X109003900Y-122656054D01*
X109238211Y-122718838D01*
X109418586Y-122742584D01*
X109478711Y-122750500D01*
X109478712Y-122750500D01*
X109721289Y-122750500D01*
X109769388Y-122744167D01*
X109961789Y-122718838D01*
X110196100Y-122656054D01*
X110420212Y-122563224D01*
X110630289Y-122441936D01*
X110822738Y-122294265D01*
X110994265Y-122122738D01*
X111141936Y-121930289D01*
X111263224Y-121720212D01*
X111356054Y-121496100D01*
X111418838Y-121261789D01*
X111450500Y-121021288D01*
X111450500Y-120778712D01*
X111418838Y-120538211D01*
X111356054Y-120303900D01*
X111263224Y-120079788D01*
X111158065Y-119897648D01*
X119699500Y-119897648D01*
X119699500Y-120102351D01*
X119731522Y-120304534D01*
X119794781Y-120499223D01*
X119837248Y-120582567D01*
X119887585Y-120681359D01*
X119887715Y-120681613D01*
X120008028Y-120847213D01*
X120152786Y-120991971D01*
X120273226Y-121079474D01*
X120318390Y-121112287D01*
X120434607Y-121171503D01*
X120500776Y-121205218D01*
X120500778Y-121205218D01*
X120500781Y-121205220D01*
X120602914Y-121238405D01*
X120695465Y-121268477D01*
X120796557Y-121284488D01*
X120897648Y-121300500D01*
X120897649Y-121300500D01*
X121102351Y-121300500D01*
X121102352Y-121300500D01*
X121304534Y-121268477D01*
X121499219Y-121205220D01*
X121681610Y-121112287D01*
X121774590Y-121044732D01*
X121847213Y-120991971D01*
X121847215Y-120991968D01*
X121847219Y-120991966D01*
X121991966Y-120847219D01*
X121991968Y-120847215D01*
X121991971Y-120847213D01*
X122112286Y-120681611D01*
X122112415Y-120681359D01*
X122139795Y-120627621D01*
X122187769Y-120576826D01*
X122255589Y-120560030D01*
X122321725Y-120582567D01*
X122360765Y-120627621D01*
X122388141Y-120681350D01*
X122388147Y-120681359D01*
X122420523Y-120725921D01*
X122420524Y-120725922D01*
X123100000Y-120046446D01*
X123100000Y-120052661D01*
X123127259Y-120154394D01*
X123179920Y-120245606D01*
X123254394Y-120320080D01*
X123345606Y-120372741D01*
X123447339Y-120400000D01*
X123453553Y-120400000D01*
X122774076Y-121079474D01*
X122818650Y-121111859D01*
X123000968Y-121204755D01*
X123195582Y-121267990D01*
X123397683Y-121300000D01*
X123602317Y-121300000D01*
X123804417Y-121267990D01*
X123999031Y-121204755D01*
X124181349Y-121111859D01*
X124225921Y-121079474D01*
X123546447Y-120400000D01*
X123552661Y-120400000D01*
X123654394Y-120372741D01*
X123745606Y-120320080D01*
X123820080Y-120245606D01*
X123872741Y-120154394D01*
X123900000Y-120052661D01*
X123900000Y-120046448D01*
X124579474Y-120725922D01*
X124579474Y-120725921D01*
X124611859Y-120681349D01*
X124704755Y-120499031D01*
X124767990Y-120304417D01*
X124800000Y-120102317D01*
X124800000Y-119897682D01*
X124799995Y-119897648D01*
X138699500Y-119897648D01*
X138699500Y-120102351D01*
X138731522Y-120304534D01*
X138794781Y-120499223D01*
X138837248Y-120582567D01*
X138887585Y-120681359D01*
X138887715Y-120681613D01*
X139008028Y-120847213D01*
X139152786Y-120991971D01*
X139273226Y-121079474D01*
X139318390Y-121112287D01*
X139434607Y-121171503D01*
X139500776Y-121205218D01*
X139500778Y-121205218D01*
X139500781Y-121205220D01*
X139602914Y-121238405D01*
X139695465Y-121268477D01*
X139796557Y-121284488D01*
X139897648Y-121300500D01*
X139897649Y-121300500D01*
X140102351Y-121300500D01*
X140102352Y-121300500D01*
X140304534Y-121268477D01*
X140499219Y-121205220D01*
X140681610Y-121112287D01*
X140774590Y-121044732D01*
X140847213Y-120991971D01*
X140847215Y-120991968D01*
X140847219Y-120991966D01*
X140991966Y-120847219D01*
X140991968Y-120847215D01*
X140991971Y-120847213D01*
X141112286Y-120681611D01*
X141112415Y-120681359D01*
X141139795Y-120627621D01*
X141187769Y-120576826D01*
X141255589Y-120560030D01*
X141321725Y-120582567D01*
X141360765Y-120627621D01*
X141388141Y-120681350D01*
X141388147Y-120681359D01*
X141420523Y-120725921D01*
X141420524Y-120725922D01*
X142100000Y-120046446D01*
X142100000Y-120052661D01*
X142127259Y-120154394D01*
X142179920Y-120245606D01*
X142254394Y-120320080D01*
X142345606Y-120372741D01*
X142447339Y-120400000D01*
X142453553Y-120400000D01*
X141774076Y-121079474D01*
X141818650Y-121111859D01*
X142000968Y-121204755D01*
X142195582Y-121267990D01*
X142397683Y-121300000D01*
X142602317Y-121300000D01*
X142804417Y-121267990D01*
X142999031Y-121204755D01*
X143181349Y-121111859D01*
X143225922Y-121079474D01*
X142546447Y-120400000D01*
X142552661Y-120400000D01*
X142654394Y-120372741D01*
X142745606Y-120320080D01*
X142820080Y-120245606D01*
X142872741Y-120154394D01*
X142900000Y-120052661D01*
X142900000Y-120046448D01*
X143579474Y-120725922D01*
X143579474Y-120725921D01*
X143611859Y-120681349D01*
X143704755Y-120499031D01*
X143767990Y-120304417D01*
X143800000Y-120102317D01*
X143800000Y-119897682D01*
X143799995Y-119897648D01*
X158199500Y-119897648D01*
X158199500Y-120102351D01*
X158231522Y-120304534D01*
X158294781Y-120499223D01*
X158337248Y-120582567D01*
X158387585Y-120681359D01*
X158387715Y-120681613D01*
X158508028Y-120847213D01*
X158652786Y-120991971D01*
X158773226Y-121079474D01*
X158818390Y-121112287D01*
X158934607Y-121171503D01*
X159000776Y-121205218D01*
X159000778Y-121205218D01*
X159000781Y-121205220D01*
X159102914Y-121238405D01*
X159195465Y-121268477D01*
X159296557Y-121284488D01*
X159397648Y-121300500D01*
X159397649Y-121300500D01*
X159602351Y-121300500D01*
X159602352Y-121300500D01*
X159804534Y-121268477D01*
X159999219Y-121205220D01*
X160181610Y-121112287D01*
X160274590Y-121044732D01*
X160347213Y-120991971D01*
X160347215Y-120991968D01*
X160347219Y-120991966D01*
X160491966Y-120847219D01*
X160491968Y-120847215D01*
X160491971Y-120847213D01*
X160612286Y-120681611D01*
X160612415Y-120681359D01*
X160639795Y-120627621D01*
X160687769Y-120576826D01*
X160755589Y-120560030D01*
X160821725Y-120582567D01*
X160860765Y-120627621D01*
X160888141Y-120681350D01*
X160888147Y-120681359D01*
X160920523Y-120725921D01*
X160920524Y-120725922D01*
X161600000Y-120046446D01*
X161600000Y-120052661D01*
X161627259Y-120154394D01*
X161679920Y-120245606D01*
X161754394Y-120320080D01*
X161845606Y-120372741D01*
X161947339Y-120400000D01*
X161953553Y-120400000D01*
X161274076Y-121079474D01*
X161318650Y-121111859D01*
X161500968Y-121204755D01*
X161695582Y-121267990D01*
X161897683Y-121300000D01*
X162102317Y-121300000D01*
X162304417Y-121267990D01*
X162499031Y-121204755D01*
X162681349Y-121111859D01*
X162725921Y-121079474D01*
X162425158Y-120778711D01*
X172549500Y-120778711D01*
X172549500Y-121021288D01*
X172581161Y-121261785D01*
X172643947Y-121496104D01*
X172683783Y-121592276D01*
X172736776Y-121720212D01*
X172858064Y-121930289D01*
X172858066Y-121930292D01*
X172858067Y-121930293D01*
X173005733Y-122122736D01*
X173005739Y-122122743D01*
X173177256Y-122294260D01*
X173177262Y-122294265D01*
X173369711Y-122441936D01*
X173579788Y-122563224D01*
X173803900Y-122656054D01*
X174038211Y-122718838D01*
X174218586Y-122742584D01*
X174278711Y-122750500D01*
X174278712Y-122750500D01*
X174521289Y-122750500D01*
X174569388Y-122744167D01*
X174761789Y-122718838D01*
X174996100Y-122656054D01*
X175220212Y-122563224D01*
X175430289Y-122441936D01*
X175622738Y-122294265D01*
X175794265Y-122122738D01*
X175941936Y-121930289D01*
X176063224Y-121720212D01*
X176156054Y-121496100D01*
X176218838Y-121261789D01*
X176250500Y-121021288D01*
X176250500Y-120778712D01*
X176218838Y-120538211D01*
X176156054Y-120303900D01*
X176063224Y-120079788D01*
X175941936Y-119869711D01*
X175853450Y-119754394D01*
X175794266Y-119677263D01*
X175794260Y-119677256D01*
X175622743Y-119505739D01*
X175622736Y-119505733D01*
X175430293Y-119358067D01*
X175430292Y-119358066D01*
X175430289Y-119358064D01*
X175220212Y-119236776D01*
X175220205Y-119236773D01*
X174996104Y-119143947D01*
X174761785Y-119081161D01*
X174521289Y-119049500D01*
X174521288Y-119049500D01*
X174278712Y-119049500D01*
X174278711Y-119049500D01*
X174038214Y-119081161D01*
X173803895Y-119143947D01*
X173579794Y-119236773D01*
X173579785Y-119236777D01*
X173369706Y-119358067D01*
X173177263Y-119505733D01*
X173177256Y-119505739D01*
X173005739Y-119677256D01*
X173005733Y-119677263D01*
X172858067Y-119869706D01*
X172736777Y-120079785D01*
X172736773Y-120079794D01*
X172643947Y-120303895D01*
X172581161Y-120538214D01*
X172549500Y-120778711D01*
X162425158Y-120778711D01*
X162046447Y-120400000D01*
X162052661Y-120400000D01*
X162154394Y-120372741D01*
X162245606Y-120320080D01*
X162320080Y-120245606D01*
X162372741Y-120154394D01*
X162400000Y-120052661D01*
X162400000Y-120046447D01*
X163079474Y-120725921D01*
X163079475Y-120725921D01*
X163097026Y-120701766D01*
X163111860Y-120681348D01*
X163204755Y-120499031D01*
X163267990Y-120304417D01*
X163300000Y-120102317D01*
X163300000Y-119897682D01*
X163267990Y-119695582D01*
X163204755Y-119500968D01*
X163111859Y-119318650D01*
X163079474Y-119274077D01*
X163079474Y-119274076D01*
X162400000Y-119953551D01*
X162400000Y-119947339D01*
X162372741Y-119845606D01*
X162320080Y-119754394D01*
X162245606Y-119679920D01*
X162154394Y-119627259D01*
X162052661Y-119600000D01*
X162046446Y-119600000D01*
X162725922Y-118920524D01*
X162725921Y-118920523D01*
X162681359Y-118888147D01*
X162681350Y-118888141D01*
X162499031Y-118795244D01*
X162304417Y-118732009D01*
X162102317Y-118700000D01*
X161897683Y-118700000D01*
X161695582Y-118732009D01*
X161500968Y-118795244D01*
X161318644Y-118888143D01*
X161274077Y-118920523D01*
X161274077Y-118920524D01*
X161953554Y-119600000D01*
X161947339Y-119600000D01*
X161845606Y-119627259D01*
X161754394Y-119679920D01*
X161679920Y-119754394D01*
X161627259Y-119845606D01*
X161600000Y-119947339D01*
X161600000Y-119953553D01*
X160920524Y-119274077D01*
X160920523Y-119274077D01*
X160888143Y-119318644D01*
X160860765Y-119372378D01*
X160812790Y-119423174D01*
X160744969Y-119439969D01*
X160678834Y-119417431D01*
X160639795Y-119372378D01*
X160612284Y-119318385D01*
X160491971Y-119152786D01*
X160347213Y-119008028D01*
X160181613Y-118887715D01*
X160181612Y-118887714D01*
X160181610Y-118887713D01*
X160124653Y-118858691D01*
X159999223Y-118794781D01*
X159804534Y-118731522D01*
X159629995Y-118703878D01*
X159602352Y-118699500D01*
X159397648Y-118699500D01*
X159373329Y-118703351D01*
X159195465Y-118731522D01*
X159000776Y-118794781D01*
X158818386Y-118887715D01*
X158652786Y-119008028D01*
X158508028Y-119152786D01*
X158387715Y-119318386D01*
X158294781Y-119500776D01*
X158231522Y-119695465D01*
X158199500Y-119897648D01*
X143799995Y-119897648D01*
X143767990Y-119695582D01*
X143704755Y-119500968D01*
X143611859Y-119318650D01*
X143579474Y-119274077D01*
X143579474Y-119274076D01*
X142900000Y-119953551D01*
X142900000Y-119947339D01*
X142872741Y-119845606D01*
X142820080Y-119754394D01*
X142745606Y-119679920D01*
X142654394Y-119627259D01*
X142552661Y-119600000D01*
X142546446Y-119600000D01*
X143225922Y-118920524D01*
X143225921Y-118920523D01*
X143181359Y-118888147D01*
X143181350Y-118888141D01*
X142999031Y-118795244D01*
X142804417Y-118732009D01*
X142602317Y-118700000D01*
X142397683Y-118700000D01*
X142195582Y-118732009D01*
X142000968Y-118795244D01*
X141818644Y-118888143D01*
X141774077Y-118920523D01*
X141774077Y-118920524D01*
X142453554Y-119600000D01*
X142447339Y-119600000D01*
X142345606Y-119627259D01*
X142254394Y-119679920D01*
X142179920Y-119754394D01*
X142127259Y-119845606D01*
X142100000Y-119947339D01*
X142100000Y-119953553D01*
X141420524Y-119274077D01*
X141420523Y-119274077D01*
X141388143Y-119318644D01*
X141360765Y-119372378D01*
X141312790Y-119423174D01*
X141244969Y-119439969D01*
X141178834Y-119417431D01*
X141139795Y-119372378D01*
X141112284Y-119318385D01*
X140991971Y-119152786D01*
X140847213Y-119008028D01*
X140681613Y-118887715D01*
X140681612Y-118887714D01*
X140681610Y-118887713D01*
X140624653Y-118858691D01*
X140499223Y-118794781D01*
X140304534Y-118731522D01*
X140129995Y-118703878D01*
X140102352Y-118699500D01*
X139897648Y-118699500D01*
X139873329Y-118703351D01*
X139695465Y-118731522D01*
X139500776Y-118794781D01*
X139318386Y-118887715D01*
X139152786Y-119008028D01*
X139008028Y-119152786D01*
X138887715Y-119318386D01*
X138794781Y-119500776D01*
X138731522Y-119695465D01*
X138699500Y-119897648D01*
X124799995Y-119897648D01*
X124767990Y-119695582D01*
X124704755Y-119500968D01*
X124611859Y-119318650D01*
X124579474Y-119274077D01*
X124579474Y-119274076D01*
X123900000Y-119953551D01*
X123900000Y-119947339D01*
X123872741Y-119845606D01*
X123820080Y-119754394D01*
X123745606Y-119679920D01*
X123654394Y-119627259D01*
X123552661Y-119600000D01*
X123546446Y-119600000D01*
X124225922Y-118920524D01*
X124225921Y-118920523D01*
X124181359Y-118888147D01*
X124181350Y-118888141D01*
X123999031Y-118795244D01*
X123804417Y-118732009D01*
X123602317Y-118700000D01*
X123397683Y-118700000D01*
X123195582Y-118732009D01*
X123000968Y-118795244D01*
X122818644Y-118888143D01*
X122774077Y-118920523D01*
X122774077Y-118920524D01*
X123453554Y-119600000D01*
X123447339Y-119600000D01*
X123345606Y-119627259D01*
X123254394Y-119679920D01*
X123179920Y-119754394D01*
X123127259Y-119845606D01*
X123100000Y-119947339D01*
X123100000Y-119953553D01*
X122420524Y-119274077D01*
X122420523Y-119274077D01*
X122388143Y-119318644D01*
X122360765Y-119372378D01*
X122312790Y-119423174D01*
X122244969Y-119439969D01*
X122178834Y-119417431D01*
X122139795Y-119372378D01*
X122112284Y-119318385D01*
X121991971Y-119152786D01*
X121847213Y-119008028D01*
X121681613Y-118887715D01*
X121681612Y-118887714D01*
X121681610Y-118887713D01*
X121624653Y-118858691D01*
X121499223Y-118794781D01*
X121304534Y-118731522D01*
X121129995Y-118703878D01*
X121102352Y-118699500D01*
X120897648Y-118699500D01*
X120873329Y-118703351D01*
X120695465Y-118731522D01*
X120500776Y-118794781D01*
X120318386Y-118887715D01*
X120152786Y-119008028D01*
X120008028Y-119152786D01*
X119887715Y-119318386D01*
X119794781Y-119500776D01*
X119731522Y-119695465D01*
X119699500Y-119897648D01*
X111158065Y-119897648D01*
X111141936Y-119869711D01*
X111053450Y-119754394D01*
X110994266Y-119677263D01*
X110994260Y-119677256D01*
X110822743Y-119505739D01*
X110822736Y-119505733D01*
X110630293Y-119358067D01*
X110630292Y-119358066D01*
X110630289Y-119358064D01*
X110420212Y-119236776D01*
X110420205Y-119236773D01*
X110196104Y-119143947D01*
X109961785Y-119081161D01*
X109721289Y-119049500D01*
X109721288Y-119049500D01*
X109478712Y-119049500D01*
X109478711Y-119049500D01*
X109238214Y-119081161D01*
X109003895Y-119143947D01*
X108779794Y-119236773D01*
X108779785Y-119236777D01*
X108569706Y-119358067D01*
X108377263Y-119505733D01*
X108377256Y-119505739D01*
X108205739Y-119677256D01*
X108205733Y-119677263D01*
X108058067Y-119869706D01*
X107936777Y-120079785D01*
X107936773Y-120079794D01*
X107843947Y-120303895D01*
X107781161Y-120538214D01*
X107749500Y-120778711D01*
X106300500Y-120778711D01*
X106300500Y-107913389D01*
X116819500Y-107913389D01*
X116819500Y-108086611D01*
X116846598Y-108257701D01*
X116900127Y-108422445D01*
X116978768Y-108576788D01*
X117080586Y-108716928D01*
X117203072Y-108839414D01*
X117343212Y-108941232D01*
X117497555Y-109019873D01*
X117662299Y-109073402D01*
X117833389Y-109100500D01*
X117833390Y-109100500D01*
X118006610Y-109100500D01*
X118006611Y-109100500D01*
X118177701Y-109073402D01*
X118342445Y-109019873D01*
X118496788Y-108941232D01*
X118636928Y-108839414D01*
X118759414Y-108716928D01*
X118861232Y-108576788D01*
X118939873Y-108422445D01*
X118993402Y-108257701D01*
X119020500Y-108086611D01*
X119020500Y-107913389D01*
X118993402Y-107742299D01*
X118939873Y-107577555D01*
X118861232Y-107423212D01*
X118759414Y-107283072D01*
X118636928Y-107160586D01*
X118496788Y-107058768D01*
X118342445Y-106980127D01*
X118177701Y-106926598D01*
X118177699Y-106926597D01*
X118177698Y-106926597D01*
X118046271Y-106905781D01*
X118006611Y-106899500D01*
X117833389Y-106899500D01*
X117793728Y-106905781D01*
X117662302Y-106926597D01*
X117497552Y-106980128D01*
X117343211Y-107058768D01*
X117263256Y-107116859D01*
X117203072Y-107160586D01*
X117203070Y-107160588D01*
X117203069Y-107160588D01*
X117080588Y-107283069D01*
X117080588Y-107283070D01*
X117080586Y-107283072D01*
X117036859Y-107343256D01*
X116978768Y-107423211D01*
X116900128Y-107577552D01*
X116846597Y-107742302D01*
X116819500Y-107913389D01*
X106300500Y-107913389D01*
X106300500Y-104960438D01*
X119699500Y-104960438D01*
X119699500Y-110039562D01*
X119713152Y-110090513D01*
X119719979Y-110115990D01*
X119719982Y-110115995D01*
X119759535Y-110184504D01*
X119759539Y-110184509D01*
X119759540Y-110184511D01*
X119815489Y-110240460D01*
X119815491Y-110240461D01*
X119815495Y-110240464D01*
X119884004Y-110280017D01*
X119884011Y-110280021D01*
X119960438Y-110300500D01*
X120039562Y-110300500D01*
X120607663Y-110300500D01*
X120674702Y-110320185D01*
X120720457Y-110372989D01*
X120730401Y-110442147D01*
X120723845Y-110467833D01*
X120710908Y-110502517D01*
X120704501Y-110562116D01*
X120704500Y-110562135D01*
X120704500Y-112157870D01*
X120704501Y-112157876D01*
X120710908Y-112217483D01*
X120761202Y-112352328D01*
X120761206Y-112352335D01*
X120847452Y-112467544D01*
X120847455Y-112467547D01*
X120962664Y-112553793D01*
X120962671Y-112553797D01*
X121097517Y-112604091D01*
X121097516Y-112604091D01*
X121104444Y-112604835D01*
X121157127Y-112610500D01*
X122302872Y-112610499D01*
X122362483Y-112604091D01*
X122497331Y-112553796D01*
X122498893Y-112552626D01*
X122500722Y-112551944D01*
X122505118Y-112549544D01*
X122505462Y-112550175D01*
X122564354Y-112528204D01*
X122620664Y-112537326D01*
X122701017Y-112570609D01*
X122701025Y-112570611D01*
X122750000Y-112580353D01*
X122750000Y-112215671D01*
X122750711Y-112202415D01*
X122755499Y-112157881D01*
X122755500Y-112157873D01*
X122755499Y-111645829D01*
X122769745Y-111660075D01*
X122855255Y-111709444D01*
X122950630Y-111735000D01*
X123049370Y-111735000D01*
X123144745Y-111709444D01*
X123230255Y-111660075D01*
X123244500Y-111645830D01*
X123244500Y-111686002D01*
X123247617Y-111701671D01*
X123250000Y-111725865D01*
X123250000Y-112580352D01*
X123298974Y-112570612D01*
X123298983Y-112570609D01*
X123485515Y-112493346D01*
X123485518Y-112493344D01*
X123565658Y-112439796D01*
X123632335Y-112418917D01*
X123699716Y-112437401D01*
X123703422Y-112439783D01*
X123784244Y-112493786D01*
X123970873Y-112571091D01*
X124136777Y-112604091D01*
X124168992Y-112610499D01*
X124168996Y-112610500D01*
X124168997Y-112610500D01*
X124371004Y-112610500D01*
X124371005Y-112610499D01*
X124569127Y-112571091D01*
X124755756Y-112493786D01*
X124923718Y-112381558D01*
X125066558Y-112238718D01*
X125178786Y-112070756D01*
X125256091Y-111884127D01*
X125295500Y-111686003D01*
X125295500Y-111033997D01*
X125256091Y-110835873D01*
X125178786Y-110649244D01*
X125178784Y-110649241D01*
X125178782Y-110649237D01*
X125074649Y-110493391D01*
X125053771Y-110426713D01*
X125072256Y-110359333D01*
X125124234Y-110312643D01*
X125177751Y-110300500D01*
X126039560Y-110300500D01*
X126039562Y-110300500D01*
X126115989Y-110280021D01*
X126184511Y-110240460D01*
X126240460Y-110184511D01*
X126280021Y-110115989D01*
X126300500Y-110039562D01*
X126300500Y-107913389D01*
X126979500Y-107913389D01*
X126979500Y-108086611D01*
X127006598Y-108257701D01*
X127060127Y-108422445D01*
X127138768Y-108576788D01*
X127240586Y-108716928D01*
X127363072Y-108839414D01*
X127503212Y-108941232D01*
X127657555Y-109019873D01*
X127822299Y-109073402D01*
X127993389Y-109100500D01*
X127993390Y-109100500D01*
X128166610Y-109100500D01*
X128166611Y-109100500D01*
X128337701Y-109073402D01*
X128502445Y-109019873D01*
X128656788Y-108941232D01*
X128796928Y-108839414D01*
X128919414Y-108716928D01*
X129021232Y-108576788D01*
X129099873Y-108422445D01*
X129153402Y-108257701D01*
X129180500Y-108086611D01*
X129180500Y-107913389D01*
X135819500Y-107913389D01*
X135819500Y-108086611D01*
X135846598Y-108257701D01*
X135900127Y-108422445D01*
X135978768Y-108576788D01*
X136080586Y-108716928D01*
X136203072Y-108839414D01*
X136343212Y-108941232D01*
X136497555Y-109019873D01*
X136662299Y-109073402D01*
X136833389Y-109100500D01*
X136833390Y-109100500D01*
X137006610Y-109100500D01*
X137006611Y-109100500D01*
X137177701Y-109073402D01*
X137342445Y-109019873D01*
X137496788Y-108941232D01*
X137636928Y-108839414D01*
X137759414Y-108716928D01*
X137861232Y-108576788D01*
X137939873Y-108422445D01*
X137993402Y-108257701D01*
X138020500Y-108086611D01*
X138020500Y-107913389D01*
X137993402Y-107742299D01*
X137939873Y-107577555D01*
X137861232Y-107423212D01*
X137759414Y-107283072D01*
X137636928Y-107160586D01*
X137496788Y-107058768D01*
X137342445Y-106980127D01*
X137177701Y-106926598D01*
X137177699Y-106926597D01*
X137177698Y-106926597D01*
X137046271Y-106905781D01*
X137006611Y-106899500D01*
X136833389Y-106899500D01*
X136793728Y-106905781D01*
X136662302Y-106926597D01*
X136497552Y-106980128D01*
X136343211Y-107058768D01*
X136263256Y-107116859D01*
X136203072Y-107160586D01*
X136203070Y-107160588D01*
X136203069Y-107160588D01*
X136080588Y-107283069D01*
X136080588Y-107283070D01*
X136080586Y-107283072D01*
X136036859Y-107343256D01*
X135978768Y-107423211D01*
X135900128Y-107577552D01*
X135846597Y-107742302D01*
X135819500Y-107913389D01*
X129180500Y-107913389D01*
X129153402Y-107742299D01*
X129099873Y-107577555D01*
X129021232Y-107423212D01*
X128919414Y-107283072D01*
X128796928Y-107160586D01*
X128656788Y-107058768D01*
X128502445Y-106980127D01*
X128337701Y-106926598D01*
X128337699Y-106926597D01*
X128337698Y-106926597D01*
X128206271Y-106905781D01*
X128166611Y-106899500D01*
X127993389Y-106899500D01*
X127953728Y-106905781D01*
X127822302Y-106926597D01*
X127657552Y-106980128D01*
X127503211Y-107058768D01*
X127423256Y-107116859D01*
X127363072Y-107160586D01*
X127363070Y-107160588D01*
X127363069Y-107160588D01*
X127240588Y-107283069D01*
X127240588Y-107283070D01*
X127240586Y-107283072D01*
X127196859Y-107343256D01*
X127138768Y-107423211D01*
X127060128Y-107577552D01*
X127006597Y-107742302D01*
X126979500Y-107913389D01*
X126300500Y-107913389D01*
X126300500Y-104960438D01*
X138699500Y-104960438D01*
X138699500Y-110039562D01*
X138713152Y-110090513D01*
X138719979Y-110115990D01*
X138719982Y-110115995D01*
X138759535Y-110184504D01*
X138759539Y-110184509D01*
X138759540Y-110184511D01*
X138815489Y-110240460D01*
X138815491Y-110240461D01*
X138815495Y-110240464D01*
X138884004Y-110280017D01*
X138884011Y-110280021D01*
X138960438Y-110300500D01*
X139039562Y-110300500D01*
X139607663Y-110300500D01*
X139674702Y-110320185D01*
X139720457Y-110372989D01*
X139730401Y-110442147D01*
X139723845Y-110467833D01*
X139710908Y-110502517D01*
X139704501Y-110562116D01*
X139704500Y-110562135D01*
X139704500Y-112157870D01*
X139704501Y-112157876D01*
X139710908Y-112217483D01*
X139761202Y-112352328D01*
X139761206Y-112352335D01*
X139847452Y-112467544D01*
X139847455Y-112467547D01*
X139962664Y-112553793D01*
X139962671Y-112553797D01*
X140097517Y-112604091D01*
X140097516Y-112604091D01*
X140104444Y-112604835D01*
X140157127Y-112610500D01*
X141302872Y-112610499D01*
X141362483Y-112604091D01*
X141497331Y-112553796D01*
X141498893Y-112552626D01*
X141500722Y-112551944D01*
X141505118Y-112549544D01*
X141505462Y-112550175D01*
X141564354Y-112528204D01*
X141620664Y-112537326D01*
X141701017Y-112570609D01*
X141701025Y-112570611D01*
X141750000Y-112580353D01*
X141750000Y-112215671D01*
X141750711Y-112202415D01*
X141755499Y-112157881D01*
X141755500Y-112157873D01*
X141755499Y-111645829D01*
X141769745Y-111660075D01*
X141855255Y-111709444D01*
X141950630Y-111735000D01*
X142049370Y-111735000D01*
X142144745Y-111709444D01*
X142230255Y-111660075D01*
X142244500Y-111645830D01*
X142244500Y-111686002D01*
X142247617Y-111701671D01*
X142250000Y-111725865D01*
X142250000Y-112580353D01*
X142298974Y-112570612D01*
X142298983Y-112570609D01*
X142485515Y-112493346D01*
X142485518Y-112493344D01*
X142565658Y-112439796D01*
X142632335Y-112418917D01*
X142699716Y-112437401D01*
X142703422Y-112439783D01*
X142784244Y-112493786D01*
X142970873Y-112571091D01*
X143136777Y-112604091D01*
X143168992Y-112610499D01*
X143168996Y-112610500D01*
X143168997Y-112610500D01*
X143371004Y-112610500D01*
X143371005Y-112610499D01*
X143569127Y-112571091D01*
X143755756Y-112493786D01*
X143923718Y-112381558D01*
X144066558Y-112238718D01*
X144178786Y-112070756D01*
X144256091Y-111884127D01*
X144295500Y-111686003D01*
X144295500Y-111033997D01*
X144256091Y-110835873D01*
X144178786Y-110649244D01*
X144178784Y-110649241D01*
X144178782Y-110649237D01*
X144074649Y-110493391D01*
X144053771Y-110426713D01*
X144072256Y-110359333D01*
X144124234Y-110312643D01*
X144177751Y-110300500D01*
X145039560Y-110300500D01*
X145039562Y-110300500D01*
X145115989Y-110280021D01*
X145184511Y-110240460D01*
X145240460Y-110184511D01*
X145280021Y-110115989D01*
X145300500Y-110039562D01*
X145300500Y-107913389D01*
X145979500Y-107913389D01*
X145979500Y-108086611D01*
X146006598Y-108257701D01*
X146060127Y-108422445D01*
X146138768Y-108576788D01*
X146240586Y-108716928D01*
X146363072Y-108839414D01*
X146503212Y-108941232D01*
X146657555Y-109019873D01*
X146822299Y-109073402D01*
X146993389Y-109100500D01*
X146993390Y-109100500D01*
X147166610Y-109100500D01*
X147166611Y-109100500D01*
X147337701Y-109073402D01*
X147502445Y-109019873D01*
X147656788Y-108941232D01*
X147796928Y-108839414D01*
X147919414Y-108716928D01*
X148021232Y-108576788D01*
X148099873Y-108422445D01*
X148153402Y-108257701D01*
X148180500Y-108086611D01*
X148180500Y-107913389D01*
X154879500Y-107913389D01*
X154879500Y-108086611D01*
X154906598Y-108257701D01*
X154960127Y-108422445D01*
X155038768Y-108576788D01*
X155140586Y-108716928D01*
X155263072Y-108839414D01*
X155403212Y-108941232D01*
X155557555Y-109019873D01*
X155722299Y-109073402D01*
X155893389Y-109100500D01*
X155893390Y-109100500D01*
X156066610Y-109100500D01*
X156066611Y-109100500D01*
X156237701Y-109073402D01*
X156402445Y-109019873D01*
X156556788Y-108941232D01*
X156696928Y-108839414D01*
X156819414Y-108716928D01*
X156921232Y-108576788D01*
X156999873Y-108422445D01*
X157053402Y-108257701D01*
X157080500Y-108086611D01*
X157080500Y-107913389D01*
X157053402Y-107742299D01*
X156999873Y-107577555D01*
X156921232Y-107423212D01*
X156819414Y-107283072D01*
X156696928Y-107160586D01*
X156556788Y-107058768D01*
X156402445Y-106980127D01*
X156237701Y-106926598D01*
X156237699Y-106926597D01*
X156237698Y-106926597D01*
X156106271Y-106905781D01*
X156066611Y-106899500D01*
X155893389Y-106899500D01*
X155853728Y-106905781D01*
X155722302Y-106926597D01*
X155557552Y-106980128D01*
X155403211Y-107058768D01*
X155323256Y-107116859D01*
X155263072Y-107160586D01*
X155263070Y-107160588D01*
X155263069Y-107160588D01*
X155140588Y-107283069D01*
X155140588Y-107283070D01*
X155140586Y-107283072D01*
X155096859Y-107343256D01*
X155038768Y-107423211D01*
X154960128Y-107577552D01*
X154906597Y-107742302D01*
X154879500Y-107913389D01*
X148180500Y-107913389D01*
X148153402Y-107742299D01*
X148099873Y-107577555D01*
X148021232Y-107423212D01*
X147919414Y-107283072D01*
X147796928Y-107160586D01*
X147656788Y-107058768D01*
X147502445Y-106980127D01*
X147337701Y-106926598D01*
X147337699Y-106926597D01*
X147337698Y-106926597D01*
X147206271Y-106905781D01*
X147166611Y-106899500D01*
X146993389Y-106899500D01*
X146953728Y-106905781D01*
X146822302Y-106926597D01*
X146657552Y-106980128D01*
X146503211Y-107058768D01*
X146423256Y-107116859D01*
X146363072Y-107160586D01*
X146363070Y-107160588D01*
X146363069Y-107160588D01*
X146240588Y-107283069D01*
X146240588Y-107283070D01*
X146240586Y-107283072D01*
X146196859Y-107343256D01*
X146138768Y-107423211D01*
X146060128Y-107577552D01*
X146006597Y-107742302D01*
X145979500Y-107913389D01*
X145300500Y-107913389D01*
X145300500Y-104960438D01*
X157699500Y-104960438D01*
X157699500Y-110039562D01*
X157713152Y-110090513D01*
X157719979Y-110115990D01*
X157719982Y-110115995D01*
X157759535Y-110184504D01*
X157759539Y-110184509D01*
X157759540Y-110184511D01*
X157815489Y-110240460D01*
X157815491Y-110240461D01*
X157815495Y-110240464D01*
X157884004Y-110280017D01*
X157884011Y-110280021D01*
X157960438Y-110300500D01*
X158039562Y-110300500D01*
X158587663Y-110300500D01*
X158654702Y-110320185D01*
X158700457Y-110372989D01*
X158710401Y-110442147D01*
X158703845Y-110467833D01*
X158690908Y-110502517D01*
X158684501Y-110562116D01*
X158684500Y-110562135D01*
X158684500Y-112157870D01*
X158684501Y-112157876D01*
X158690908Y-112217483D01*
X158741202Y-112352328D01*
X158741206Y-112352335D01*
X158827452Y-112467544D01*
X158827455Y-112467547D01*
X158942664Y-112553793D01*
X158942671Y-112553797D01*
X159077517Y-112604091D01*
X159077516Y-112604091D01*
X159084444Y-112604835D01*
X159137127Y-112610500D01*
X160282872Y-112610499D01*
X160342483Y-112604091D01*
X160477331Y-112553796D01*
X160478893Y-112552626D01*
X160480722Y-112551944D01*
X160485118Y-112549544D01*
X160485462Y-112550175D01*
X160544354Y-112528204D01*
X160600664Y-112537326D01*
X160681017Y-112570609D01*
X160681025Y-112570611D01*
X160730000Y-112580353D01*
X160730000Y-112215671D01*
X160730711Y-112202415D01*
X160735499Y-112157881D01*
X160735500Y-112157873D01*
X160735499Y-111645829D01*
X160749745Y-111660075D01*
X160835255Y-111709444D01*
X160930630Y-111735000D01*
X161029370Y-111735000D01*
X161124745Y-111709444D01*
X161210255Y-111660075D01*
X161224500Y-111645830D01*
X161224500Y-111686002D01*
X161227617Y-111701671D01*
X161230000Y-111725865D01*
X161230000Y-112580353D01*
X161278974Y-112570612D01*
X161278983Y-112570609D01*
X161465515Y-112493346D01*
X161465518Y-112493344D01*
X161545658Y-112439796D01*
X161612335Y-112418917D01*
X161679716Y-112437401D01*
X161683422Y-112439783D01*
X161764244Y-112493786D01*
X161950873Y-112571091D01*
X162116777Y-112604091D01*
X162148992Y-112610499D01*
X162148996Y-112610500D01*
X162148997Y-112610500D01*
X162351004Y-112610500D01*
X162351005Y-112610499D01*
X162549127Y-112571091D01*
X162735756Y-112493786D01*
X162903718Y-112381558D01*
X163046558Y-112238718D01*
X163158786Y-112070756D01*
X163236091Y-111884127D01*
X163275500Y-111686003D01*
X163275500Y-111033997D01*
X163236091Y-110835873D01*
X163158786Y-110649244D01*
X163158784Y-110649241D01*
X163158782Y-110649237D01*
X163054649Y-110493391D01*
X163033771Y-110426713D01*
X163052256Y-110359333D01*
X163104234Y-110312643D01*
X163157751Y-110300500D01*
X164039560Y-110300500D01*
X164039562Y-110300500D01*
X164115989Y-110280021D01*
X164184511Y-110240460D01*
X164240460Y-110184511D01*
X164280021Y-110115989D01*
X164300500Y-110039562D01*
X164300500Y-107913389D01*
X165039500Y-107913389D01*
X165039500Y-108086611D01*
X165066598Y-108257701D01*
X165120127Y-108422445D01*
X165198768Y-108576788D01*
X165300586Y-108716928D01*
X165423072Y-108839414D01*
X165563212Y-108941232D01*
X165717555Y-109019873D01*
X165882299Y-109073402D01*
X166053389Y-109100500D01*
X166053390Y-109100500D01*
X166226610Y-109100500D01*
X166226611Y-109100500D01*
X166397701Y-109073402D01*
X166562445Y-109019873D01*
X166716788Y-108941232D01*
X166856928Y-108839414D01*
X166979414Y-108716928D01*
X167081232Y-108576788D01*
X167159873Y-108422445D01*
X167213402Y-108257701D01*
X167240500Y-108086611D01*
X167240500Y-107913389D01*
X167213402Y-107742299D01*
X167159873Y-107577555D01*
X167081232Y-107423212D01*
X166979414Y-107283072D01*
X166856928Y-107160586D01*
X166716788Y-107058768D01*
X166562445Y-106980127D01*
X166397701Y-106926598D01*
X166397699Y-106926597D01*
X166397698Y-106926597D01*
X166266271Y-106905781D01*
X166226611Y-106899500D01*
X166053389Y-106899500D01*
X166013728Y-106905781D01*
X165882302Y-106926597D01*
X165717552Y-106980128D01*
X165563211Y-107058768D01*
X165483256Y-107116859D01*
X165423072Y-107160586D01*
X165423070Y-107160588D01*
X165423069Y-107160588D01*
X165300588Y-107283069D01*
X165300588Y-107283070D01*
X165300586Y-107283072D01*
X165256859Y-107343256D01*
X165198768Y-107423211D01*
X165120128Y-107577552D01*
X165066597Y-107742302D01*
X165039500Y-107913389D01*
X164300500Y-107913389D01*
X164300500Y-104960438D01*
X164280021Y-104884011D01*
X164280017Y-104884004D01*
X164240464Y-104815495D01*
X164240458Y-104815487D01*
X164184512Y-104759541D01*
X164184504Y-104759535D01*
X164115995Y-104719982D01*
X164115990Y-104719979D01*
X164090513Y-104713152D01*
X164039562Y-104699500D01*
X158039562Y-104699500D01*
X157960438Y-104699500D01*
X157922224Y-104709739D01*
X157884009Y-104719979D01*
X157884004Y-104719982D01*
X157815495Y-104759535D01*
X157815487Y-104759541D01*
X157759541Y-104815487D01*
X157759535Y-104815495D01*
X157719982Y-104884004D01*
X157719979Y-104884009D01*
X157706326Y-104934962D01*
X157699500Y-104960438D01*
X145300500Y-104960438D01*
X145280021Y-104884011D01*
X145280017Y-104884004D01*
X145240464Y-104815495D01*
X145240458Y-104815487D01*
X145184512Y-104759541D01*
X145184504Y-104759535D01*
X145115995Y-104719982D01*
X145115990Y-104719979D01*
X145090513Y-104713152D01*
X145039562Y-104699500D01*
X139039562Y-104699500D01*
X138960438Y-104699500D01*
X138922224Y-104709739D01*
X138884009Y-104719979D01*
X138884004Y-104719982D01*
X138815495Y-104759535D01*
X138815487Y-104759541D01*
X138759541Y-104815487D01*
X138759535Y-104815495D01*
X138719982Y-104884004D01*
X138719979Y-104884009D01*
X138706326Y-104934962D01*
X138699500Y-104960438D01*
X126300500Y-104960438D01*
X126280021Y-104884011D01*
X126280017Y-104884004D01*
X126240464Y-104815495D01*
X126240458Y-104815487D01*
X126184512Y-104759541D01*
X126184504Y-104759535D01*
X126115995Y-104719982D01*
X126115990Y-104719979D01*
X126090513Y-104713152D01*
X126039562Y-104699500D01*
X120039562Y-104699500D01*
X119960438Y-104699500D01*
X119922224Y-104709739D01*
X119884009Y-104719979D01*
X119884004Y-104719982D01*
X119815495Y-104759535D01*
X119815487Y-104759541D01*
X119759541Y-104815487D01*
X119759535Y-104815495D01*
X119719982Y-104884004D01*
X119719979Y-104884009D01*
X119706326Y-104934962D01*
X119699500Y-104960438D01*
X106300500Y-104960438D01*
X106300500Y-83522135D01*
X113899500Y-83522135D01*
X113899500Y-85317870D01*
X113899501Y-85317876D01*
X113905908Y-85377483D01*
X113956202Y-85512328D01*
X113956206Y-85512335D01*
X114042452Y-85627544D01*
X114042455Y-85627547D01*
X114157664Y-85713793D01*
X114157671Y-85713797D01*
X114289082Y-85762810D01*
X114345016Y-85804681D01*
X114369433Y-85870145D01*
X114354582Y-85938418D01*
X114333431Y-85966673D01*
X114219889Y-86080215D01*
X114094951Y-86252179D01*
X113998444Y-86441585D01*
X113998443Y-86441587D01*
X113998443Y-86441588D01*
X113991818Y-86461979D01*
X113932753Y-86643760D01*
X113899500Y-86853713D01*
X113899500Y-87066286D01*
X113932735Y-87276127D01*
X113932754Y-87276243D01*
X113994638Y-87466703D01*
X113998444Y-87478414D01*
X114094951Y-87667820D01*
X114219890Y-87839786D01*
X114370213Y-87990109D01*
X114542179Y-88115048D01*
X114542181Y-88115049D01*
X114542184Y-88115051D01*
X114551493Y-88119794D01*
X114602290Y-88167766D01*
X114619087Y-88235587D01*
X114596552Y-88301722D01*
X114551505Y-88340760D01*
X114542446Y-88345376D01*
X114542440Y-88345380D01*
X114488282Y-88384727D01*
X114488282Y-88384728D01*
X115120591Y-89017037D01*
X115057007Y-89034075D01*
X114942993Y-89099901D01*
X114849901Y-89192993D01*
X114784075Y-89307007D01*
X114767037Y-89370591D01*
X114134728Y-88738282D01*
X114134727Y-88738282D01*
X114095380Y-88792439D01*
X113998904Y-88981782D01*
X113933242Y-89183869D01*
X113933242Y-89183872D01*
X113900000Y-89393753D01*
X113900000Y-89606246D01*
X113933242Y-89816127D01*
X113933242Y-89816130D01*
X113998904Y-90018217D01*
X114095375Y-90207550D01*
X114134728Y-90261716D01*
X114767036Y-89629407D01*
X114784075Y-89692993D01*
X114849901Y-89807007D01*
X114942993Y-89900099D01*
X115057007Y-89965925D01*
X115120590Y-89982962D01*
X114488282Y-90615269D01*
X114488282Y-90615270D01*
X114542452Y-90654626D01*
X114542451Y-90654626D01*
X114551495Y-90659234D01*
X114602292Y-90707208D01*
X114619087Y-90775029D01*
X114596550Y-90841164D01*
X114551499Y-90880202D01*
X114542182Y-90884949D01*
X114370213Y-91009890D01*
X114219890Y-91160213D01*
X114094951Y-91332179D01*
X113998444Y-91521585D01*
X113932753Y-91723760D01*
X113899500Y-91933713D01*
X113899500Y-92146287D01*
X113932754Y-92356243D01*
X113994638Y-92546703D01*
X113998444Y-92558414D01*
X114094951Y-92747820D01*
X114219890Y-92919786D01*
X114370213Y-93070109D01*
X114542179Y-93195048D01*
X114542181Y-93195049D01*
X114542184Y-93195051D01*
X114731588Y-93291557D01*
X114933757Y-93357246D01*
X115143713Y-93390500D01*
X115143714Y-93390500D01*
X115356286Y-93390500D01*
X115356287Y-93390500D01*
X115566243Y-93357246D01*
X115768412Y-93291557D01*
X115957816Y-93195051D01*
X115994012Y-93168753D01*
X116129786Y-93070109D01*
X116129788Y-93070106D01*
X116129792Y-93070104D01*
X116280104Y-92919792D01*
X116280106Y-92919788D01*
X116280109Y-92919786D01*
X116405048Y-92747820D01*
X116405047Y-92747820D01*
X116405051Y-92747816D01*
X116501557Y-92558412D01*
X116567246Y-92356243D01*
X116600500Y-92146287D01*
X116600500Y-91933713D01*
X116567246Y-91723757D01*
X116501557Y-91521588D01*
X116405051Y-91332184D01*
X116405049Y-91332181D01*
X116405048Y-91332179D01*
X116280109Y-91160213D01*
X116129786Y-91009890D01*
X115957817Y-90884949D01*
X115948504Y-90880204D01*
X115897707Y-90832230D01*
X115880912Y-90764409D01*
X115903449Y-90698274D01*
X115948507Y-90659232D01*
X115957555Y-90654622D01*
X116011716Y-90615270D01*
X116011717Y-90615270D01*
X115379408Y-89982962D01*
X115442993Y-89965925D01*
X115557007Y-89900099D01*
X115650099Y-89807007D01*
X115715925Y-89692993D01*
X115732962Y-89629408D01*
X116365270Y-90261717D01*
X116365270Y-90261716D01*
X116404622Y-90207554D01*
X116501095Y-90018217D01*
X116566757Y-89816130D01*
X116566757Y-89816127D01*
X116600000Y-89606246D01*
X116600000Y-89393753D01*
X116566757Y-89183872D01*
X116566757Y-89183869D01*
X116501095Y-88981782D01*
X116404624Y-88792449D01*
X116365270Y-88738282D01*
X116365269Y-88738282D01*
X115732962Y-89370590D01*
X115715925Y-89307007D01*
X115650099Y-89192993D01*
X115557007Y-89099901D01*
X115442993Y-89034075D01*
X115379409Y-89017037D01*
X116011716Y-88384728D01*
X115957547Y-88345373D01*
X115957547Y-88345372D01*
X115948500Y-88340763D01*
X115897706Y-88292788D01*
X115880912Y-88224966D01*
X115903451Y-88158832D01*
X115948508Y-88119793D01*
X115957816Y-88115051D01*
X116037007Y-88057515D01*
X116129786Y-87990109D01*
X116129788Y-87990106D01*
X116129792Y-87990104D01*
X116280104Y-87839792D01*
X116280106Y-87839788D01*
X116280109Y-87839786D01*
X116405048Y-87667820D01*
X116405047Y-87667820D01*
X116405051Y-87667816D01*
X116501557Y-87478412D01*
X116567246Y-87276243D01*
X116600500Y-87066287D01*
X116600500Y-86853713D01*
X116567246Y-86643757D01*
X116501557Y-86441588D01*
X116405051Y-86252184D01*
X116405049Y-86252181D01*
X116405048Y-86252179D01*
X116280109Y-86080213D01*
X116166569Y-85966673D01*
X116133084Y-85905350D01*
X116138068Y-85835658D01*
X116179940Y-85779725D01*
X116210915Y-85762810D01*
X116342331Y-85713796D01*
X116457546Y-85627546D01*
X116543796Y-85512331D01*
X116594091Y-85377483D01*
X116600500Y-85317873D01*
X116600500Y-85109500D01*
X116620185Y-85042461D01*
X116672989Y-84996706D01*
X116724500Y-84985500D01*
X131851294Y-84985500D01*
X131918333Y-85005185D01*
X131964088Y-85057989D01*
X131971068Y-85077405D01*
X131979682Y-85109552D01*
X132065623Y-85278224D01*
X132065624Y-85278226D01*
X132131451Y-85359514D01*
X132184758Y-85425342D01*
X132266046Y-85491168D01*
X132331873Y-85544475D01*
X132331875Y-85544476D01*
X132331953Y-85544516D01*
X132331989Y-85544550D01*
X132337323Y-85548014D01*
X132336689Y-85548989D01*
X132382749Y-85592491D01*
X132399543Y-85660312D01*
X132377005Y-85726447D01*
X132336843Y-85761246D01*
X132337323Y-85761986D01*
X132332002Y-85765440D01*
X132331953Y-85765484D01*
X132331873Y-85765524D01*
X132184758Y-85884658D01*
X132065624Y-86031773D01*
X132065623Y-86031775D01*
X131979684Y-86200444D01*
X131930687Y-86383298D01*
X131924500Y-86461919D01*
X131924500Y-87388064D01*
X131924501Y-87388083D01*
X131930687Y-87466699D01*
X131930688Y-87466701D01*
X131930688Y-87466703D01*
X131979684Y-87649556D01*
X131988988Y-87667816D01*
X132065623Y-87818224D01*
X132065624Y-87818226D01*
X132131451Y-87899514D01*
X132184758Y-87965342D01*
X132266046Y-88031168D01*
X132331873Y-88084475D01*
X132331875Y-88084476D01*
X132331953Y-88084516D01*
X132331989Y-88084550D01*
X132337323Y-88088014D01*
X132336689Y-88088989D01*
X132382749Y-88132491D01*
X132399543Y-88200312D01*
X132377005Y-88266447D01*
X132336843Y-88301246D01*
X132337323Y-88301986D01*
X132332002Y-88305440D01*
X132331953Y-88305484D01*
X132331873Y-88305524D01*
X132184758Y-88424658D01*
X132065624Y-88571773D01*
X132065623Y-88571775D01*
X131979684Y-88740444D01*
X131930687Y-88923298D01*
X131924500Y-89001919D01*
X131924500Y-89928064D01*
X131924501Y-89928083D01*
X131930687Y-90006699D01*
X131930688Y-90006701D01*
X131930688Y-90006703D01*
X131979684Y-90189556D01*
X131988988Y-90207816D01*
X132065623Y-90358224D01*
X132065624Y-90358226D01*
X132131451Y-90439514D01*
X132184758Y-90505342D01*
X132245647Y-90554649D01*
X132331873Y-90624475D01*
X132331875Y-90624476D01*
X132331953Y-90624516D01*
X132331989Y-90624550D01*
X132337323Y-90628014D01*
X132336689Y-90628989D01*
X132382749Y-90672491D01*
X132399543Y-90740312D01*
X132377005Y-90806447D01*
X132336843Y-90841246D01*
X132337323Y-90841986D01*
X132332002Y-90845440D01*
X132331953Y-90845484D01*
X132331873Y-90845524D01*
X132184758Y-90964658D01*
X132065624Y-91111773D01*
X132065623Y-91111775D01*
X131979684Y-91280444D01*
X131930687Y-91463298D01*
X131924500Y-91541919D01*
X131924500Y-92468064D01*
X131924501Y-92468083D01*
X131930687Y-92546699D01*
X131930688Y-92546701D01*
X131930688Y-92546703D01*
X131979684Y-92729556D01*
X131988988Y-92747816D01*
X132065623Y-92898224D01*
X132065624Y-92898226D01*
X132131451Y-92979514D01*
X132184758Y-93045342D01*
X132266046Y-93111168D01*
X132331873Y-93164475D01*
X132331875Y-93164476D01*
X132331953Y-93164516D01*
X132331989Y-93164550D01*
X132337323Y-93168014D01*
X132336689Y-93168989D01*
X132382749Y-93212491D01*
X132399543Y-93280312D01*
X132377005Y-93346447D01*
X132336843Y-93381246D01*
X132337323Y-93381986D01*
X132332002Y-93385440D01*
X132331953Y-93385484D01*
X132331873Y-93385524D01*
X132184758Y-93504658D01*
X132065624Y-93651773D01*
X132065623Y-93651775D01*
X131979684Y-93820444D01*
X131930687Y-94003298D01*
X131924500Y-94081919D01*
X131924500Y-95008064D01*
X131924501Y-95008083D01*
X131930687Y-95086699D01*
X131930688Y-95086701D01*
X131930688Y-95086703D01*
X131979684Y-95269556D01*
X132009062Y-95327214D01*
X132065623Y-95438224D01*
X132065624Y-95438226D01*
X132131451Y-95519514D01*
X132184758Y-95585342D01*
X132266046Y-95651168D01*
X132331873Y-95704475D01*
X132331875Y-95704476D01*
X132331953Y-95704516D01*
X132331989Y-95704550D01*
X132337323Y-95708014D01*
X132336689Y-95708989D01*
X132382749Y-95752491D01*
X132399543Y-95820312D01*
X132377005Y-95886447D01*
X132336843Y-95921246D01*
X132337323Y-95921986D01*
X132332002Y-95925440D01*
X132331953Y-95925484D01*
X132331873Y-95925524D01*
X132184758Y-96044658D01*
X132065624Y-96191773D01*
X132065623Y-96191775D01*
X131979684Y-96360444D01*
X131930687Y-96543298D01*
X131924500Y-96621919D01*
X131924500Y-97548064D01*
X131924501Y-97548083D01*
X131930687Y-97626699D01*
X131930688Y-97626701D01*
X131930688Y-97626703D01*
X131979684Y-97809556D01*
X132009062Y-97867214D01*
X132065623Y-97978224D01*
X132065624Y-97978226D01*
X132105865Y-98027918D01*
X132184758Y-98125342D01*
X132266046Y-98191168D01*
X132331873Y-98244475D01*
X132331875Y-98244476D01*
X132387379Y-98272756D01*
X132500544Y-98330416D01*
X132683397Y-98379412D01*
X132762025Y-98385600D01*
X134687974Y-98385599D01*
X134766603Y-98379412D01*
X134949456Y-98330416D01*
X135118126Y-98244475D01*
X135265242Y-98125342D01*
X135356735Y-98012358D01*
X135414221Y-97972648D01*
X135484052Y-97970320D01*
X135544056Y-98006116D01*
X135575182Y-98068669D01*
X135577100Y-98090395D01*
X135577100Y-98863878D01*
X135577101Y-98863897D01*
X135583243Y-98941952D01*
X135631893Y-99123516D01*
X135717226Y-99290996D01*
X135766126Y-99351382D01*
X135835522Y-99437078D01*
X135941345Y-99522772D01*
X135981603Y-99555373D01*
X136091829Y-99611534D01*
X136149082Y-99640706D01*
X136330646Y-99689356D01*
X136408711Y-99695500D01*
X137321288Y-99695499D01*
X137399354Y-99689356D01*
X137580918Y-99640706D01*
X137695422Y-99582363D01*
X137748396Y-99555373D01*
X137748397Y-99555371D01*
X137748399Y-99555371D01*
X137894478Y-99437078D01*
X138012771Y-99290999D01*
X138024514Y-99267950D01*
X138072487Y-99217154D01*
X138140308Y-99200358D01*
X138206443Y-99222894D01*
X138245484Y-99267949D01*
X138250958Y-99278691D01*
X138255776Y-99288149D01*
X138257229Y-99290999D01*
X138375522Y-99437078D01*
X138481345Y-99522772D01*
X138521603Y-99555373D01*
X138631829Y-99611534D01*
X138689082Y-99640706D01*
X138870646Y-99689356D01*
X138948711Y-99695500D01*
X139861288Y-99695499D01*
X139939354Y-99689356D01*
X140120918Y-99640706D01*
X140235422Y-99582363D01*
X140288396Y-99555373D01*
X140288397Y-99555371D01*
X140288399Y-99555371D01*
X140434478Y-99437078D01*
X140552771Y-99290999D01*
X140564514Y-99267950D01*
X140612487Y-99217154D01*
X140680308Y-99200358D01*
X140746443Y-99222894D01*
X140785484Y-99267949D01*
X140790958Y-99278691D01*
X140795776Y-99288149D01*
X140797229Y-99290999D01*
X140915522Y-99437078D01*
X141021345Y-99522772D01*
X141061603Y-99555373D01*
X141171829Y-99611534D01*
X141229082Y-99640706D01*
X141410646Y-99689356D01*
X141488711Y-99695500D01*
X142401288Y-99695499D01*
X142479354Y-99689356D01*
X142660918Y-99640706D01*
X142775422Y-99582363D01*
X142828396Y-99555373D01*
X142828397Y-99555371D01*
X142828399Y-99555371D01*
X142974478Y-99437078D01*
X143092771Y-99290999D01*
X143104514Y-99267950D01*
X143152487Y-99217154D01*
X143220308Y-99200358D01*
X143286443Y-99222894D01*
X143325484Y-99267949D01*
X143330958Y-99278691D01*
X143335776Y-99288149D01*
X143337229Y-99290999D01*
X143455522Y-99437078D01*
X143561345Y-99522772D01*
X143601603Y-99555373D01*
X143711829Y-99611534D01*
X143769082Y-99640706D01*
X143950646Y-99689356D01*
X144028711Y-99695500D01*
X144941288Y-99695499D01*
X145019354Y-99689356D01*
X145200918Y-99640706D01*
X145315422Y-99582363D01*
X145368396Y-99555373D01*
X145368397Y-99555371D01*
X145368399Y-99555371D01*
X145514478Y-99437078D01*
X145632771Y-99290999D01*
X145632773Y-99290996D01*
X145639435Y-99277921D01*
X145687408Y-99227125D01*
X145755229Y-99210329D01*
X145821364Y-99232866D01*
X145860405Y-99277921D01*
X145865614Y-99288146D01*
X145914859Y-99348958D01*
X145984743Y-99435257D01*
X146091311Y-99521554D01*
X146131853Y-99554385D01*
X146215371Y-99596938D01*
X146300512Y-99640320D01*
X146483355Y-99689312D01*
X146561979Y-99695500D01*
X147488020Y-99695499D01*
X147566645Y-99689312D01*
X147749488Y-99640320D01*
X147878008Y-99574835D01*
X147918146Y-99554385D01*
X147918147Y-99554383D01*
X147918149Y-99554383D01*
X148065257Y-99435257D01*
X148184383Y-99288149D01*
X148189595Y-99277921D01*
X148217632Y-99222894D01*
X148270320Y-99119488D01*
X148319312Y-98936645D01*
X148325500Y-98858021D01*
X148325499Y-98105951D01*
X148345183Y-98038915D01*
X148397987Y-97993160D01*
X148467146Y-97983216D01*
X148530702Y-98012241D01*
X148545865Y-98027918D01*
X148624758Y-98125342D01*
X148706046Y-98191168D01*
X148771873Y-98244475D01*
X148771875Y-98244476D01*
X148827379Y-98272756D01*
X148940544Y-98330416D01*
X149123397Y-98379412D01*
X149202025Y-98385600D01*
X151127974Y-98385599D01*
X151206603Y-98379412D01*
X151389456Y-98330416D01*
X151558126Y-98244475D01*
X151705242Y-98125342D01*
X151824375Y-97978226D01*
X151910316Y-97809556D01*
X151959312Y-97626703D01*
X151965500Y-97548075D01*
X151965499Y-96621926D01*
X151959312Y-96543297D01*
X151910316Y-96360444D01*
X151846714Y-96235617D01*
X151824376Y-96191775D01*
X151824375Y-96191773D01*
X151771068Y-96125946D01*
X151705242Y-96044658D01*
X151621896Y-95977165D01*
X151558128Y-95925526D01*
X151558053Y-95925488D01*
X151558016Y-95925453D01*
X151552677Y-95921986D01*
X151553310Y-95921009D01*
X151507255Y-95877516D01*
X151490455Y-95809696D01*
X151512989Y-95743560D01*
X151553157Y-95708753D01*
X151552677Y-95708014D01*
X151558002Y-95704555D01*
X151558053Y-95704512D01*
X151558126Y-95704475D01*
X151705242Y-95585342D01*
X151824375Y-95438226D01*
X151910316Y-95269556D01*
X151959312Y-95086703D01*
X151965500Y-95008075D01*
X151965499Y-94081926D01*
X151959312Y-94003297D01*
X151910316Y-93820444D01*
X151824376Y-93651775D01*
X151824375Y-93651773D01*
X151771068Y-93585946D01*
X151705242Y-93504658D01*
X151564270Y-93390500D01*
X151558128Y-93385526D01*
X151558053Y-93385488D01*
X151558016Y-93385453D01*
X151552677Y-93381986D01*
X151553310Y-93381009D01*
X151507255Y-93337516D01*
X151490455Y-93269696D01*
X151512989Y-93203560D01*
X151553157Y-93168753D01*
X151552677Y-93168014D01*
X151558002Y-93164555D01*
X151558053Y-93164512D01*
X151558126Y-93164475D01*
X151705242Y-93045342D01*
X151824375Y-92898226D01*
X151910316Y-92729556D01*
X151959312Y-92546703D01*
X151965500Y-92468075D01*
X151965499Y-91541926D01*
X151959312Y-91463297D01*
X151910316Y-91280444D01*
X151839841Y-91142127D01*
X151824376Y-91111775D01*
X151824375Y-91111773D01*
X151741870Y-91009890D01*
X151705242Y-90964658D01*
X151600948Y-90880202D01*
X151558128Y-90845526D01*
X151558053Y-90845488D01*
X151558016Y-90845453D01*
X151552677Y-90841986D01*
X151553310Y-90841009D01*
X151507255Y-90797516D01*
X151490455Y-90729696D01*
X151512989Y-90663560D01*
X151553157Y-90628753D01*
X151552677Y-90628014D01*
X151558002Y-90624555D01*
X151558053Y-90624512D01*
X151558126Y-90624475D01*
X151705242Y-90505342D01*
X151824375Y-90358226D01*
X151910316Y-90189556D01*
X151959312Y-90006703D01*
X151965500Y-89928075D01*
X151965499Y-89001926D01*
X151959312Y-88923297D01*
X151910316Y-88740444D01*
X151824376Y-88571775D01*
X151824375Y-88571773D01*
X151741870Y-88469890D01*
X151705242Y-88424658D01*
X151639414Y-88371351D01*
X151558126Y-88305524D01*
X151558122Y-88305522D01*
X151557963Y-88305441D01*
X151557887Y-88305369D01*
X151552677Y-88301986D01*
X151553295Y-88301032D01*
X151507169Y-88257465D01*
X151490377Y-88189643D01*
X151512918Y-88123509D01*
X151553162Y-88088644D01*
X151552696Y-88087925D01*
X151557876Y-88084560D01*
X151557985Y-88084466D01*
X151558149Y-88084383D01*
X151705257Y-87965257D01*
X151824383Y-87818149D01*
X151910320Y-87649488D01*
X151959312Y-87466645D01*
X151965500Y-87388021D01*
X151965499Y-86461980D01*
X151959312Y-86383355D01*
X151910320Y-86200512D01*
X151849025Y-86080213D01*
X151824385Y-86031853D01*
X151741821Y-85929896D01*
X151705257Y-85884743D01*
X151558149Y-85765617D01*
X151558148Y-85765616D01*
X151557892Y-85765486D01*
X151557768Y-85765369D01*
X151552696Y-85762075D01*
X151553298Y-85761147D01*
X151507095Y-85717512D01*
X151490299Y-85649691D01*
X151512835Y-85583556D01*
X151553149Y-85548623D01*
X151552696Y-85547925D01*
X151557724Y-85544659D01*
X151557892Y-85544514D01*
X151557972Y-85544473D01*
X151558149Y-85544383D01*
X151705257Y-85425257D01*
X151824383Y-85278149D01*
X151910320Y-85109488D01*
X151959312Y-84926645D01*
X151965500Y-84848021D01*
X151965499Y-84313713D01*
X167399500Y-84313713D01*
X167399500Y-84526287D01*
X167432754Y-84736243D01*
X167494638Y-84926703D01*
X167498444Y-84938414D01*
X167594951Y-85127820D01*
X167719890Y-85299786D01*
X167870213Y-85450109D01*
X168042179Y-85575048D01*
X168042181Y-85575049D01*
X168042184Y-85575051D01*
X168051493Y-85579794D01*
X168102290Y-85627766D01*
X168119087Y-85695587D01*
X168096552Y-85761722D01*
X168051505Y-85800760D01*
X168042446Y-85805376D01*
X168042440Y-85805380D01*
X167988282Y-85844727D01*
X167988282Y-85844728D01*
X168620591Y-86477037D01*
X168557007Y-86494075D01*
X168442993Y-86559901D01*
X168349901Y-86652993D01*
X168284075Y-86767007D01*
X168267037Y-86830591D01*
X167634728Y-86198282D01*
X167634727Y-86198282D01*
X167595380Y-86252439D01*
X167498904Y-86441782D01*
X167433242Y-86643869D01*
X167433242Y-86643872D01*
X167400000Y-86853753D01*
X167400000Y-87066246D01*
X167433242Y-87276127D01*
X167433242Y-87276130D01*
X167498904Y-87478217D01*
X167595375Y-87667550D01*
X167634728Y-87721716D01*
X168267037Y-87089408D01*
X168284075Y-87152993D01*
X168349901Y-87267007D01*
X168442993Y-87360099D01*
X168557007Y-87425925D01*
X168620590Y-87442962D01*
X167988282Y-88075269D01*
X167988282Y-88075270D01*
X168042452Y-88114626D01*
X168042451Y-88114626D01*
X168051495Y-88119234D01*
X168102292Y-88167208D01*
X168119087Y-88235029D01*
X168096550Y-88301164D01*
X168051499Y-88340202D01*
X168042182Y-88344949D01*
X167870213Y-88469890D01*
X167719890Y-88620213D01*
X167594951Y-88792179D01*
X167498444Y-88981585D01*
X167432753Y-89183760D01*
X167399500Y-89393713D01*
X167399500Y-89606286D01*
X167432735Y-89816127D01*
X167432754Y-89816243D01*
X167494638Y-90006703D01*
X167498444Y-90018414D01*
X167594951Y-90207820D01*
X167719890Y-90379786D01*
X167833430Y-90493326D01*
X167866915Y-90554649D01*
X167861931Y-90624341D01*
X167820059Y-90680274D01*
X167789083Y-90697189D01*
X167657669Y-90746203D01*
X167657664Y-90746206D01*
X167542455Y-90832452D01*
X167542452Y-90832455D01*
X167456206Y-90947664D01*
X167456202Y-90947671D01*
X167405908Y-91082517D01*
X167402763Y-91111774D01*
X167399501Y-91142123D01*
X167399500Y-91142135D01*
X167399500Y-92937870D01*
X167399501Y-92937876D01*
X167405908Y-92997483D01*
X167456202Y-93132328D01*
X167456206Y-93132335D01*
X167542452Y-93247544D01*
X167542455Y-93247547D01*
X167657664Y-93333793D01*
X167657671Y-93333797D01*
X167792517Y-93384091D01*
X167792516Y-93384091D01*
X167799444Y-93384835D01*
X167852127Y-93390500D01*
X169647872Y-93390499D01*
X169707483Y-93384091D01*
X169842331Y-93333796D01*
X169957546Y-93247546D01*
X170043796Y-93132331D01*
X170094091Y-92997483D01*
X170100500Y-92937873D01*
X170100499Y-91142128D01*
X170094091Y-91082517D01*
X170050132Y-90964658D01*
X170043797Y-90947671D01*
X170043793Y-90947664D01*
X169957547Y-90832455D01*
X169957544Y-90832452D01*
X169842335Y-90746206D01*
X169842328Y-90746202D01*
X169710917Y-90697189D01*
X169654983Y-90655318D01*
X169630566Y-90589853D01*
X169645418Y-90521580D01*
X169666563Y-90493332D01*
X169780104Y-90379792D01*
X169905051Y-90207816D01*
X170001557Y-90018412D01*
X170067246Y-89816243D01*
X170100500Y-89606287D01*
X170100500Y-89393713D01*
X170067246Y-89183757D01*
X170001557Y-88981588D01*
X169905051Y-88792184D01*
X169905049Y-88792181D01*
X169905048Y-88792179D01*
X169780109Y-88620213D01*
X169629786Y-88469890D01*
X169457817Y-88344949D01*
X169448504Y-88340204D01*
X169397707Y-88292230D01*
X169380912Y-88224409D01*
X169403449Y-88158274D01*
X169448507Y-88119232D01*
X169457555Y-88114622D01*
X169511716Y-88075270D01*
X169511717Y-88075270D01*
X168879408Y-87442962D01*
X168942993Y-87425925D01*
X169057007Y-87360099D01*
X169150099Y-87267007D01*
X169215925Y-87152993D01*
X169232962Y-87089408D01*
X169865270Y-87721717D01*
X169865270Y-87721716D01*
X169904622Y-87667554D01*
X170001095Y-87478217D01*
X170066757Y-87276130D01*
X170066757Y-87276127D01*
X170100000Y-87066246D01*
X170100000Y-86853753D01*
X170066757Y-86643872D01*
X170066757Y-86643869D01*
X170001095Y-86441782D01*
X169904624Y-86252449D01*
X169865270Y-86198282D01*
X169232962Y-86830590D01*
X169215925Y-86767007D01*
X169150099Y-86652993D01*
X169057007Y-86559901D01*
X168942993Y-86494075D01*
X168879409Y-86477037D01*
X169511716Y-85844728D01*
X169457547Y-85805373D01*
X169457547Y-85805372D01*
X169448500Y-85800763D01*
X169397706Y-85752788D01*
X169380912Y-85684966D01*
X169403451Y-85618832D01*
X169448508Y-85579793D01*
X169457816Y-85575051D01*
X169544147Y-85512328D01*
X169629786Y-85450109D01*
X169629788Y-85450106D01*
X169629792Y-85450104D01*
X169780104Y-85299792D01*
X169780106Y-85299788D01*
X169780109Y-85299786D01*
X169905048Y-85127820D01*
X169905047Y-85127820D01*
X169905051Y-85127816D01*
X170001557Y-84938412D01*
X170067246Y-84736243D01*
X170100500Y-84526287D01*
X170100500Y-84313713D01*
X170067246Y-84103757D01*
X170001557Y-83901588D01*
X169905051Y-83712184D01*
X169905049Y-83712181D01*
X169905048Y-83712179D01*
X169780109Y-83540213D01*
X169629786Y-83389890D01*
X169457820Y-83264951D01*
X169268414Y-83168444D01*
X169268413Y-83168443D01*
X169268412Y-83168443D01*
X169066243Y-83102754D01*
X169066241Y-83102753D01*
X169066240Y-83102753D01*
X168904957Y-83077208D01*
X168856287Y-83069500D01*
X168643713Y-83069500D01*
X168595042Y-83077208D01*
X168433760Y-83102753D01*
X168231585Y-83168444D01*
X168042179Y-83264951D01*
X167870213Y-83389890D01*
X167719890Y-83540213D01*
X167594951Y-83712179D01*
X167498444Y-83901585D01*
X167498443Y-83901587D01*
X167498443Y-83901588D01*
X167491818Y-83921979D01*
X167432753Y-84103760D01*
X167399500Y-84313713D01*
X151965499Y-84313713D01*
X151965499Y-83921980D01*
X151959312Y-83843355D01*
X151910320Y-83660512D01*
X151849025Y-83540213D01*
X151824385Y-83491853D01*
X151741816Y-83389890D01*
X151705257Y-83344743D01*
X151558149Y-83225617D01*
X151558148Y-83225616D01*
X151557892Y-83225486D01*
X151557768Y-83225369D01*
X151552696Y-83222075D01*
X151553298Y-83221147D01*
X151507095Y-83177512D01*
X151490299Y-83109691D01*
X151512835Y-83043556D01*
X151553149Y-83008623D01*
X151552696Y-83007925D01*
X151557724Y-83004659D01*
X151557892Y-83004514D01*
X151557972Y-83004473D01*
X151558149Y-83004383D01*
X151705257Y-82885257D01*
X151824383Y-82738149D01*
X151910320Y-82569488D01*
X151959312Y-82386645D01*
X151965500Y-82308021D01*
X151965499Y-81381980D01*
X151959312Y-81303355D01*
X151910320Y-81120512D01*
X151866938Y-81035371D01*
X151824385Y-80951853D01*
X151791554Y-80911311D01*
X151705257Y-80804743D01*
X151558149Y-80685617D01*
X151558148Y-80685616D01*
X151557892Y-80685486D01*
X151557768Y-80685369D01*
X151552696Y-80682075D01*
X151553298Y-80681147D01*
X151507095Y-80637512D01*
X151490299Y-80569691D01*
X151512835Y-80503556D01*
X151553149Y-80468623D01*
X151552696Y-80467925D01*
X151557724Y-80464659D01*
X151557892Y-80464514D01*
X151558078Y-80464419D01*
X151558149Y-80464383D01*
X151705257Y-80345257D01*
X151824383Y-80198149D01*
X151824483Y-80197954D01*
X151844835Y-80158008D01*
X151910320Y-80029488D01*
X151959312Y-79846645D01*
X151965500Y-79768021D01*
X151965499Y-78841980D01*
X151959312Y-78763355D01*
X151910320Y-78580512D01*
X151849826Y-78461785D01*
X151824385Y-78411853D01*
X151791554Y-78371311D01*
X151705257Y-78264743D01*
X151586130Y-78168275D01*
X151558148Y-78145616D01*
X151557892Y-78145486D01*
X151557768Y-78145369D01*
X151552696Y-78142075D01*
X151553298Y-78141147D01*
X151507095Y-78097512D01*
X151490299Y-78029691D01*
X151507671Y-77978711D01*
X172549500Y-77978711D01*
X172549500Y-78221288D01*
X172581161Y-78461785D01*
X172643947Y-78696104D01*
X172704367Y-78841970D01*
X172736776Y-78920212D01*
X172858064Y-79130289D01*
X172858066Y-79130292D01*
X172858067Y-79130293D01*
X173005733Y-79322736D01*
X173005739Y-79322743D01*
X173177256Y-79494260D01*
X173177263Y-79494266D01*
X173290321Y-79581018D01*
X173369711Y-79641936D01*
X173579788Y-79763224D01*
X173803900Y-79856054D01*
X174038211Y-79918838D01*
X174218586Y-79942584D01*
X174278711Y-79950500D01*
X174278712Y-79950500D01*
X174521289Y-79950500D01*
X174569388Y-79944167D01*
X174761789Y-79918838D01*
X174996100Y-79856054D01*
X175220212Y-79763224D01*
X175430289Y-79641936D01*
X175622738Y-79494265D01*
X175794265Y-79322738D01*
X175941936Y-79130289D01*
X176063224Y-78920212D01*
X176156054Y-78696100D01*
X176218838Y-78461789D01*
X176250500Y-78221288D01*
X176250500Y-77978712D01*
X176249718Y-77972775D01*
X176227676Y-77805342D01*
X176218838Y-77738211D01*
X176156054Y-77503900D01*
X176063224Y-77279788D01*
X175941936Y-77069711D01*
X175794265Y-76877262D01*
X175794260Y-76877256D01*
X175622743Y-76705739D01*
X175622736Y-76705733D01*
X175430293Y-76558067D01*
X175430292Y-76558066D01*
X175430289Y-76558064D01*
X175220212Y-76436776D01*
X175220205Y-76436773D01*
X174996104Y-76343947D01*
X174761785Y-76281161D01*
X174521289Y-76249500D01*
X174521288Y-76249500D01*
X174278712Y-76249500D01*
X174278711Y-76249500D01*
X174038214Y-76281161D01*
X173803895Y-76343947D01*
X173579794Y-76436773D01*
X173579785Y-76436777D01*
X173369706Y-76558067D01*
X173177263Y-76705733D01*
X173177256Y-76705739D01*
X173005739Y-76877256D01*
X173005733Y-76877263D01*
X172858067Y-77069706D01*
X172736777Y-77279785D01*
X172736773Y-77279794D01*
X172643947Y-77503895D01*
X172581161Y-77738214D01*
X172549500Y-77978711D01*
X151507671Y-77978711D01*
X151512835Y-77963556D01*
X151538866Y-77936496D01*
X151547833Y-77929638D01*
X151558149Y-77924383D01*
X151705257Y-77805257D01*
X151824383Y-77658149D01*
X151910320Y-77489488D01*
X151959312Y-77306645D01*
X151965500Y-77228021D01*
X151965499Y-76301980D01*
X151959312Y-76223355D01*
X151910320Y-76040512D01*
X151866938Y-75955371D01*
X151824385Y-75871853D01*
X151791554Y-75831311D01*
X151705257Y-75724743D01*
X151605433Y-75643907D01*
X151558146Y-75605614D01*
X151432868Y-75541783D01*
X151389488Y-75519680D01*
X151322562Y-75501747D01*
X151206643Y-75470687D01*
X151134736Y-75465028D01*
X151128021Y-75464500D01*
X151128020Y-75464500D01*
X149201989Y-75464500D01*
X149201970Y-75464501D01*
X149123356Y-75470687D01*
X148940512Y-75519680D01*
X148771853Y-75605614D01*
X148624743Y-75724743D01*
X148505614Y-75871853D01*
X148419680Y-76040512D01*
X148370687Y-76223356D01*
X148370687Y-76223357D01*
X148364500Y-76301973D01*
X148364500Y-77228010D01*
X148364501Y-77228029D01*
X148370687Y-77306643D01*
X148397771Y-77407723D01*
X148419680Y-77489488D01*
X148441783Y-77532868D01*
X148505614Y-77658146D01*
X148505679Y-77658226D01*
X148624743Y-77805257D01*
X148766030Y-77919669D01*
X148771855Y-77924386D01*
X148772114Y-77924518D01*
X148772237Y-77924634D01*
X148777304Y-77927925D01*
X148776702Y-77928851D01*
X148822908Y-77972495D01*
X148839700Y-78040317D01*
X148817159Y-78106451D01*
X148776850Y-78141377D01*
X148777304Y-78142075D01*
X148772281Y-78145336D01*
X148772114Y-78145482D01*
X148771855Y-78145613D01*
X148624743Y-78264743D01*
X148505614Y-78411853D01*
X148419680Y-78580512D01*
X148370687Y-78763356D01*
X148370687Y-78763357D01*
X148364500Y-78841973D01*
X148364500Y-79768010D01*
X148364501Y-79768029D01*
X148370687Y-79846643D01*
X148401747Y-79962562D01*
X148419680Y-80029488D01*
X148441783Y-80072868D01*
X148505614Y-80198146D01*
X148554859Y-80258958D01*
X148624743Y-80345257D01*
X148771662Y-80464230D01*
X148771855Y-80464386D01*
X148772114Y-80464518D01*
X148772237Y-80464634D01*
X148777304Y-80467925D01*
X148776702Y-80468851D01*
X148822908Y-80512495D01*
X148839700Y-80580317D01*
X148817159Y-80646451D01*
X148776850Y-80681377D01*
X148777304Y-80682075D01*
X148772281Y-80685336D01*
X148772114Y-80685482D01*
X148771855Y-80685613D01*
X148624743Y-80804743D01*
X148505614Y-80951853D01*
X148419680Y-81120512D01*
X148370687Y-81303356D01*
X148370687Y-81303357D01*
X148364500Y-81381973D01*
X148364500Y-82308010D01*
X148364501Y-82308029D01*
X148370687Y-82386643D01*
X148401747Y-82502562D01*
X148419680Y-82569488D01*
X148419715Y-82569556D01*
X148505614Y-82738146D01*
X148505679Y-82738226D01*
X148624743Y-82885257D01*
X148771851Y-83004383D01*
X148771855Y-83004386D01*
X148772114Y-83004518D01*
X148772237Y-83004634D01*
X148777304Y-83007925D01*
X148776702Y-83008851D01*
X148822908Y-83052495D01*
X148839700Y-83120317D01*
X148817159Y-83186451D01*
X148776850Y-83221377D01*
X148777304Y-83222075D01*
X148772281Y-83225336D01*
X148772114Y-83225482D01*
X148771855Y-83225613D01*
X148624743Y-83344743D01*
X148505614Y-83491853D01*
X148419680Y-83660512D01*
X148370687Y-83843356D01*
X148370687Y-83843357D01*
X148364500Y-83921973D01*
X148364500Y-84848010D01*
X148364501Y-84848029D01*
X148370687Y-84926643D01*
X148391732Y-85005185D01*
X148419680Y-85109488D01*
X148419715Y-85109556D01*
X148505614Y-85278146D01*
X148537784Y-85317872D01*
X148624743Y-85425257D01*
X148771851Y-85544383D01*
X148771855Y-85544386D01*
X148772114Y-85544518D01*
X148772237Y-85544634D01*
X148777304Y-85547925D01*
X148776702Y-85548851D01*
X148822908Y-85592495D01*
X148839700Y-85660317D01*
X148817159Y-85726451D01*
X148776850Y-85761377D01*
X148777304Y-85762075D01*
X148772281Y-85765336D01*
X148772114Y-85765482D01*
X148771855Y-85765613D01*
X148624743Y-85884743D01*
X148505614Y-86031853D01*
X148419680Y-86200512D01*
X148370687Y-86383356D01*
X148370687Y-86383357D01*
X148364500Y-86461973D01*
X148364500Y-87388010D01*
X148364501Y-87388029D01*
X148370687Y-87466643D01*
X148373841Y-87478412D01*
X148419680Y-87649488D01*
X148419715Y-87649556D01*
X148505614Y-87818146D01*
X148505679Y-87818226D01*
X148624743Y-87965257D01*
X148771847Y-88084380D01*
X148771851Y-88084383D01*
X148772018Y-88084468D01*
X148772099Y-88084544D01*
X148777304Y-88087925D01*
X148776686Y-88088875D01*
X148822820Y-88132436D01*
X148839623Y-88200255D01*
X148817093Y-88266393D01*
X148776855Y-88301266D01*
X148777323Y-88301986D01*
X148772145Y-88305348D01*
X148772043Y-88305437D01*
X148771883Y-88305518D01*
X148771873Y-88305524D01*
X148624758Y-88424658D01*
X148505624Y-88571773D01*
X148505623Y-88571775D01*
X148419684Y-88740444D01*
X148370687Y-88923298D01*
X148364500Y-89001919D01*
X148364500Y-89928064D01*
X148364501Y-89928083D01*
X148370687Y-90006699D01*
X148370688Y-90006701D01*
X148370688Y-90006703D01*
X148419684Y-90189556D01*
X148428988Y-90207816D01*
X148505623Y-90358224D01*
X148505624Y-90358226D01*
X148571451Y-90439514D01*
X148624758Y-90505342D01*
X148685647Y-90554649D01*
X148771873Y-90624475D01*
X148771875Y-90624476D01*
X148771953Y-90624516D01*
X148771989Y-90624550D01*
X148777323Y-90628014D01*
X148776689Y-90628989D01*
X148822749Y-90672491D01*
X148839543Y-90740312D01*
X148817005Y-90806447D01*
X148776843Y-90841246D01*
X148777323Y-90841986D01*
X148772002Y-90845440D01*
X148771953Y-90845484D01*
X148771873Y-90845524D01*
X148624758Y-90964658D01*
X148505624Y-91111773D01*
X148505623Y-91111775D01*
X148419684Y-91280444D01*
X148370687Y-91463298D01*
X148364500Y-91541919D01*
X148364500Y-92468064D01*
X148364501Y-92468083D01*
X148370687Y-92546699D01*
X148370688Y-92546701D01*
X148370688Y-92546703D01*
X148419684Y-92729556D01*
X148428988Y-92747816D01*
X148505623Y-92898224D01*
X148505624Y-92898226D01*
X148571451Y-92979514D01*
X148624758Y-93045342D01*
X148706046Y-93111168D01*
X148771873Y-93164475D01*
X148771875Y-93164476D01*
X148771953Y-93164516D01*
X148771989Y-93164550D01*
X148777323Y-93168014D01*
X148776689Y-93168989D01*
X148822749Y-93212491D01*
X148839543Y-93280312D01*
X148817005Y-93346447D01*
X148776843Y-93381246D01*
X148777323Y-93381986D01*
X148772002Y-93385440D01*
X148771953Y-93385484D01*
X148771873Y-93385524D01*
X148624758Y-93504658D01*
X148505624Y-93651773D01*
X148505623Y-93651775D01*
X148419684Y-93820444D01*
X148370687Y-94003298D01*
X148364500Y-94081919D01*
X148364500Y-95008064D01*
X148364501Y-95008083D01*
X148370687Y-95086699D01*
X148370688Y-95086701D01*
X148370688Y-95086703D01*
X148419684Y-95269556D01*
X148449062Y-95327214D01*
X148505623Y-95438224D01*
X148505624Y-95438226D01*
X148571451Y-95519514D01*
X148624758Y-95585342D01*
X148706046Y-95651168D01*
X148771873Y-95704475D01*
X148771875Y-95704476D01*
X148771953Y-95704516D01*
X148771989Y-95704550D01*
X148777323Y-95708014D01*
X148776689Y-95708989D01*
X148822749Y-95752491D01*
X148839543Y-95820312D01*
X148817005Y-95886447D01*
X148776843Y-95921246D01*
X148777323Y-95921986D01*
X148772002Y-95925440D01*
X148771953Y-95925484D01*
X148771873Y-95925524D01*
X148624758Y-96044658D01*
X148505624Y-96191773D01*
X148505623Y-96191775D01*
X148419683Y-96360444D01*
X148395700Y-96449952D01*
X148359334Y-96509612D01*
X148296487Y-96540141D01*
X148227112Y-96531846D01*
X148179559Y-96495894D01*
X148065257Y-96354743D01*
X147978958Y-96284859D01*
X147918146Y-96235614D01*
X147792868Y-96171783D01*
X147749488Y-96149680D01*
X147682562Y-96131747D01*
X147566643Y-96100687D01*
X147494736Y-96095028D01*
X147488021Y-96094500D01*
X147488020Y-96094500D01*
X146561989Y-96094500D01*
X146561970Y-96094501D01*
X146483356Y-96100687D01*
X146300512Y-96149680D01*
X146131853Y-96235614D01*
X145984743Y-96354743D01*
X145865615Y-96501852D01*
X145860404Y-96512081D01*
X145812428Y-96562876D01*
X145744607Y-96579670D01*
X145678472Y-96557131D01*
X145639436Y-96512080D01*
X145632773Y-96499004D01*
X145601874Y-96460847D01*
X145514478Y-96352922D01*
X145428782Y-96283526D01*
X145368396Y-96234626D01*
X145200916Y-96149293D01*
X145019351Y-96100643D01*
X144948579Y-96095073D01*
X144941289Y-96094500D01*
X144941288Y-96094500D01*
X144028721Y-96094500D01*
X144028702Y-96094501D01*
X143950647Y-96100643D01*
X143769083Y-96149293D01*
X143601603Y-96234626D01*
X143455522Y-96352922D01*
X143337226Y-96499003D01*
X143325485Y-96522049D01*
X143277511Y-96572845D01*
X143209690Y-96589641D01*
X143143555Y-96567104D01*
X143104515Y-96522049D01*
X143092773Y-96499003D01*
X143053052Y-96449952D01*
X142974478Y-96352922D01*
X142888782Y-96283526D01*
X142828396Y-96234626D01*
X142660916Y-96149293D01*
X142479351Y-96100643D01*
X142408579Y-96095073D01*
X142401289Y-96094500D01*
X142401288Y-96094500D01*
X141488721Y-96094500D01*
X141488702Y-96094501D01*
X141410647Y-96100643D01*
X141229083Y-96149293D01*
X141061603Y-96234626D01*
X140915522Y-96352922D01*
X140797226Y-96499003D01*
X140785485Y-96522049D01*
X140737511Y-96572845D01*
X140669690Y-96589641D01*
X140603555Y-96567104D01*
X140564515Y-96522049D01*
X140552773Y-96499003D01*
X140513052Y-96449952D01*
X140434478Y-96352922D01*
X140348782Y-96283526D01*
X140288396Y-96234626D01*
X140120916Y-96149293D01*
X139939351Y-96100643D01*
X139868579Y-96095073D01*
X139861289Y-96094500D01*
X139861288Y-96094500D01*
X138948721Y-96094500D01*
X138948702Y-96094501D01*
X138870647Y-96100643D01*
X138689083Y-96149293D01*
X138521603Y-96234626D01*
X138375522Y-96352922D01*
X138257226Y-96499003D01*
X138245485Y-96522049D01*
X138197511Y-96572845D01*
X138129690Y-96589641D01*
X138063555Y-96567104D01*
X138024515Y-96522049D01*
X138012773Y-96499003D01*
X137973052Y-96449952D01*
X137894478Y-96352922D01*
X137808782Y-96283526D01*
X137748396Y-96234626D01*
X137580916Y-96149293D01*
X137399351Y-96100643D01*
X137328579Y-96095073D01*
X137321289Y-96094500D01*
X137321288Y-96094500D01*
X136408721Y-96094500D01*
X136408702Y-96094501D01*
X136330647Y-96100643D01*
X136149083Y-96149293D01*
X135981603Y-96234626D01*
X135835522Y-96352922D01*
X135713139Y-96504052D01*
X135710930Y-96502263D01*
X135667294Y-96539653D01*
X135598081Y-96549212D01*
X135534688Y-96519834D01*
X135497241Y-96460847D01*
X135496635Y-96458668D01*
X135470316Y-96360444D01*
X135406714Y-96235617D01*
X135384376Y-96191775D01*
X135384375Y-96191773D01*
X135331068Y-96125946D01*
X135265242Y-96044658D01*
X135181896Y-95977165D01*
X135118128Y-95925526D01*
X135118053Y-95925488D01*
X135118016Y-95925453D01*
X135112677Y-95921986D01*
X135113310Y-95921009D01*
X135067255Y-95877516D01*
X135050455Y-95809696D01*
X135072989Y-95743560D01*
X135113157Y-95708753D01*
X135112677Y-95708014D01*
X135118002Y-95704555D01*
X135118053Y-95704512D01*
X135118126Y-95704475D01*
X135265242Y-95585342D01*
X135384375Y-95438226D01*
X135470316Y-95269556D01*
X135519312Y-95086703D01*
X135525500Y-95008075D01*
X135525499Y-94081926D01*
X135519312Y-94003297D01*
X135470316Y-93820444D01*
X135384376Y-93651775D01*
X135384375Y-93651773D01*
X135331068Y-93585946D01*
X135265242Y-93504658D01*
X135124270Y-93390500D01*
X135118128Y-93385526D01*
X135118053Y-93385488D01*
X135118016Y-93385453D01*
X135112677Y-93381986D01*
X135113310Y-93381009D01*
X135067255Y-93337516D01*
X135050455Y-93269696D01*
X135072989Y-93203560D01*
X135113157Y-93168753D01*
X135112677Y-93168014D01*
X135118002Y-93164555D01*
X135118053Y-93164512D01*
X135118126Y-93164475D01*
X135265242Y-93045342D01*
X135384375Y-92898226D01*
X135470316Y-92729556D01*
X135519312Y-92546703D01*
X135525500Y-92468075D01*
X135525499Y-91541926D01*
X135519312Y-91463297D01*
X135470316Y-91280444D01*
X135399841Y-91142127D01*
X135384376Y-91111775D01*
X135384375Y-91111773D01*
X135301870Y-91009890D01*
X135265242Y-90964658D01*
X135160948Y-90880202D01*
X135118128Y-90845526D01*
X135118053Y-90845488D01*
X135118016Y-90845453D01*
X135112677Y-90841986D01*
X135113310Y-90841009D01*
X135067255Y-90797516D01*
X135050455Y-90729696D01*
X135072989Y-90663560D01*
X135113157Y-90628753D01*
X135112677Y-90628014D01*
X135118002Y-90624555D01*
X135118053Y-90624512D01*
X135118126Y-90624475D01*
X135265242Y-90505342D01*
X135384375Y-90358226D01*
X135470316Y-90189556D01*
X135519312Y-90006703D01*
X135525500Y-89928075D01*
X135525499Y-89001926D01*
X135519312Y-88923297D01*
X135470316Y-88740444D01*
X135384376Y-88571775D01*
X135384375Y-88571773D01*
X135301870Y-88469890D01*
X135265242Y-88424658D01*
X135181896Y-88357165D01*
X135118128Y-88305526D01*
X135118053Y-88305488D01*
X135118016Y-88305453D01*
X135112677Y-88301986D01*
X135113310Y-88301009D01*
X135067255Y-88257516D01*
X135050455Y-88189696D01*
X135072989Y-88123560D01*
X135113157Y-88088753D01*
X135112677Y-88088014D01*
X135118002Y-88084555D01*
X135118053Y-88084512D01*
X135118126Y-88084475D01*
X135265242Y-87965342D01*
X135384375Y-87818226D01*
X135470316Y-87649556D01*
X135519312Y-87466703D01*
X135525500Y-87388075D01*
X135525499Y-86461926D01*
X135519312Y-86383297D01*
X135470316Y-86200444D01*
X135409053Y-86080208D01*
X135384376Y-86031775D01*
X135384375Y-86031773D01*
X135301875Y-85929896D01*
X135265242Y-85884658D01*
X135181896Y-85817165D01*
X135118128Y-85765526D01*
X135118053Y-85765488D01*
X135118016Y-85765453D01*
X135112677Y-85761986D01*
X135113310Y-85761009D01*
X135067255Y-85717516D01*
X135050455Y-85649696D01*
X135072989Y-85583560D01*
X135113157Y-85548753D01*
X135112677Y-85548014D01*
X135118002Y-85544555D01*
X135118053Y-85544512D01*
X135118126Y-85544475D01*
X135265242Y-85425342D01*
X135384375Y-85278226D01*
X135470316Y-85109556D01*
X135519312Y-84926703D01*
X135525500Y-84848075D01*
X135525499Y-83921926D01*
X135519312Y-83843297D01*
X135470316Y-83660444D01*
X135399841Y-83522127D01*
X135384376Y-83491775D01*
X135384375Y-83491773D01*
X135301870Y-83389890D01*
X135265242Y-83344658D01*
X135118240Y-83225617D01*
X135118128Y-83225526D01*
X135118053Y-83225488D01*
X135118016Y-83225453D01*
X135112677Y-83221986D01*
X135113310Y-83221009D01*
X135067255Y-83177516D01*
X135050455Y-83109696D01*
X135072989Y-83043560D01*
X135113157Y-83008753D01*
X135112677Y-83008014D01*
X135118002Y-83004555D01*
X135118053Y-83004512D01*
X135118126Y-83004475D01*
X135265242Y-82885342D01*
X135384375Y-82738226D01*
X135470316Y-82569556D01*
X135519312Y-82386703D01*
X135525500Y-82308075D01*
X135525499Y-81381926D01*
X135519312Y-81303297D01*
X135470316Y-81120444D01*
X135412656Y-81007279D01*
X135384376Y-80951775D01*
X135384375Y-80951773D01*
X135331068Y-80885946D01*
X135265242Y-80804658D01*
X135199414Y-80751351D01*
X135118126Y-80685524D01*
X135118123Y-80685522D01*
X135117486Y-80685198D01*
X135117184Y-80684912D01*
X135112677Y-80681986D01*
X135113212Y-80681161D01*
X135066695Y-80637218D01*
X135049907Y-80569395D01*
X135072452Y-80503263D01*
X135112844Y-80468271D01*
X135112404Y-80467593D01*
X135117290Y-80464419D01*
X135117513Y-80464227D01*
X135117855Y-80464052D01*
X135264886Y-80344986D01*
X135383953Y-80197954D01*
X135383955Y-80197951D01*
X135469848Y-80029374D01*
X135518816Y-79846622D01*
X135524999Y-79768053D01*
X135525000Y-79768040D01*
X135525000Y-79555000D01*
X134640686Y-79555000D01*
X134645080Y-79550606D01*
X134697741Y-79459394D01*
X134725000Y-79357661D01*
X134725000Y-79252339D01*
X134697741Y-79150606D01*
X134645080Y-79059394D01*
X134640686Y-79055000D01*
X135525000Y-79055000D01*
X135525000Y-78841959D01*
X135524999Y-78841946D01*
X135518816Y-78763377D01*
X135469848Y-78580625D01*
X135383955Y-78412048D01*
X135383953Y-78412045D01*
X135264886Y-78265013D01*
X135117854Y-78145946D01*
X135117851Y-78145944D01*
X135117499Y-78145765D01*
X135117331Y-78145607D01*
X135112404Y-78142407D01*
X135112989Y-78141505D01*
X135066702Y-78097791D01*
X135049907Y-78029970D01*
X135072444Y-77963835D01*
X135113075Y-77928627D01*
X135112677Y-77928014D01*
X135117094Y-77925145D01*
X135117500Y-77924794D01*
X135117814Y-77924634D01*
X135118126Y-77924475D01*
X135265242Y-77805342D01*
X135384375Y-77658226D01*
X135470316Y-77489556D01*
X135519312Y-77306703D01*
X135525500Y-77228075D01*
X135525499Y-76301926D01*
X135519312Y-76223297D01*
X135470316Y-76040444D01*
X135394785Y-75892204D01*
X135384376Y-75871775D01*
X135384375Y-75871773D01*
X135331068Y-75805946D01*
X135265242Y-75724658D01*
X135176249Y-75652592D01*
X135118126Y-75605524D01*
X135118124Y-75605523D01*
X135007114Y-75548962D01*
X134949456Y-75519584D01*
X134882524Y-75501649D01*
X134766601Y-75470587D01*
X134700349Y-75465373D01*
X134687975Y-75464400D01*
X134687973Y-75464400D01*
X132762035Y-75464400D01*
X132762016Y-75464401D01*
X132683400Y-75470587D01*
X132500544Y-75519584D01*
X132331875Y-75605523D01*
X132331873Y-75605524D01*
X132184758Y-75724658D01*
X132065624Y-75871773D01*
X132065623Y-75871775D01*
X131979684Y-76040444D01*
X131930687Y-76223298D01*
X131924500Y-76301919D01*
X131924500Y-77228064D01*
X131924501Y-77228083D01*
X131930687Y-77306699D01*
X131930688Y-77306701D01*
X131930688Y-77306703D01*
X131979684Y-77489556D01*
X131986990Y-77503895D01*
X132065623Y-77658224D01*
X132065624Y-77658226D01*
X132130396Y-77738211D01*
X132184758Y-77805342D01*
X132266046Y-77871168D01*
X132331873Y-77924475D01*
X132331877Y-77924477D01*
X132332506Y-77924798D01*
X132332803Y-77925079D01*
X132337323Y-77928014D01*
X132336786Y-77928840D01*
X132383300Y-77972775D01*
X132400092Y-78040596D01*
X132377551Y-78106730D01*
X132337157Y-78141731D01*
X132337596Y-78142407D01*
X132332737Y-78145561D01*
X132332508Y-78145761D01*
X132332151Y-78145942D01*
X132332145Y-78145946D01*
X132185113Y-78265013D01*
X132066046Y-78412045D01*
X132066044Y-78412048D01*
X131980151Y-78580625D01*
X131931183Y-78763377D01*
X131925000Y-78841946D01*
X131925000Y-79055000D01*
X134009314Y-79055000D01*
X134004920Y-79059394D01*
X133952259Y-79150606D01*
X133925000Y-79252339D01*
X133925000Y-79357661D01*
X133952259Y-79459394D01*
X134004920Y-79550606D01*
X134009314Y-79555000D01*
X131925000Y-79555000D01*
X131925000Y-79768053D01*
X131931183Y-79846622D01*
X131980151Y-80029374D01*
X132066044Y-80197951D01*
X132066046Y-80197954D01*
X132185113Y-80344986D01*
X132332143Y-80464052D01*
X132332493Y-80464230D01*
X132332659Y-80464387D01*
X132337596Y-80467593D01*
X132337009Y-80468495D01*
X132383293Y-80512201D01*
X132400093Y-80580021D01*
X132377559Y-80646158D01*
X132336926Y-80681375D01*
X132337323Y-80681986D01*
X132332929Y-80684839D01*
X132332520Y-80685194D01*
X132331882Y-80685518D01*
X132331873Y-80685524D01*
X132184758Y-80804658D01*
X132065624Y-80951773D01*
X132065623Y-80951775D01*
X131979684Y-81120444D01*
X131930687Y-81303298D01*
X131924500Y-81381919D01*
X131924500Y-82308064D01*
X131924501Y-82308083D01*
X131930687Y-82386699D01*
X131930688Y-82386701D01*
X131930688Y-82386703D01*
X131979684Y-82569556D01*
X132009062Y-82627214D01*
X132065623Y-82738224D01*
X132065624Y-82738226D01*
X132131451Y-82819514D01*
X132184758Y-82885342D01*
X132266046Y-82951168D01*
X132331873Y-83004475D01*
X132331875Y-83004476D01*
X132331953Y-83004516D01*
X132331989Y-83004550D01*
X132337323Y-83008014D01*
X132336689Y-83008989D01*
X132382749Y-83052491D01*
X132399543Y-83120312D01*
X132377005Y-83186447D01*
X132336843Y-83221246D01*
X132337323Y-83221986D01*
X132332002Y-83225440D01*
X132331953Y-83225484D01*
X132331873Y-83225524D01*
X132184758Y-83344658D01*
X132065624Y-83491773D01*
X132065623Y-83491775D01*
X131979682Y-83660447D01*
X131971068Y-83692595D01*
X131934703Y-83752255D01*
X131871855Y-83782783D01*
X131851294Y-83784500D01*
X116724499Y-83784500D01*
X116657460Y-83764815D01*
X116611705Y-83712011D01*
X116600499Y-83660500D01*
X116600499Y-83522129D01*
X116600498Y-83522123D01*
X116600497Y-83522116D01*
X116594091Y-83462517D01*
X116550132Y-83344658D01*
X116543797Y-83327671D01*
X116543793Y-83327664D01*
X116457547Y-83212455D01*
X116457544Y-83212452D01*
X116342335Y-83126206D01*
X116342328Y-83126202D01*
X116207482Y-83075908D01*
X116207483Y-83075908D01*
X116147883Y-83069501D01*
X116147881Y-83069500D01*
X116147873Y-83069500D01*
X116147864Y-83069500D01*
X114352129Y-83069500D01*
X114352123Y-83069501D01*
X114292516Y-83075908D01*
X114157671Y-83126202D01*
X114157664Y-83126206D01*
X114042455Y-83212452D01*
X114042452Y-83212455D01*
X113956206Y-83327664D01*
X113956202Y-83327671D01*
X113905908Y-83462517D01*
X113899501Y-83522116D01*
X113899501Y-83522123D01*
X113899500Y-83522135D01*
X106300500Y-83522135D01*
X106300500Y-78103246D01*
X106300670Y-78096757D01*
X106303628Y-78040317D01*
X106306857Y-77978711D01*
X107749500Y-77978711D01*
X107749500Y-78221288D01*
X107781161Y-78461785D01*
X107843947Y-78696104D01*
X107904367Y-78841970D01*
X107936776Y-78920212D01*
X108058064Y-79130289D01*
X108058066Y-79130292D01*
X108058067Y-79130293D01*
X108205733Y-79322736D01*
X108205739Y-79322743D01*
X108377256Y-79494260D01*
X108377263Y-79494266D01*
X108490321Y-79581018D01*
X108569711Y-79641936D01*
X108779788Y-79763224D01*
X109003900Y-79856054D01*
X109238211Y-79918838D01*
X109418586Y-79942584D01*
X109478711Y-79950500D01*
X109478712Y-79950500D01*
X109721289Y-79950500D01*
X109769388Y-79944167D01*
X109961789Y-79918838D01*
X110196100Y-79856054D01*
X110420212Y-79763224D01*
X110630289Y-79641936D01*
X110822738Y-79494265D01*
X110994265Y-79322738D01*
X111141936Y-79130289D01*
X111263224Y-78920212D01*
X111356054Y-78696100D01*
X111418838Y-78461789D01*
X111450500Y-78221288D01*
X111450500Y-77978712D01*
X111449718Y-77972775D01*
X111427676Y-77805342D01*
X111418838Y-77738211D01*
X111356054Y-77503900D01*
X111263224Y-77279788D01*
X111141936Y-77069711D01*
X110994265Y-76877262D01*
X110994260Y-76877256D01*
X110822743Y-76705739D01*
X110822736Y-76705733D01*
X110630293Y-76558067D01*
X110630292Y-76558066D01*
X110630289Y-76558064D01*
X110420212Y-76436776D01*
X110420205Y-76436772D01*
X110365350Y-76414051D01*
X110196104Y-76343947D01*
X109961785Y-76281161D01*
X109721289Y-76249500D01*
X109721288Y-76249500D01*
X109478712Y-76249500D01*
X109478711Y-76249500D01*
X109238214Y-76281161D01*
X109003895Y-76343947D01*
X108779794Y-76436773D01*
X108779785Y-76436777D01*
X108569706Y-76558067D01*
X108377263Y-76705733D01*
X108377256Y-76705739D01*
X108205739Y-76877256D01*
X108205733Y-76877263D01*
X108058067Y-77069706D01*
X107936777Y-77279785D01*
X107936773Y-77279794D01*
X107843947Y-77503895D01*
X107781161Y-77738214D01*
X107749500Y-77978711D01*
X106306857Y-77978711D01*
X106318235Y-77761592D01*
X106319592Y-77748686D01*
X106321251Y-77738211D01*
X106371586Y-77420409D01*
X106374279Y-77407733D01*
X106460310Y-77086662D01*
X106464314Y-77074340D01*
X106583434Y-76764021D01*
X106588698Y-76752199D01*
X106739611Y-76456014D01*
X106746077Y-76444816D01*
X106927113Y-76166045D01*
X106934727Y-76155564D01*
X107143915Y-75897241D01*
X107152582Y-75887615D01*
X107387615Y-75652582D01*
X107397241Y-75643915D01*
X107655564Y-75434727D01*
X107666045Y-75427113D01*
X107944816Y-75246077D01*
X107956014Y-75239611D01*
X108252199Y-75088698D01*
X108264021Y-75083434D01*
X108574340Y-74964314D01*
X108586662Y-74960310D01*
X108907733Y-74874279D01*
X108920409Y-74871586D01*
X109248688Y-74819591D01*
X109261592Y-74818235D01*
X109596756Y-74800669D01*
X109603246Y-74800500D01*
X109647595Y-74800500D01*
X174352405Y-74800500D01*
X174396754Y-74800500D01*
X174403243Y-74800669D01*
G37*
%TD.AperFunction*%
%TD*%
M02*
